%TF.GenerationSoftware,KiCad,Pcbnew,7.0.10*%
%TF.CreationDate,2026-03-12T13:46:59+08:00*%
%TF.ProjectId,NeepNeep-DAC-V2,4e656570-4e65-4657-902d-4441432d5632,V2*%
%TF.SameCoordinates,Original*%
%TF.FileFunction,Legend,Bot*%
%TF.FilePolarity,Positive*%
%FSLAX46Y46*%
G04 Gerber Fmt 4.6, Leading zero omitted, Abs format (unit mm)*
G04 Created by KiCad (PCBNEW 7.0.10) date 2026-03-12 13:46:59*
%MOMM*%
%LPD*%
G01*
G04 APERTURE LIST*
%ADD10C,0.100000*%
%ADD11C,0.200000*%
%ADD12R,1.000000X1.000000*%
%ADD13O,1.000000X1.000000*%
%ADD14R,1.150000X5.080000*%
%ADD15C,10.000000*%
G04 APERTURE END LIST*
D10*
X6342573Y10595391D02*
X6533049Y10823962D01*
X6685430Y10595391D02*
X6685430Y11128724D01*
X6685430Y11128724D02*
X6456859Y11128724D01*
X6456859Y11128724D02*
X6380668Y11090629D01*
X6380668Y11090629D02*
X6342573Y11014439D01*
X6342573Y11014439D02*
X6342573Y10938248D01*
X6342573Y10938248D02*
X6380668Y10862058D01*
X6380668Y10862058D02*
X6456859Y10823962D01*
X6456859Y10823962D02*
X6685430Y10823962D01*
X6533049Y11395391D02*
X6723525Y11357296D01*
X6723525Y11357296D02*
X6914002Y11243010D01*
X6914002Y11243010D02*
X7028287Y11052534D01*
X7028287Y11052534D02*
X7066383Y10862058D01*
X7066383Y10862058D02*
X7028287Y10671581D01*
X7028287Y10671581D02*
X6914002Y10481105D01*
X6914002Y10481105D02*
X6723525Y10366820D01*
X6723525Y10366820D02*
X6533049Y10328724D01*
X6533049Y10328724D02*
X6342573Y10366820D01*
X6342573Y10366820D02*
X6152097Y10481105D01*
X6152097Y10481105D02*
X6037811Y10671581D01*
X6037811Y10671581D02*
X5999716Y10862058D01*
X5999716Y10862058D02*
X6037811Y11052534D01*
X6037811Y11052534D02*
X6152097Y11243010D01*
X6152097Y11243010D02*
X6342573Y11357296D01*
X6342573Y11357296D02*
X6533049Y11395391D01*
X5047334Y10481105D02*
X5047334Y11281105D01*
X5047334Y11281105D02*
X4856858Y11281105D01*
X4856858Y11281105D02*
X4742572Y11243010D01*
X4742572Y11243010D02*
X4666382Y11166820D01*
X4666382Y11166820D02*
X4628287Y11090629D01*
X4628287Y11090629D02*
X4590191Y10938248D01*
X4590191Y10938248D02*
X4590191Y10823962D01*
X4590191Y10823962D02*
X4628287Y10671581D01*
X4628287Y10671581D02*
X4666382Y10595391D01*
X4666382Y10595391D02*
X4742572Y10519200D01*
X4742572Y10519200D02*
X4856858Y10481105D01*
X4856858Y10481105D02*
X5047334Y10481105D01*
X3904477Y10481105D02*
X3904477Y10900153D01*
X3904477Y10900153D02*
X3942572Y10976343D01*
X3942572Y10976343D02*
X4018763Y11014439D01*
X4018763Y11014439D02*
X4171144Y11014439D01*
X4171144Y11014439D02*
X4247334Y10976343D01*
X3904477Y10519200D02*
X3980668Y10481105D01*
X3980668Y10481105D02*
X4171144Y10481105D01*
X4171144Y10481105D02*
X4247334Y10519200D01*
X4247334Y10519200D02*
X4285430Y10595391D01*
X4285430Y10595391D02*
X4285430Y10671581D01*
X4285430Y10671581D02*
X4247334Y10747772D01*
X4247334Y10747772D02*
X4171144Y10785867D01*
X4171144Y10785867D02*
X3980668Y10785867D01*
X3980668Y10785867D02*
X3904477Y10823962D01*
X3523524Y10481105D02*
X3523524Y11014439D01*
X3523524Y10938248D02*
X3485429Y10976343D01*
X3485429Y10976343D02*
X3409239Y11014439D01*
X3409239Y11014439D02*
X3294953Y11014439D01*
X3294953Y11014439D02*
X3218762Y10976343D01*
X3218762Y10976343D02*
X3180667Y10900153D01*
X3180667Y10900153D02*
X3180667Y10481105D01*
X3180667Y10900153D02*
X3142572Y10976343D01*
X3142572Y10976343D02*
X3066381Y11014439D01*
X3066381Y11014439D02*
X2952096Y11014439D01*
X2952096Y11014439D02*
X2875905Y10976343D01*
X2875905Y10976343D02*
X2837810Y10900153D01*
X2837810Y10900153D02*
X2837810Y10481105D01*
X2456857Y10481105D02*
X2456857Y11014439D01*
X2456857Y11281105D02*
X2494953Y11243010D01*
X2494953Y11243010D02*
X2456857Y11204915D01*
X2456857Y11204915D02*
X2418762Y11243010D01*
X2418762Y11243010D02*
X2456857Y11281105D01*
X2456857Y11281105D02*
X2456857Y11204915D01*
X1771143Y10519200D02*
X1847334Y10481105D01*
X1847334Y10481105D02*
X1999715Y10481105D01*
X1999715Y10481105D02*
X2075905Y10519200D01*
X2075905Y10519200D02*
X2114001Y10595391D01*
X2114001Y10595391D02*
X2114001Y10900153D01*
X2114001Y10900153D02*
X2075905Y10976343D01*
X2075905Y10976343D02*
X1999715Y11014439D01*
X1999715Y11014439D02*
X1847334Y11014439D01*
X1847334Y11014439D02*
X1771143Y10976343D01*
X1771143Y10976343D02*
X1733048Y10900153D01*
X1733048Y10900153D02*
X1733048Y10823962D01*
X1733048Y10823962D02*
X2114001Y10747772D01*
X1390191Y11014439D02*
X1390191Y10481105D01*
X1390191Y10938248D02*
X1352096Y10976343D01*
X1352096Y10976343D02*
X1275906Y11014439D01*
X1275906Y11014439D02*
X1161620Y11014439D01*
X1161620Y11014439D02*
X1085429Y10976343D01*
X1085429Y10976343D02*
X1047334Y10900153D01*
X1047334Y10900153D02*
X1047334Y10481105D01*
X-400286Y10557296D02*
X-362190Y10519200D01*
X-362190Y10519200D02*
X-247905Y10481105D01*
X-247905Y10481105D02*
X-171714Y10481105D01*
X-171714Y10481105D02*
X-57428Y10519200D01*
X-57428Y10519200D02*
X18762Y10595391D01*
X18762Y10595391D02*
X56857Y10671581D01*
X56857Y10671581D02*
X94953Y10823962D01*
X94953Y10823962D02*
X94953Y10938248D01*
X94953Y10938248D02*
X56857Y11090629D01*
X56857Y11090629D02*
X18762Y11166820D01*
X18762Y11166820D02*
X-57428Y11243010D01*
X-57428Y11243010D02*
X-171714Y11281105D01*
X-171714Y11281105D02*
X-247905Y11281105D01*
X-247905Y11281105D02*
X-362190Y11243010D01*
X-362190Y11243010D02*
X-400286Y11204915D01*
X-857428Y10481105D02*
X-781238Y10519200D01*
X-781238Y10519200D02*
X-743143Y10595391D01*
X-743143Y10595391D02*
X-743143Y11281105D01*
X-1505048Y10481105D02*
X-1505048Y10900153D01*
X-1505048Y10900153D02*
X-1466953Y10976343D01*
X-1466953Y10976343D02*
X-1390762Y11014439D01*
X-1390762Y11014439D02*
X-1238381Y11014439D01*
X-1238381Y11014439D02*
X-1162191Y10976343D01*
X-1505048Y10519200D02*
X-1428857Y10481105D01*
X-1428857Y10481105D02*
X-1238381Y10481105D01*
X-1238381Y10481105D02*
X-1162191Y10519200D01*
X-1162191Y10519200D02*
X-1124095Y10595391D01*
X-1124095Y10595391D02*
X-1124095Y10671581D01*
X-1124095Y10671581D02*
X-1162191Y10747772D01*
X-1162191Y10747772D02*
X-1238381Y10785867D01*
X-1238381Y10785867D02*
X-1428857Y10785867D01*
X-1428857Y10785867D02*
X-1505048Y10823962D01*
X-1886001Y10481105D02*
X-1886001Y11014439D01*
X-1886001Y10862058D02*
X-1924096Y10938248D01*
X-1924096Y10938248D02*
X-1962191Y10976343D01*
X-1962191Y10976343D02*
X-2038382Y11014439D01*
X-2038382Y11014439D02*
X-2114572Y11014439D01*
X-2381239Y10481105D02*
X-2381239Y11281105D01*
X-2457429Y10785867D02*
X-2686001Y10481105D01*
X-2686001Y11014439D02*
X-2381239Y10709677D01*
X-2990762Y10519200D02*
X-3066953Y10481105D01*
X-3066953Y10481105D02*
X-3219334Y10481105D01*
X-3219334Y10481105D02*
X-3295524Y10519200D01*
X-3295524Y10519200D02*
X-3333620Y10595391D01*
X-3333620Y10595391D02*
X-3333620Y10633486D01*
X-3333620Y10633486D02*
X-3295524Y10709677D01*
X-3295524Y10709677D02*
X-3219334Y10747772D01*
X-3219334Y10747772D02*
X-3105048Y10747772D01*
X-3105048Y10747772D02*
X-3028858Y10785867D01*
X-3028858Y10785867D02*
X-2990762Y10862058D01*
X-2990762Y10862058D02*
X-2990762Y10900153D01*
X-2990762Y10900153D02*
X-3028858Y10976343D01*
X-3028858Y10976343D02*
X-3105048Y11014439D01*
X-3105048Y11014439D02*
X-3219334Y11014439D01*
X-3219334Y11014439D02*
X-3295524Y10976343D01*
X-3790762Y10481105D02*
X-3714572Y10519200D01*
X-3714572Y10519200D02*
X-3676477Y10557296D01*
X-3676477Y10557296D02*
X-3638381Y10633486D01*
X-3638381Y10633486D02*
X-3638381Y10862058D01*
X-3638381Y10862058D02*
X-3676477Y10938248D01*
X-3676477Y10938248D02*
X-3714572Y10976343D01*
X-3714572Y10976343D02*
X-3790762Y11014439D01*
X-3790762Y11014439D02*
X-3905048Y11014439D01*
X-3905048Y11014439D02*
X-3981239Y10976343D01*
X-3981239Y10976343D02*
X-4019334Y10938248D01*
X-4019334Y10938248D02*
X-4057429Y10862058D01*
X-4057429Y10862058D02*
X-4057429Y10633486D01*
X-4057429Y10633486D02*
X-4019334Y10557296D01*
X-4019334Y10557296D02*
X-3981239Y10519200D01*
X-3981239Y10519200D02*
X-3905048Y10481105D01*
X-3905048Y10481105D02*
X-3790762Y10481105D01*
X-4400287Y11014439D02*
X-4400287Y10481105D01*
X-4400287Y10938248D02*
X-4438382Y10976343D01*
X-4438382Y10976343D02*
X-4514572Y11014439D01*
X-4514572Y11014439D02*
X-4628858Y11014439D01*
X-4628858Y11014439D02*
X-4705049Y10976343D01*
X-4705049Y10976343D02*
X-4743144Y10900153D01*
X-4743144Y10900153D02*
X-4743144Y10481105D01*
X-5695525Y11204915D02*
X-5733621Y11243010D01*
X-5733621Y11243010D02*
X-5809811Y11281105D01*
X-5809811Y11281105D02*
X-6000287Y11281105D01*
X-6000287Y11281105D02*
X-6076478Y11243010D01*
X-6076478Y11243010D02*
X-6114573Y11204915D01*
X-6114573Y11204915D02*
X-6152668Y11128724D01*
X-6152668Y11128724D02*
X-6152668Y11052534D01*
X-6152668Y11052534D02*
X-6114573Y10938248D01*
X-6114573Y10938248D02*
X-5657430Y10481105D01*
X-5657430Y10481105D02*
X-6152668Y10481105D01*
X-6647907Y11281105D02*
X-6724097Y11281105D01*
X-6724097Y11281105D02*
X-6800288Y11243010D01*
X-6800288Y11243010D02*
X-6838383Y11204915D01*
X-6838383Y11204915D02*
X-6876478Y11128724D01*
X-6876478Y11128724D02*
X-6914573Y10976343D01*
X-6914573Y10976343D02*
X-6914573Y10785867D01*
X-6914573Y10785867D02*
X-6876478Y10633486D01*
X-6876478Y10633486D02*
X-6838383Y10557296D01*
X-6838383Y10557296D02*
X-6800288Y10519200D01*
X-6800288Y10519200D02*
X-6724097Y10481105D01*
X-6724097Y10481105D02*
X-6647907Y10481105D01*
X-6647907Y10481105D02*
X-6571716Y10519200D01*
X-6571716Y10519200D02*
X-6533621Y10557296D01*
X-6533621Y10557296D02*
X-6495526Y10633486D01*
X-6495526Y10633486D02*
X-6457430Y10785867D01*
X-6457430Y10785867D02*
X-6457430Y10976343D01*
X-6457430Y10976343D02*
X-6495526Y11128724D01*
X-6495526Y11128724D02*
X-6533621Y11204915D01*
X-6533621Y11204915D02*
X-6571716Y11243010D01*
X-6571716Y11243010D02*
X-6647907Y11281105D01*
X-7219335Y11204915D02*
X-7257431Y11243010D01*
X-7257431Y11243010D02*
X-7333621Y11281105D01*
X-7333621Y11281105D02*
X-7524097Y11281105D01*
X-7524097Y11281105D02*
X-7600288Y11243010D01*
X-7600288Y11243010D02*
X-7638383Y11204915D01*
X-7638383Y11204915D02*
X-7676478Y11128724D01*
X-7676478Y11128724D02*
X-7676478Y11052534D01*
X-7676478Y11052534D02*
X-7638383Y10938248D01*
X-7638383Y10938248D02*
X-7181240Y10481105D01*
X-7181240Y10481105D02*
X-7676478Y10481105D01*
X-8362193Y11281105D02*
X-8209812Y11281105D01*
X-8209812Y11281105D02*
X-8133621Y11243010D01*
X-8133621Y11243010D02*
X-8095526Y11204915D01*
X-8095526Y11204915D02*
X-8019336Y11090629D01*
X-8019336Y11090629D02*
X-7981240Y10938248D01*
X-7981240Y10938248D02*
X-7981240Y10633486D01*
X-7981240Y10633486D02*
X-8019336Y10557296D01*
X-8019336Y10557296D02*
X-8057431Y10519200D01*
X-8057431Y10519200D02*
X-8133621Y10481105D01*
X-8133621Y10481105D02*
X-8286002Y10481105D01*
X-8286002Y10481105D02*
X-8362193Y10519200D01*
X-8362193Y10519200D02*
X-8400288Y10557296D01*
X-8400288Y10557296D02*
X-8438383Y10633486D01*
X-8438383Y10633486D02*
X-8438383Y10823962D01*
X-8438383Y10823962D02*
X-8400288Y10900153D01*
X-8400288Y10900153D02*
X-8362193Y10938248D01*
X-8362193Y10938248D02*
X-8286002Y10976343D01*
X-8286002Y10976343D02*
X-8133621Y10976343D01*
X-8133621Y10976343D02*
X-8057431Y10938248D01*
X-8057431Y10938248D02*
X-8019336Y10900153D01*
X-8019336Y10900153D02*
X-7981240Y10823962D01*
D11*
%TO.C,BT1*%
X10550000Y4825000D02*
X10550000Y3000000D01*
X10550000Y4825000D02*
X7350000Y7675000D01*
X10500000Y-3087500D02*
X10500000Y-4912500D01*
X7350000Y7675000D02*
X-7350000Y7675000D01*
X-10500000Y-3087500D02*
X-10500000Y-4912500D01*
X-10550000Y4825000D02*
X-7350000Y7675000D01*
X-10550000Y4825000D02*
X-10550000Y3000000D01*
D10*
X10000000Y0D02*
G75*
G03*
X-10000000Y0I-10000000J0D01*
G01*
X-10000000Y0D02*
G75*
G03*
X10000000Y0I10000000J0D01*
G01*
%TD*%
%LPC*%
D12*
%TO.C,J2*%
X-10084000Y-10998000D03*
D13*
X-8814000Y-10998000D03*
X-7544000Y-10998000D03*
%TD*%
D12*
%TO.C,J1*%
X-3099000Y-10998000D03*
D13*
X-1829000Y-10998000D03*
X-559000Y-10998000D03*
X711000Y-10998000D03*
X1981000Y-10998000D03*
X3251000Y-10998000D03*
%TD*%
D14*
%TO.C,BT1*%
X10875000Y0D03*
X-10875000Y0D03*
D15*
X0Y0D03*
%TD*%
%LPD*%
M02*
