M48
; DRILL file {KiCad 7.0.10} date Thu Feb 12 12:37:37 2026
; FORMAT={-:-/ absolute / inch / decimal}
; #@! TF.CreationDate,2026-02-12T12:37:37+08:00
; #@! TF.GenerationSoftware,Kicad,Pcbnew,7.0.10
; #@! TF.FileFunction,Plated,1,2,PTH
FMAT,2
INCH
; #@! TA.AperFunction,Plated,PTH,ViaDrill
T1C0.0079
; #@! TA.AperFunction,Plated,PTH,ComponentDrill
T2C0.0256
%
G90
G05
T1
X-0.4409Y0.4488
X-0.4409Y0.4075
X-0.4272Y-0.218
X-0.322Y0.137
X-0.317Y0.187
X-0.302Y0.077
X-0.302Y-0.018
X-0.2867Y-0.093
X-0.267Y0.007
X-0.247Y-0.043
X-0.202Y0.212
X-0.202Y0.102
X-0.097Y0.4272
X-0.027Y0.4272
X0.028Y-0.328
X0.0433Y-0.1102
X0.073Y-0.348
X0.0807Y0.3484
X0.098Y0.102
X0.208Y0.427
X0.248Y0.277
X0.338Y0.022
X0.428Y0.452
X0.433Y-0.458
X0.453Y0.452
X0.453Y0.422
X0.4567Y-0.433
X0.4567Y-0.458
T2
X-0.397Y-0.433
X-0.347Y-0.433
X-0.297Y-0.433
X-0.122Y-0.433
X-0.072Y-0.433
X-0.022Y-0.433
X0.028Y-0.433
X0.078Y-0.433
X0.128Y-0.433
M30
