%TF.GenerationSoftware,KiCad,Pcbnew,7.0.10*%
%TF.CreationDate,2026-03-12T13:46:59+08:00*%
%TF.ProjectId,NeepNeep-DAC-V2,4e656570-4e65-4657-902d-4441432d5632,V2*%
%TF.SameCoordinates,Original*%
%TF.FileFunction,Copper,L2,Bot*%
%TF.FilePolarity,Positive*%
%FSLAX46Y46*%
G04 Gerber Fmt 4.6, Leading zero omitted, Abs format (unit mm)*
G04 Created by KiCad (PCBNEW 7.0.10) date 2026-03-12 13:46:59*
%MOMM*%
%LPD*%
G01*
G04 APERTURE LIST*
%TA.AperFunction,ComponentPad*%
%ADD10R,1.000000X1.000000*%
%TD*%
%TA.AperFunction,ComponentPad*%
%ADD11O,1.000000X1.000000*%
%TD*%
%TA.AperFunction,SMDPad,CuDef*%
%ADD12R,1.150000X5.080000*%
%TD*%
%TA.AperFunction,SMDPad,CuDef*%
%ADD13C,10.000000*%
%TD*%
%TA.AperFunction,ViaPad*%
%ADD14C,0.400000*%
%TD*%
%TA.AperFunction,Conductor*%
%ADD15C,0.500000*%
%TD*%
%TA.AperFunction,Conductor*%
%ADD16C,0.200000*%
%TD*%
G04 APERTURE END LIST*
D10*
%TO.P,J2,1,Pin_1*%
%TO.N,GND*%
X-10084000Y-10998000D03*
D11*
%TO.P,J2,2,Pin_2*%
%TO.N,RESET*%
X-8814000Y-10998000D03*
%TO.P,J2,3,Pin_3*%
%TO.N,3.3v*%
X-7544000Y-10998000D03*
%TD*%
D10*
%TO.P,J1,1,Pin_1*%
%TO.N,3.3v*%
X-3099000Y-10998000D03*
D11*
%TO.P,J1,2,Pin_2*%
%TO.N,GND*%
X-1829000Y-10998000D03*
%TO.P,J1,3,Pin_3*%
%TO.N,FLASH_CS*%
X-559000Y-10998000D03*
%TO.P,J1,4,Pin_4*%
%TO.N,FLASH_DO*%
X711000Y-10998000D03*
%TO.P,J1,5,Pin_5*%
%TO.N,FLASH_DI*%
X1981000Y-10998000D03*
%TO.P,J1,6,Pin_6*%
%TO.N,FLASH_CLK*%
X3251000Y-10998000D03*
%TD*%
D12*
%TO.P,BT1,1,+*%
%TO.N,3.3v*%
X10875000Y0D03*
X-10875000Y0D03*
D13*
%TO.P,BT1,2,-*%
%TO.N,GND*%
X0Y0D03*
%TD*%
D14*
%TO.N,GND*%
X-250000Y-4300000D03*
X-4000000Y1050000D03*
X-11200000Y10350000D03*
X-2200000Y6850000D03*
X-8800000Y-4550000D03*
X11600000Y-10998000D03*
X10871000Y11481000D03*
X-2300000Y200000D03*
X8966000Y305000D03*
X11506000Y10719000D03*
X11125000Y-7696000D03*
X11550000Y-11550000D03*
X-950000Y6000000D03*
X11000000Y-11550000D03*
X6299000Y7036000D03*
X2050000Y8850000D03*
X2489000Y2591000D03*
X8585000Y-7061000D03*
X-11200000Y11400000D03*
X7442000Y-5918000D03*
X11125000Y-10109000D03*
X11506000Y11481000D03*
%TO.N,3.3v*%
X-3850000Y4750000D03*
X-4417900Y10592000D03*
X-6733100Y10592000D03*
X-8814000Y10615500D03*
X-7550000Y150000D03*
X-10850000Y-5537000D03*
X-8200000Y2200000D03*
X5283000Y10846000D03*
%TO.N,FLASH_CS*%
X-5850000Y150000D03*
X2200000Y-7950000D03*
X-7250000Y-1050000D03*
%TO.N,FLASH_CLK*%
X-8050000Y4800000D03*
X-5300000Y-1050000D03*
%TO.N,RESET*%
X-5850000Y-2300000D03*
X-5450000Y-8481500D03*
%TO.N,SPEAKER*%
X-500000Y-7050000D03*
X4150000Y-7000000D03*
%TO.N,FLASH_DI*%
X100000Y-8750000D03*
%TD*%
D15*
%TO.N,3.3v*%
X10875000Y5625000D02*
X10875000Y0D01*
X-10850000Y-6984894D02*
X-10850000Y-5537000D01*
D16*
X-3850000Y4750000D02*
X-3850000Y10592000D01*
D15*
X-3177000Y-10998000D02*
X-3175000Y-11000000D01*
X5908000Y10592000D02*
X10875000Y5625000D01*
X-8814000Y10615500D02*
X-8790500Y10592000D01*
X-6528000Y-10998000D02*
X-3177000Y-10998000D01*
X-10875000Y0D02*
X-10875000Y1175000D01*
X-10875000Y8554500D02*
X-10875000Y3250000D01*
X-7544000Y-10998000D02*
X-7544000Y-10290894D01*
X-3850000Y10592000D02*
X5908000Y10592000D01*
X-10875000Y0D02*
X-7700000Y0D01*
X-8790500Y10592000D02*
X-6733100Y10592000D01*
X-6733100Y10592000D02*
X-4417900Y10592000D01*
X-9850000Y2200000D02*
X-8200000Y2200000D01*
X-10875000Y1175000D02*
X-9850000Y2200000D01*
X-8814000Y10615500D02*
X-10875000Y8554500D01*
X-10875000Y0D02*
X-10875000Y3250000D01*
X-7700000Y0D02*
X-7550000Y150000D01*
X-7544000Y-10290894D02*
X-10850000Y-6984894D01*
X-6528000Y-10998000D02*
X-7544000Y-10998000D01*
X-10875000Y0D02*
X-10850000Y-25000D01*
X-10850000Y-25000D02*
X-10850000Y-5537000D01*
X-4417900Y10592000D02*
X-3850000Y10592000D01*
D16*
%TO.N,FLASH_CS*%
X-7250000Y-1050000D02*
X-7050000Y-1050000D01*
X2200000Y-7950000D02*
X0Y-7950000D01*
X-559000Y-8509000D02*
X-559000Y-10998000D01*
X0Y-7950000D02*
X-559000Y-8509000D01*
X-7050000Y-1050000D02*
X-5850000Y150000D01*
%TO.N,FLASH_CLK*%
X-5300000Y3800000D02*
X-6100000Y4600000D01*
X-5300000Y-1050000D02*
X-5300000Y3800000D01*
X-6100000Y4600000D02*
X-6300000Y4800000D01*
X-6300000Y4800000D02*
X-8050000Y4800000D01*
%TO.N,RESET*%
X-5850000Y-2300000D02*
X-5850000Y-8081500D01*
X-5850000Y-8081500D02*
X-5450000Y-8481500D01*
%TO.N,SPEAKER*%
X4100000Y-7050000D02*
X4150000Y-7000000D01*
X-500000Y-7050000D02*
X4100000Y-7050000D01*
%TO.N,FLASH_DI*%
X100000Y-8750000D02*
X1161000Y-8750000D01*
X1981000Y-9570000D02*
X1981000Y-10998000D01*
X1161000Y-8750000D02*
X1981000Y-9570000D01*
%TD*%
%TA.AperFunction,Conductor*%
%TO.N,GND*%
G36*
X-11620407Y-2645994D02*
G01*
X-11618190Y-2649176D01*
X-11594552Y-2684552D01*
X-11528231Y-2728867D01*
X-11483769Y-2737711D01*
X-11469759Y-2740498D01*
X-11469754Y-2740498D01*
X-11469748Y-2740500D01*
X-11399500Y-2740500D01*
X-11341309Y-2759407D01*
X-11305345Y-2808907D01*
X-11300500Y-2839500D01*
X-11300500Y-6954030D01*
X-11301122Y-6965113D01*
X-11305270Y-7001927D01*
X-11305270Y-7001932D01*
X-11294556Y-7058558D01*
X-11293936Y-7062206D01*
X-11285348Y-7119181D01*
X-11283160Y-7126275D01*
X-11283583Y-7126405D01*
X-11282891Y-7128507D01*
X-11282474Y-7128362D01*
X-11280025Y-7135362D01*
X-11253094Y-7186318D01*
X-11251426Y-7189622D01*
X-11226426Y-7241535D01*
X-11222247Y-7247664D01*
X-11222611Y-7247911D01*
X-11221323Y-7249725D01*
X-11220970Y-7249465D01*
X-11216566Y-7255432D01*
X-11175801Y-7296198D01*
X-11173232Y-7298865D01*
X-11134056Y-7341088D01*
X-11128257Y-7345712D01*
X-11128533Y-7346057D01*
X-11117400Y-7354598D01*
X-9585006Y-8886992D01*
X-8076892Y-10395105D01*
X-8049115Y-10449622D01*
X-8058686Y-10510054D01*
X-8068906Y-10525057D01*
X-8068781Y-10525143D01*
X-8072181Y-10530069D01*
X-8072183Y-10530071D01*
X-8083740Y-10546814D01*
X-8097525Y-10566785D01*
X-8146142Y-10603934D01*
X-8207310Y-10605412D01*
X-8257664Y-10570654D01*
X-8260475Y-10566785D01*
X-8274260Y-10546814D01*
X-8285817Y-10530071D01*
X-8286314Y-10529631D01*
X-8372584Y-10453202D01*
X-8413148Y-10417266D01*
X-8563775Y-10338210D01*
X-8563776Y-10338209D01*
X-8563777Y-10338209D01*
X-8728942Y-10297500D01*
X-8728944Y-10297500D01*
X-8899056Y-10297500D01*
X-8899059Y-10297500D01*
X-9064224Y-10338209D01*
X-9183457Y-10400788D01*
X-9243769Y-10411089D01*
X-9298618Y-10383972D01*
X-9320030Y-10353115D01*
X-9332213Y-10325523D01*
X-9411523Y-10246213D01*
X-9514128Y-10200909D01*
X-9539203Y-10198000D01*
X-9883999Y-10198000D01*
X-9884000Y-10198001D01*
X-9884000Y-10738192D01*
X-9971129Y-10687888D01*
X-10055564Y-10673000D01*
X-10112436Y-10673000D01*
X-10196871Y-10687888D01*
X-10284000Y-10738192D01*
X-10284000Y-10198001D01*
X-10284001Y-10198000D01*
X-10628790Y-10198000D01*
X-10628793Y-10198001D01*
X-10653875Y-10200909D01*
X-10756478Y-10246213D01*
X-10835787Y-10325522D01*
X-10881091Y-10428127D01*
X-10884000Y-10453202D01*
X-10884000Y-10797999D01*
X-10883999Y-10798000D01*
X-10340438Y-10798000D01*
X-10369801Y-10832993D01*
X-10409000Y-10940694D01*
X-10409000Y-11055306D01*
X-10369801Y-11163007D01*
X-10340438Y-11198000D01*
X-10883998Y-11198000D01*
X-10883999Y-11198001D01*
X-10883999Y-11542791D01*
X-10881091Y-11567874D01*
X-10840187Y-11660512D01*
X-10833979Y-11721382D01*
X-10864735Y-11774275D01*
X-10920707Y-11798989D01*
X-10930752Y-11799500D01*
X-11700500Y-11799500D01*
X-11758691Y-11780593D01*
X-11794655Y-11731093D01*
X-11799500Y-11700500D01*
X-11799500Y-2704185D01*
X-11780593Y-2645994D01*
X-11731093Y-2610030D01*
X-11669907Y-2610030D01*
X-11620407Y-2645994D01*
G37*
%TD.AperFunction*%
%TA.AperFunction,Conductor*%
G36*
X-4191309Y10122593D02*
G01*
X-4155345Y10073093D01*
X-4150500Y10042500D01*
X-4150500Y5056900D01*
X-4169407Y4998709D01*
X-4176847Y4989998D01*
X-4178050Y4988342D01*
X-4235645Y4875308D01*
X-4235646Y4875304D01*
X-4255492Y4750001D01*
X-4255492Y4750000D01*
X-4235646Y4624697D01*
X-4235645Y4624693D01*
X-4180056Y4515594D01*
X-4178050Y4511658D01*
X-4088342Y4421950D01*
X-3975304Y4364354D01*
X-3850000Y4344508D01*
X-3724696Y4364354D01*
X-3611658Y4421950D01*
X-3521950Y4511658D01*
X-3464354Y4624696D01*
X-3444508Y4750000D01*
X-3464354Y4875304D01*
X-3521950Y4988342D01*
X-3521954Y4988346D01*
X-3526531Y4994647D01*
X-3525017Y4995748D01*
X-3548283Y5041425D01*
X-3549500Y5056900D01*
X-3549500Y10042500D01*
X-3530593Y10100691D01*
X-3481093Y10136655D01*
X-3450500Y10141500D01*
X5680388Y10141500D01*
X5738579Y10122593D01*
X5750392Y10112504D01*
X10395504Y5467393D01*
X10423281Y5412876D01*
X10424500Y5397389D01*
X10424500Y2839500D01*
X10405593Y2781309D01*
X10356093Y2745345D01*
X10325500Y2740500D01*
X10280252Y2740500D01*
X10280251Y2740500D01*
X10280241Y2740499D01*
X10221772Y2728868D01*
X10221766Y2728866D01*
X10155451Y2684555D01*
X10155445Y2684549D01*
X10111134Y2618234D01*
X10111132Y2618228D01*
X10099501Y2559759D01*
X10099500Y2559747D01*
X10099500Y-2559746D01*
X10099501Y-2559758D01*
X10111132Y-2618227D01*
X10111134Y-2618233D01*
X10155445Y-2684548D01*
X10155448Y-2684552D01*
X10221769Y-2728867D01*
X10266231Y-2737711D01*
X10280241Y-2740498D01*
X10280246Y-2740498D01*
X10280252Y-2740500D01*
X10280253Y-2740500D01*
X11469747Y-2740500D01*
X11469748Y-2740500D01*
X11528231Y-2728867D01*
X11594552Y-2684552D01*
X11618185Y-2649182D01*
X11666235Y-2611304D01*
X11727373Y-2608902D01*
X11778247Y-2642895D01*
X11799424Y-2700299D01*
X11799500Y-2704185D01*
X11799500Y-11700500D01*
X11780593Y-11758691D01*
X11731093Y-11794655D01*
X11700500Y-11799500D01*
X3632877Y-11799500D01*
X3574686Y-11780593D01*
X3538722Y-11731093D01*
X3538722Y-11669907D01*
X3574686Y-11620407D01*
X3586869Y-11612840D01*
X3651852Y-11578734D01*
X3779183Y-11465929D01*
X3875818Y-11325930D01*
X3936140Y-11166872D01*
X3956645Y-10998000D01*
X3936140Y-10829128D01*
X3875818Y-10670070D01*
X3779183Y-10530071D01*
X3778686Y-10529631D01*
X3692416Y-10453202D01*
X3651852Y-10417266D01*
X3501225Y-10338210D01*
X3501224Y-10338209D01*
X3501223Y-10338209D01*
X3336058Y-10297500D01*
X3336056Y-10297500D01*
X3165944Y-10297500D01*
X3165941Y-10297500D01*
X3000776Y-10338209D01*
X2850146Y-10417267D01*
X2722818Y-10530069D01*
X2722816Y-10530072D01*
X2697475Y-10566785D01*
X2648858Y-10603934D01*
X2587690Y-10605412D01*
X2537336Y-10570654D01*
X2534525Y-10566785D01*
X2520740Y-10546814D01*
X2509183Y-10530071D01*
X2508686Y-10529631D01*
X2381852Y-10417266D01*
X2381848Y-10417263D01*
X2334491Y-10392407D01*
X2291753Y-10348622D01*
X2281500Y-10304748D01*
X2281500Y-9635168D01*
X2283731Y-9621495D01*
X2282505Y-9621324D01*
X2283773Y-9612232D01*
X2281606Y-9565357D01*
X2281500Y-9560785D01*
X2281500Y-9542160D01*
X2281500Y-9542156D01*
X2281478Y-9542042D01*
X2279898Y-9528430D01*
X2278585Y-9500008D01*
X2274615Y-9491017D01*
X2267864Y-9469215D01*
X2266061Y-9459568D01*
X2266061Y-9459567D01*
X2251085Y-9435379D01*
X2244698Y-9423262D01*
X2233206Y-9397235D01*
X2233205Y-9397233D01*
X2226256Y-9390284D01*
X2212090Y-9372399D01*
X2206919Y-9364048D01*
X2184221Y-9346907D01*
X2173879Y-9337908D01*
X1419565Y-8583594D01*
X1411479Y-8572344D01*
X1410487Y-8573094D01*
X1404958Y-8565772D01*
X1370272Y-8534151D01*
X1366968Y-8530996D01*
X1353800Y-8517828D01*
X1353796Y-8517825D01*
X1353693Y-8517755D01*
X1342962Y-8509255D01*
X1321933Y-8490084D01*
X1312762Y-8486531D01*
X1292586Y-8475895D01*
X1284484Y-8470345D01*
X1284479Y-8470343D01*
X1256797Y-8463832D01*
X1243703Y-8459777D01*
X1217177Y-8449500D01*
X1217173Y-8449500D01*
X1207348Y-8449500D01*
X1184678Y-8446869D01*
X1180427Y-8445869D01*
X1171581Y-8440504D01*
X1154115Y-8447551D01*
X1146946Y-8448551D01*
X1133269Y-8449500D01*
X406899Y-8449500D01*
X348708Y-8430593D01*
X336895Y-8420504D01*
X335895Y-8419504D01*
X308118Y-8364987D01*
X317689Y-8304555D01*
X360954Y-8261290D01*
X405899Y-8250500D01*
X1140438Y-8250500D01*
X1164621Y-8258357D01*
X1164793Y-8258210D01*
X1203097Y-8250500D01*
X1893101Y-8250500D01*
X1951292Y-8269407D01*
X1960007Y-8276850D01*
X1961654Y-8278046D01*
X1961658Y-8278050D01*
X2074696Y-8335646D01*
X2200000Y-8355492D01*
X2325304Y-8335646D01*
X2438342Y-8278050D01*
X2528050Y-8188342D01*
X2585646Y-8075304D01*
X2605492Y-7950000D01*
X2585646Y-7824696D01*
X2528050Y-7711658D01*
X2438342Y-7621950D01*
X2434406Y-7619944D01*
X2325307Y-7564355D01*
X2325304Y-7564354D01*
X2217507Y-7547280D01*
X2201806Y-7539280D01*
X2182492Y-7547281D01*
X2074696Y-7564354D01*
X2074692Y-7564355D01*
X1961658Y-7621950D01*
X1955353Y-7626531D01*
X1954251Y-7625014D01*
X1908588Y-7648281D01*
X1893101Y-7649500D01*
X65164Y-7649500D01*
X51488Y-7647267D01*
X51317Y-7648494D01*
X42233Y-7647226D01*
X-4642Y-7649394D01*
X-9214Y-7649500D01*
X-27848Y-7649500D01*
X-27971Y-7649523D01*
X-41581Y-7651101D01*
X-69991Y-7652414D01*
X-78995Y-7656389D01*
X-100774Y-7663132D01*
X-110432Y-7664937D01*
X-110434Y-7664938D01*
X-134614Y-7679909D01*
X-146734Y-7686298D01*
X-172765Y-7697793D01*
X-172766Y-7697793D01*
X-179720Y-7704747D01*
X-197597Y-7718907D01*
X-205954Y-7724081D01*
X-223091Y-7746774D01*
X-232088Y-7757114D01*
X-725410Y-8250437D01*
X-736639Y-8258550D01*
X-735910Y-8259515D01*
X-743229Y-8265041D01*
X-774859Y-8299737D01*
X-778011Y-8303038D01*
X-791170Y-8316198D01*
X-791182Y-8316212D01*
X-791251Y-8316314D01*
X-799745Y-8327035D01*
X-818917Y-8348066D01*
X-818917Y-8348067D01*
X-822471Y-8357240D01*
X-833104Y-8377412D01*
X-838654Y-8385515D01*
X-838659Y-8385524D01*
X-845170Y-8413206D01*
X-849223Y-8426296D01*
X-859499Y-8452823D01*
X-859500Y-8452829D01*
X-859500Y-8462651D01*
X-862130Y-8485318D01*
X-864379Y-8494879D01*
X-860449Y-8523053D01*
X-859500Y-8536730D01*
X-859500Y-10304748D01*
X-878407Y-10362939D01*
X-912491Y-10392407D01*
X-959849Y-10417263D01*
X-959853Y-10417266D01*
X-1059106Y-10505196D01*
X-1115201Y-10529631D01*
X-1174945Y-10516428D01*
X-1194831Y-10499168D01*
X-1195646Y-10499984D01*
X-1327056Y-10368574D01*
X-1479694Y-10272665D01*
X-1629000Y-10220421D01*
X-1629000Y-10738192D01*
X-1716129Y-10687888D01*
X-1800564Y-10673000D01*
X-1857436Y-10673000D01*
X-1941871Y-10687888D01*
X-2029000Y-10738192D01*
X-2029000Y-10220421D01*
X-2178307Y-10272666D01*
X-2330653Y-10368391D01*
X-2389984Y-10383341D01*
X-2446771Y-10360562D01*
X-2453328Y-10354569D01*
X-2454446Y-10353451D01*
X-2454448Y-10353448D01*
X-2454946Y-10353115D01*
X-2520767Y-10309134D01*
X-2520769Y-10309133D01*
X-2520772Y-10309132D01*
X-2520773Y-10309132D01*
X-2579242Y-10297501D01*
X-2579252Y-10297500D01*
X-3618748Y-10297500D01*
X-3618749Y-10297500D01*
X-3618759Y-10297501D01*
X-3677228Y-10309132D01*
X-3677234Y-10309134D01*
X-3743549Y-10353445D01*
X-3743555Y-10353451D01*
X-3787866Y-10419766D01*
X-3787868Y-10419772D01*
X-3797425Y-10467816D01*
X-3827322Y-10521199D01*
X-3882888Y-10546814D01*
X-3894522Y-10547500D01*
X-6958598Y-10547500D01*
X-7016789Y-10528593D01*
X-7024248Y-10522602D01*
X-7025832Y-10521199D01*
X-7035042Y-10513040D01*
X-7060150Y-10490795D01*
X-7091168Y-10438055D01*
X-7093500Y-10416693D01*
X-7093500Y-10321756D01*
X-7092878Y-10310673D01*
X-7092705Y-10309134D01*
X-7088730Y-10273859D01*
X-7095351Y-10238869D01*
X-7099447Y-10217220D01*
X-7100067Y-10213569D01*
X-7108652Y-10156609D01*
X-7108652Y-10156607D01*
X-7108654Y-10156603D01*
X-7110840Y-10149516D01*
X-7110418Y-10149385D01*
X-7111110Y-10147282D01*
X-7111526Y-10147428D01*
X-7113978Y-10140420D01*
X-7115808Y-10136958D01*
X-7140929Y-10089427D01*
X-7142556Y-10086206D01*
X-7167575Y-10034252D01*
X-7167577Y-10034250D01*
X-7171753Y-10028124D01*
X-7171390Y-10027876D01*
X-7172676Y-10026062D01*
X-7173030Y-10026324D01*
X-7177433Y-10020359D01*
X-7177434Y-10020356D01*
X-7177437Y-10020353D01*
X-7218201Y-9979588D01*
X-7220770Y-9976921D01*
X-7259941Y-9934704D01*
X-7259943Y-9934703D01*
X-7259945Y-9934700D01*
X-7259949Y-9934697D01*
X-7265741Y-9930079D01*
X-7265467Y-9929734D01*
X-7276600Y-9921190D01*
X-10370504Y-6827286D01*
X-10398281Y-6772769D01*
X-10399500Y-6757282D01*
X-10399500Y-2839500D01*
X-10380593Y-2781309D01*
X-10331093Y-2745345D01*
X-10300500Y-2740500D01*
X-10280253Y-2740500D01*
X-10280252Y-2740500D01*
X-10221769Y-2728867D01*
X-10155448Y-2684552D01*
X-10111133Y-2618231D01*
X-10099500Y-2559748D01*
X-10099500Y-2300000D01*
X-6255492Y-2300000D01*
X-6235646Y-2425303D01*
X-6235645Y-2425307D01*
X-6206319Y-2482861D01*
X-6178050Y-2538342D01*
X-6178048Y-2538344D01*
X-6173469Y-2544647D01*
X-6174986Y-2545748D01*
X-6151719Y-2591412D01*
X-6150500Y-2606899D01*
X-6150500Y-8016335D01*
X-6152720Y-8030013D01*
X-6151506Y-8030183D01*
X-6152774Y-8039266D01*
X-6150606Y-8086141D01*
X-6150500Y-8090713D01*
X-6150500Y-8109344D01*
X-6150478Y-8109466D01*
X-6148899Y-8123077D01*
X-6147586Y-8151487D01*
X-6147585Y-8151494D01*
X-6143616Y-8160482D01*
X-6136868Y-8182272D01*
X-6135061Y-8191933D01*
X-6126191Y-8206260D01*
X-6120088Y-8216117D01*
X-6113699Y-8228238D01*
X-6102206Y-8254265D01*
X-6095255Y-8261216D01*
X-6081093Y-8279096D01*
X-6075919Y-8287452D01*
X-6053219Y-8304594D01*
X-6042883Y-8313588D01*
X-5874572Y-8481899D01*
X-5846795Y-8536415D01*
X-5835646Y-8606805D01*
X-5780128Y-8715765D01*
X-5778050Y-8719842D01*
X-5688342Y-8809550D01*
X-5575304Y-8867146D01*
X-5450000Y-8886992D01*
X-5324696Y-8867146D01*
X-5211658Y-8809550D01*
X-5121950Y-8719842D01*
X-5064354Y-8606804D01*
X-5044508Y-8481500D01*
X-5064354Y-8356196D01*
X-5121950Y-8243158D01*
X-5211658Y-8153450D01*
X-5324696Y-8095854D01*
X-5324695Y-8095854D01*
X-5395084Y-8084705D01*
X-5449600Y-8056928D01*
X-5520504Y-7986024D01*
X-5548281Y-7931507D01*
X-5549500Y-7916020D01*
X-5549500Y-7050000D01*
X-905492Y-7050000D01*
X-885646Y-7175303D01*
X-885645Y-7175307D01*
X-844819Y-7255432D01*
X-828050Y-7288342D01*
X-738342Y-7378050D01*
X-625304Y-7435646D01*
X-500000Y-7455492D01*
X-374696Y-7435646D01*
X-261658Y-7378050D01*
X-261652Y-7378043D01*
X-255353Y-7373469D01*
X-254252Y-7374985D01*
X-208588Y-7351719D01*
X-193101Y-7350500D01*
X2167005Y-7350500D01*
X2195045Y-7359610D01*
X2232995Y-7350500D01*
X3931950Y-7350500D01*
X3976894Y-7361289D01*
X4024696Y-7385646D01*
X4150000Y-7405492D01*
X4275304Y-7385646D01*
X4388342Y-7328050D01*
X4478050Y-7238342D01*
X4535646Y-7125304D01*
X4555492Y-7000000D01*
X4535646Y-6874696D01*
X4478050Y-6761658D01*
X4388342Y-6671950D01*
X4373434Y-6664354D01*
X4275307Y-6614355D01*
X4275304Y-6614354D01*
X4150000Y-6594508D01*
X4024696Y-6614354D01*
X4024692Y-6614355D01*
X3911658Y-6671950D01*
X3911656Y-6671951D01*
X3863103Y-6720504D01*
X3808586Y-6748281D01*
X3793100Y-6749500D01*
X-193101Y-6749500D01*
X-251292Y-6730593D01*
X-260008Y-6723149D01*
X-261656Y-6721952D01*
X-261658Y-6721950D01*
X-317139Y-6693681D01*
X-374693Y-6664355D01*
X-374696Y-6664354D01*
X-500000Y-6644508D01*
X-625304Y-6664354D01*
X-625308Y-6664355D01*
X-738341Y-6721949D01*
X-828051Y-6811659D01*
X-885645Y-6924692D01*
X-885646Y-6924696D01*
X-905492Y-7049999D01*
X-905492Y-7050000D01*
X-5549500Y-7050000D01*
X-5549500Y-3886482D01*
X-3603640Y-3886482D01*
X-3410021Y-4063902D01*
X-3042858Y-4345637D01*
X-2652518Y-4594311D01*
X-2652514Y-4594313D01*
X-2242026Y-4808000D01*
X-2242020Y-4808002D01*
X-1814442Y-4985112D01*
X-1373050Y-5124284D01*
X-1373045Y-5124285D01*
X-921217Y-5224452D01*
X-462363Y-5284862D01*
X0Y-5305048D01*
X462362Y-5284862D01*
X921216Y-5224452D01*
X1373044Y-5124285D01*
X1373049Y-5124284D01*
X1814441Y-4985112D01*
X2242019Y-4808002D01*
X2242025Y-4808000D01*
X2652513Y-4594313D01*
X2652517Y-4594311D01*
X3042857Y-4345637D01*
X3410020Y-4063902D01*
X3603638Y-3886481D01*
X0Y-282843D01*
X-3603640Y-3886482D01*
X-5549500Y-3886482D01*
X-5549500Y-2606899D01*
X-5530593Y-2548708D01*
X-5523150Y-2539992D01*
X-5521957Y-2538348D01*
X-5521950Y-2538342D01*
X-5464354Y-2425304D01*
X-5444508Y-2300000D01*
X-5464354Y-2174696D01*
X-5521950Y-2061658D01*
X-5611658Y-1971950D01*
X-5615594Y-1969944D01*
X-5724693Y-1914355D01*
X-5724696Y-1914354D01*
X-5850000Y-1894508D01*
X-5975304Y-1914354D01*
X-5975308Y-1914355D01*
X-6088341Y-1971949D01*
X-6178051Y-2061659D01*
X-6235645Y-2174692D01*
X-6235646Y-2174696D01*
X-6255492Y-2299999D01*
X-6255492Y-2300000D01*
X-10099500Y-2300000D01*
X-10099500Y-549500D01*
X-10080593Y-491309D01*
X-10031093Y-455345D01*
X-10000500Y-450500D01*
X-7730864Y-450500D01*
X-7719781Y-451122D01*
X-7717405Y-451389D01*
X-7682965Y-455270D01*
X-7626316Y-444550D01*
X-7622733Y-443941D01*
X-7565713Y-435348D01*
X-7565704Y-435343D01*
X-7558619Y-433159D01*
X-7558488Y-433584D01*
X-7556387Y-432892D01*
X-7556533Y-432473D01*
X-7549537Y-430024D01*
X-7549528Y-430023D01*
X-7498556Y-403082D01*
X-7495260Y-401419D01*
X-7485323Y-396633D01*
X-7443358Y-376425D01*
X-7443354Y-376421D01*
X-7437222Y-372242D01*
X-7436972Y-372609D01*
X-7435168Y-371329D01*
X-7435432Y-370971D01*
X-7429475Y-366572D01*
X-7429462Y-366566D01*
X-7388686Y-325788D01*
X-7386075Y-323272D01*
X-7343806Y-284055D01*
X-7343806Y-284054D01*
X-7343804Y-284053D01*
X-7339179Y-278253D01*
X-7338834Y-278528D01*
X-7330294Y-267395D01*
X-7207575Y-144678D01*
X-7147207Y-62882D01*
X-7102354Y65301D01*
X-7097276Y201010D01*
X-7132424Y332187D01*
X-7132425Y332190D01*
X-7171698Y394689D01*
X-7204677Y447175D01*
X-7204679Y447177D01*
X-7204680Y447179D01*
X-7307613Y535759D01*
X-7356465Y557073D01*
X-7432084Y590065D01*
X-7567035Y605270D01*
X-7567036Y605270D01*
X-7567039Y605270D01*
X-7700467Y580025D01*
X-7700472Y580023D01*
X-7820538Y516567D01*
X-7857608Y479496D01*
X-7912125Y451719D01*
X-7927612Y450500D01*
X-10000500Y450500D01*
X-10058691Y469407D01*
X-10094655Y518907D01*
X-10099500Y549500D01*
X-10099500Y1272389D01*
X-10080593Y1330580D01*
X-10070504Y1342393D01*
X-9692393Y1720504D01*
X-9637876Y1748281D01*
X-9622389Y1749500D01*
X-8166243Y1749500D01*
X-8166238Y1749500D01*
X-8065713Y1764652D01*
X-7943358Y1823575D01*
X-7843806Y1915945D01*
X-7775904Y2033555D01*
X-7745685Y2165954D01*
X-7746642Y2178718D01*
X-7755834Y2301376D01*
X-7755834Y2301378D01*
X-7805448Y2427794D01*
X-7805450Y2427797D01*
X-7890118Y2533968D01*
X-7890122Y2533971D01*
X-8002326Y2610472D01*
X-8132096Y2650500D01*
X-8132098Y2650500D01*
X-9819136Y2650500D01*
X-9830219Y2651122D01*
X-9838086Y2652009D01*
X-9867035Y2655270D01*
X-9867036Y2655270D01*
X-9867037Y2655270D01*
X-9923688Y2644553D01*
X-9927333Y2643934D01*
X-9984285Y2635349D01*
X-9991371Y2633163D01*
X-9991500Y2633581D01*
X-9993615Y2632885D01*
X-9993471Y2632474D01*
X-10000471Y2630025D01*
X-10009121Y2625453D01*
X-10069403Y2614981D01*
X-10124329Y2641941D01*
X-10137693Y2657980D01*
X-10155447Y2684550D01*
X-10155448Y2684552D01*
X-10155452Y2684555D01*
X-10221767Y2728866D01*
X-10221769Y2728867D01*
X-10221772Y2728868D01*
X-10221773Y2728868D01*
X-10280242Y2740499D01*
X-10280252Y2740500D01*
X-10280253Y2740500D01*
X-10325500Y2740500D01*
X-10383691Y2759407D01*
X-10419655Y2808907D01*
X-10424500Y2839500D01*
X-10424500Y4800000D01*
X-8455492Y4800000D01*
X-8435646Y4674697D01*
X-8435645Y4674693D01*
X-8410170Y4624697D01*
X-8378050Y4561658D01*
X-8288342Y4471950D01*
X-8175304Y4414354D01*
X-8050000Y4394508D01*
X-7924696Y4414354D01*
X-7811658Y4471950D01*
X-7811652Y4471957D01*
X-7805353Y4476531D01*
X-7804252Y4475015D01*
X-7758588Y4498281D01*
X-7743101Y4499500D01*
X-6465479Y4499500D01*
X-6407288Y4480593D01*
X-6395475Y4470504D01*
X-5629496Y3704525D01*
X-5601719Y3650008D01*
X-5600500Y3634521D01*
X-5600500Y631554D01*
X-5619407Y573363D01*
X-5668907Y537399D01*
X-5716531Y537396D01*
X-5717001Y534427D01*
X-5724696Y535646D01*
X-5850000Y555492D01*
X-5975304Y535646D01*
X-5975308Y535645D01*
X-6088341Y478051D01*
X-6178051Y388341D01*
X-6235646Y275306D01*
X-6246795Y204917D01*
X-6274572Y150401D01*
X-7058495Y-633522D01*
X-7113012Y-661299D01*
X-7143985Y-661299D01*
X-7250000Y-644508D01*
X-7375304Y-664354D01*
X-7375308Y-664355D01*
X-7488341Y-721949D01*
X-7578051Y-811659D01*
X-7635645Y-924692D01*
X-7635646Y-924696D01*
X-7655492Y-1049999D01*
X-7655492Y-1050000D01*
X-7635646Y-1175303D01*
X-7635645Y-1175307D01*
X-7595942Y-1253227D01*
X-7578050Y-1288342D01*
X-7488342Y-1378050D01*
X-7375304Y-1435646D01*
X-7250000Y-1455492D01*
X-7124696Y-1435646D01*
X-7011658Y-1378050D01*
X-6997039Y-1363430D01*
X-6945226Y-1336118D01*
X-6939567Y-1335061D01*
X-6915382Y-1320086D01*
X-6903272Y-1313701D01*
X-6877235Y-1302206D01*
X-6870291Y-1295260D01*
X-6852399Y-1281089D01*
X-6844048Y-1275919D01*
X-6826911Y-1253223D01*
X-6817918Y-1242887D01*
X-5849599Y-274568D01*
X-5795087Y-246794D01*
X-5724696Y-235646D01*
X-5724696Y-235645D01*
X-5717000Y-234427D01*
X-5716529Y-237403D01*
X-5668933Y-237390D01*
X-5619423Y-273340D01*
X-5600500Y-331526D01*
X-5600500Y-743100D01*
X-5619407Y-801291D01*
X-5626847Y-810002D01*
X-5628050Y-811658D01*
X-5685645Y-924692D01*
X-5685646Y-924696D01*
X-5705492Y-1049999D01*
X-5705492Y-1050000D01*
X-5685646Y-1175303D01*
X-5685645Y-1175307D01*
X-5645942Y-1253227D01*
X-5628050Y-1288342D01*
X-5538342Y-1378050D01*
X-5425304Y-1435646D01*
X-5317134Y-1452778D01*
X-5300001Y-1455492D01*
X-5300001Y-1455491D01*
X-5300000Y-1455492D01*
X-5192137Y-1438408D01*
X-5131706Y-1447979D01*
X-5088442Y-1491244D01*
X-5082233Y-1506419D01*
X-4985113Y-1814441D01*
X-4808003Y-2242019D01*
X-4808001Y-2242025D01*
X-4594314Y-2652513D01*
X-4594312Y-2652517D01*
X-4345638Y-3042857D01*
X-4063903Y-3410020D01*
X-3886484Y-3603638D01*
X-282846Y0D01*
X282843Y0D01*
X3886481Y-3603638D01*
X4063902Y-3410020D01*
X4345637Y-3042857D01*
X4594311Y-2652517D01*
X4594313Y-2652513D01*
X4808000Y-2242025D01*
X4808002Y-2242019D01*
X4985112Y-1814441D01*
X5124284Y-1373049D01*
X5124285Y-1373044D01*
X5224452Y-921216D01*
X5284862Y-462362D01*
X5305048Y0D01*
X5284862Y462363D01*
X5224452Y921217D01*
X5124285Y1373045D01*
X5124284Y1373050D01*
X4985112Y1814442D01*
X4808002Y2242020D01*
X4808000Y2242026D01*
X4594313Y2652512D01*
X4594311Y2652517D01*
X4345635Y3042861D01*
X4345632Y3042864D01*
X4063902Y3410021D01*
X3886482Y3603640D01*
X282843Y0D01*
X-282846Y0D01*
X-282845Y1D01*
X-3886484Y3603640D01*
X-4063897Y3410029D01*
X-4063900Y3410025D01*
X-4345633Y3042864D01*
X-4345636Y3042861D01*
X-4594312Y2652517D01*
X-4594314Y2652512D01*
X-4808001Y2242026D01*
X-4808004Y2242019D01*
X-4809038Y2239521D01*
X-4848778Y2192997D01*
X-4908274Y2178718D01*
X-4964800Y2202136D01*
X-4996766Y2254307D01*
X-4999500Y2277412D01*
X-4999500Y3734831D01*
X-4997269Y3748504D01*
X-4998495Y3748675D01*
X-4997227Y3757767D01*
X-4999394Y3804642D01*
X-4999500Y3809214D01*
X-4999500Y3827840D01*
X-4999500Y3827844D01*
X-4999522Y3827958D01*
X-5001102Y3841570D01*
X-5002415Y3869991D01*
X-5006387Y3878986D01*
X-5008709Y3886484D01*
X-3603640Y3886484D01*
X-1Y282845D01*
X3603638Y3886484D01*
X3410020Y4063903D01*
X3042857Y4345638D01*
X2652517Y4594312D01*
X2652513Y4594314D01*
X2242025Y4808001D01*
X2242019Y4808003D01*
X1814441Y4985113D01*
X1373049Y5124285D01*
X1373044Y5124286D01*
X921216Y5224453D01*
X462362Y5284863D01*
X0Y5305049D01*
X-462363Y5284863D01*
X-921217Y5224453D01*
X-1373045Y5124286D01*
X-1373050Y5124285D01*
X-1814442Y4985113D01*
X-2242020Y4808003D01*
X-2242026Y4808001D01*
X-2652512Y4594314D01*
X-2652517Y4594312D01*
X-3042861Y4345636D01*
X-3042864Y4345633D01*
X-3410025Y4063900D01*
X-3410029Y4063897D01*
X-3603640Y3886484D01*
X-5008709Y3886484D01*
X-5013135Y3900780D01*
X-5014939Y3910433D01*
X-5029913Y3934617D01*
X-5036308Y3946750D01*
X-5047793Y3972764D01*
X-5054743Y3979714D01*
X-5068912Y3997604D01*
X-5074080Y4005951D01*
X-5074081Y4005952D01*
X-5096779Y4023093D01*
X-5107121Y4032092D01*
X-6041435Y4966406D01*
X-6049521Y4977656D01*
X-6050513Y4976906D01*
X-6056042Y4984228D01*
X-6090728Y5015849D01*
X-6094032Y5019004D01*
X-6107200Y5032172D01*
X-6107204Y5032175D01*
X-6107307Y5032245D01*
X-6118038Y5040745D01*
X-6139067Y5059916D01*
X-6148238Y5063469D01*
X-6168414Y5074105D01*
X-6176516Y5079655D01*
X-6176521Y5079657D01*
X-6204203Y5086168D01*
X-6217297Y5090223D01*
X-6243823Y5100500D01*
X-6243827Y5100500D01*
X-6253652Y5100500D01*
X-6276317Y5103130D01*
X-6285881Y5105379D01*
X-6285882Y5105379D01*
X-6314054Y5101449D01*
X-6327731Y5100500D01*
X-7743101Y5100500D01*
X-7801292Y5119407D01*
X-7810008Y5126851D01*
X-7811656Y5128048D01*
X-7811658Y5128050D01*
X-7867139Y5156319D01*
X-7924693Y5185645D01*
X-7924696Y5185646D01*
X-8050000Y5205492D01*
X-8175304Y5185646D01*
X-8175308Y5185645D01*
X-8288341Y5128051D01*
X-8378051Y5038341D01*
X-8435645Y4925308D01*
X-8435646Y4925304D01*
X-8455492Y4800001D01*
X-8455492Y4800000D01*
X-10424500Y4800000D01*
X-10424500Y8326889D01*
X-10405593Y8385080D01*
X-10395504Y8396893D01*
X-8679893Y10112504D01*
X-8625376Y10140281D01*
X-8609889Y10141500D01*
X-6801002Y10141500D01*
X-4485802Y10141500D01*
X-4249500Y10141500D01*
X-4191309Y10122593D01*
G37*
%TD.AperFunction*%
%TA.AperFunction,Conductor*%
G36*
X11758691Y11780593D02*
G01*
X11794655Y11731093D01*
X11799500Y11700500D01*
X11799500Y2704186D01*
X11780593Y2645995D01*
X11731093Y2610031D01*
X11669907Y2610031D01*
X11620407Y2645995D01*
X11618185Y2649183D01*
X11617305Y2650500D01*
X11594552Y2684552D01*
X11594548Y2684555D01*
X11528233Y2728866D01*
X11528231Y2728867D01*
X11528228Y2728868D01*
X11528227Y2728868D01*
X11469758Y2740499D01*
X11469748Y2740500D01*
X11469747Y2740500D01*
X11424500Y2740500D01*
X11366309Y2759407D01*
X11330345Y2808907D01*
X11325500Y2839500D01*
X11325500Y5594138D01*
X11326122Y5605221D01*
X11330270Y5642035D01*
X11319547Y5698705D01*
X11318943Y5702259D01*
X11310348Y5759287D01*
X11310347Y5759290D01*
X11308162Y5766374D01*
X11308583Y5766505D01*
X11307889Y5768614D01*
X11307474Y5768468D01*
X11305023Y5775473D01*
X11278093Y5826426D01*
X11276424Y5829731D01*
X11251425Y5881642D01*
X11251421Y5881647D01*
X11247246Y5887771D01*
X11247610Y5888020D01*
X11246324Y5889831D01*
X11245970Y5889569D01*
X11241567Y5895534D01*
X11241566Y5895537D01*
X11241563Y5895540D01*
X11200811Y5936293D01*
X11198242Y5938960D01*
X11159056Y5981194D01*
X11153258Y5985817D01*
X11153532Y5986161D01*
X11142397Y5994706D01*
X6248366Y10888737D01*
X6240978Y10897005D01*
X6217879Y10925970D01*
X6170258Y10958438D01*
X6167241Y10960579D01*
X6120881Y10994794D01*
X6114322Y10998260D01*
X6114526Y10998648D01*
X6112544Y10999648D01*
X6112355Y10999254D01*
X6105670Y11002474D01*
X6050596Y11019462D01*
X6047082Y11020618D01*
X5992702Y11039645D01*
X5992701Y11039646D01*
X5992699Y11039646D01*
X5992696Y11039647D01*
X5985414Y11041024D01*
X5985495Y11041456D01*
X5983302Y11041829D01*
X5983237Y11041395D01*
X5975903Y11042500D01*
X5975902Y11042500D01*
X5918284Y11042500D01*
X5914583Y11042569D01*
X5879198Y11043893D01*
X5856990Y11044724D01*
X5856989Y11044724D01*
X5849615Y11043893D01*
X5849565Y11044332D01*
X5835656Y11042500D01*
X5691893Y11042500D01*
X5633702Y11061407D01*
X5611801Y11083309D01*
X5611054Y11084337D01*
X5611051Y11084340D01*
X5611050Y11084342D01*
X5521342Y11174050D01*
X5517406Y11176056D01*
X5408307Y11231645D01*
X5408304Y11231646D01*
X5283000Y11251492D01*
X5157696Y11231646D01*
X5157692Y11231645D01*
X5044659Y11174051D01*
X4954945Y11084337D01*
X4954199Y11083309D01*
X4953171Y11082563D01*
X4949441Y11078832D01*
X4948850Y11079423D01*
X4904699Y11047345D01*
X4874107Y11042500D01*
X-8645482Y11042500D01*
X-8685070Y11050760D01*
X-8696086Y11055566D01*
X-8702041Y11056237D01*
X-8723648Y11061168D01*
X-8729300Y11063146D01*
X-8776609Y11064917D01*
X-8783986Y11065470D01*
X-8831033Y11070770D01*
X-8831036Y11070770D01*
X-8832944Y11070410D01*
X-8836925Y11069656D01*
X-8859022Y11068000D01*
X-8865009Y11068224D01*
X-8865015Y11068224D01*
X-8910741Y11055972D01*
X-8917955Y11054325D01*
X-8964470Y11045524D01*
X-8964481Y11045520D01*
X-8969775Y11042722D01*
X-8990390Y11034631D01*
X-8996181Y11033079D01*
X-8996188Y11033076D01*
X-9036284Y11007883D01*
X-9042690Y11004185D01*
X-9084537Y10982066D01*
X-9084540Y10982064D01*
X-9088776Y10977828D01*
X-9106099Y10964013D01*
X-9111174Y10960824D01*
X-9111178Y10960821D01*
X-9142055Y10924942D01*
X-9147089Y10919516D01*
X-11171735Y8894870D01*
X-11180012Y8887474D01*
X-11208970Y8864381D01*
X-11208971Y8864380D01*
X-11241444Y8816752D01*
X-11243584Y8813736D01*
X-11277793Y8767384D01*
X-11281258Y8760826D01*
X-11281647Y8761032D01*
X-11282650Y8759045D01*
X-11282254Y8758854D01*
X-11285474Y8752168D01*
X-11302464Y8697090D01*
X-11303620Y8693577D01*
X-11322645Y8639205D01*
X-11324024Y8631913D01*
X-11324456Y8631995D01*
X-11324829Y8629800D01*
X-11324395Y8629734D01*
X-11325500Y8622401D01*
X-11325500Y8564785D01*
X-11325569Y8561084D01*
X-11327724Y8503490D01*
X-11326893Y8496115D01*
X-11327332Y8496066D01*
X-11325500Y8482156D01*
X-11325500Y2839500D01*
X-11344407Y2781309D01*
X-11393907Y2745345D01*
X-11424500Y2740500D01*
X-11469748Y2740500D01*
X-11469749Y2740500D01*
X-11469759Y2740499D01*
X-11528228Y2728868D01*
X-11528234Y2728866D01*
X-11594549Y2684555D01*
X-11594553Y2684551D01*
X-11594554Y2684549D01*
X-11616889Y2651122D01*
X-11618185Y2649183D01*
X-11666236Y2611305D01*
X-11727374Y2608903D01*
X-11778247Y2642897D01*
X-11799424Y2700301D01*
X-11799500Y2704186D01*
X-11799500Y11700500D01*
X-11780593Y11758691D01*
X-11731093Y11794655D01*
X-11700500Y11799500D01*
X11700500Y11799500D01*
X11758691Y11780593D01*
G37*
%TD.AperFunction*%
%TD*%
M02*
