M48
; DRILL file {KiCad 7.0.10} date Thu Mar 12 13:46:59 2026
; FORMAT={-:-/ absolute / inch / decimal}
; #@! TF.CreationDate,2026-03-12T13:46:59+08:00
; #@! TF.GenerationSoftware,Kicad,Pcbnew,7.0.10
; #@! TF.FileFunction,Plated,1,2,PTH
FMAT,2
INCH
; #@! TA.AperFunction,Plated,PTH,ViaDrill
T1C0.0079
; #@! TA.AperFunction,Plated,PTH,ComponentDrill
T2C0.0256
%
G90
G05
T1
X-0.4409Y0.4488
X-0.4409Y0.4075
X-0.4272Y-0.218
X-0.347Y0.4179
X-0.3465Y-0.1791
X-0.3228Y0.0866
X-0.3169Y0.189
X-0.2972Y0.0059
X-0.2854Y-0.0413
X-0.2651Y0.417
X-0.2303Y0.0059
X-0.2303Y-0.0906
X-0.2146Y-0.3339
X-0.2087Y-0.0413
X-0.1739Y0.417
X-0.1575Y0.0413
X-0.1516Y0.187
X-0.0906Y0.0079
X-0.0866Y0.2697
X-0.0374Y0.2362
X-0.0197Y-0.2776
X-0.0098Y-0.1693
X0.0039Y-0.3445
X0.0807Y0.3484
X0.0866Y-0.313
X0.098Y0.102
X0.1634Y-0.2756
X0.208Y0.427
X0.248Y0.277
X0.293Y-0.233
X0.338Y-0.278
X0.353Y0.012
X0.428Y0.452
X0.4331Y-0.4547
X0.438Y-0.303
X0.438Y-0.398
X0.453Y0.452
X0.453Y0.422
X0.4547Y-0.4547
X0.4567Y-0.433
T2
X-0.397Y-0.433
X-0.347Y-0.433
X-0.297Y-0.433
X-0.122Y-0.433
X-0.072Y-0.433
X-0.022Y-0.433
X0.028Y-0.433
X0.078Y-0.433
X0.128Y-0.433
M30
