%TF.GenerationSoftware,KiCad,Pcbnew,7.0.10*%
%TF.CreationDate,2026-02-12T12:37:37+08:00*%
%TF.ProjectId,NeepNeep-DAC-V2,4e656570-4e65-4657-902d-4441432d5632,V2*%
%TF.SameCoordinates,Original*%
%TF.FileFunction,Legend,Bot*%
%TF.FilePolarity,Positive*%
%FSLAX46Y46*%
G04 Gerber Fmt 4.6, Leading zero omitted, Abs format (unit mm)*
G04 Created by KiCad (PCBNEW 7.0.10) date 2026-02-12 12:37:37*
%MOMM*%
%LPD*%
G01*
G04 APERTURE LIST*
%ADD10C,0.100000*%
%ADD11C,0.200000*%
%ADD12R,1.000000X1.000000*%
%ADD13O,1.000000X1.000000*%
%ADD14R,1.150000X5.080000*%
%ADD15C,10.000000*%
G04 APERTURE END LIST*
D10*
X10487734Y10871105D02*
X10487734Y11671105D01*
X10487734Y11671105D02*
X10030591Y10871105D01*
X10030591Y10871105D02*
X10030591Y11671105D01*
X9344877Y10909200D02*
X9421068Y10871105D01*
X9421068Y10871105D02*
X9573449Y10871105D01*
X9573449Y10871105D02*
X9649639Y10909200D01*
X9649639Y10909200D02*
X9687735Y10985391D01*
X9687735Y10985391D02*
X9687735Y11290153D01*
X9687735Y11290153D02*
X9649639Y11366343D01*
X9649639Y11366343D02*
X9573449Y11404439D01*
X9573449Y11404439D02*
X9421068Y11404439D01*
X9421068Y11404439D02*
X9344877Y11366343D01*
X9344877Y11366343D02*
X9306782Y11290153D01*
X9306782Y11290153D02*
X9306782Y11213962D01*
X9306782Y11213962D02*
X9687735Y11137772D01*
X8659163Y10909200D02*
X8735354Y10871105D01*
X8735354Y10871105D02*
X8887735Y10871105D01*
X8887735Y10871105D02*
X8963925Y10909200D01*
X8963925Y10909200D02*
X9002021Y10985391D01*
X9002021Y10985391D02*
X9002021Y11290153D01*
X9002021Y11290153D02*
X8963925Y11366343D01*
X8963925Y11366343D02*
X8887735Y11404439D01*
X8887735Y11404439D02*
X8735354Y11404439D01*
X8735354Y11404439D02*
X8659163Y11366343D01*
X8659163Y11366343D02*
X8621068Y11290153D01*
X8621068Y11290153D02*
X8621068Y11213962D01*
X8621068Y11213962D02*
X9002021Y11137772D01*
X8278211Y11404439D02*
X8278211Y10604439D01*
X8278211Y11366343D02*
X8202021Y11404439D01*
X8202021Y11404439D02*
X8049640Y11404439D01*
X8049640Y11404439D02*
X7973449Y11366343D01*
X7973449Y11366343D02*
X7935354Y11328248D01*
X7935354Y11328248D02*
X7897259Y11252058D01*
X7897259Y11252058D02*
X7897259Y11023486D01*
X7897259Y11023486D02*
X7935354Y10947296D01*
X7935354Y10947296D02*
X7973449Y10909200D01*
X7973449Y10909200D02*
X8049640Y10871105D01*
X8049640Y10871105D02*
X8202021Y10871105D01*
X8202021Y10871105D02*
X8278211Y10909200D01*
X7554401Y10871105D02*
X7554401Y11671105D01*
X7554401Y11671105D02*
X7097258Y10871105D01*
X7097258Y10871105D02*
X7097258Y11671105D01*
X6411544Y10909200D02*
X6487735Y10871105D01*
X6487735Y10871105D02*
X6640116Y10871105D01*
X6640116Y10871105D02*
X6716306Y10909200D01*
X6716306Y10909200D02*
X6754402Y10985391D01*
X6754402Y10985391D02*
X6754402Y11290153D01*
X6754402Y11290153D02*
X6716306Y11366343D01*
X6716306Y11366343D02*
X6640116Y11404439D01*
X6640116Y11404439D02*
X6487735Y11404439D01*
X6487735Y11404439D02*
X6411544Y11366343D01*
X6411544Y11366343D02*
X6373449Y11290153D01*
X6373449Y11290153D02*
X6373449Y11213962D01*
X6373449Y11213962D02*
X6754402Y11137772D01*
X5725830Y10909200D02*
X5802021Y10871105D01*
X5802021Y10871105D02*
X5954402Y10871105D01*
X5954402Y10871105D02*
X6030592Y10909200D01*
X6030592Y10909200D02*
X6068688Y10985391D01*
X6068688Y10985391D02*
X6068688Y11290153D01*
X6068688Y11290153D02*
X6030592Y11366343D01*
X6030592Y11366343D02*
X5954402Y11404439D01*
X5954402Y11404439D02*
X5802021Y11404439D01*
X5802021Y11404439D02*
X5725830Y11366343D01*
X5725830Y11366343D02*
X5687735Y11290153D01*
X5687735Y11290153D02*
X5687735Y11213962D01*
X5687735Y11213962D02*
X6068688Y11137772D01*
X5344878Y11404439D02*
X5344878Y10604439D01*
X5344878Y11366343D02*
X5268688Y11404439D01*
X5268688Y11404439D02*
X5116307Y11404439D01*
X5116307Y11404439D02*
X5040116Y11366343D01*
X5040116Y11366343D02*
X5002021Y11328248D01*
X5002021Y11328248D02*
X4963926Y11252058D01*
X4963926Y11252058D02*
X4963926Y11023486D01*
X4963926Y11023486D02*
X5002021Y10947296D01*
X5002021Y10947296D02*
X5040116Y10909200D01*
X5040116Y10909200D02*
X5116307Y10871105D01*
X5116307Y10871105D02*
X5268688Y10871105D01*
X5268688Y10871105D02*
X5344878Y10909200D01*
X4011544Y10871105D02*
X4011544Y11671105D01*
X4011544Y11671105D02*
X3821068Y11671105D01*
X3821068Y11671105D02*
X3706782Y11633010D01*
X3706782Y11633010D02*
X3630592Y11556820D01*
X3630592Y11556820D02*
X3592497Y11480629D01*
X3592497Y11480629D02*
X3554401Y11328248D01*
X3554401Y11328248D02*
X3554401Y11213962D01*
X3554401Y11213962D02*
X3592497Y11061581D01*
X3592497Y11061581D02*
X3630592Y10985391D01*
X3630592Y10985391D02*
X3706782Y10909200D01*
X3706782Y10909200D02*
X3821068Y10871105D01*
X3821068Y10871105D02*
X4011544Y10871105D01*
X3249640Y11099677D02*
X2868687Y11099677D01*
X3325830Y10871105D02*
X3059163Y11671105D01*
X3059163Y11671105D02*
X2792497Y10871105D01*
X2068687Y10947296D02*
X2106783Y10909200D01*
X2106783Y10909200D02*
X2221068Y10871105D01*
X2221068Y10871105D02*
X2297259Y10871105D01*
X2297259Y10871105D02*
X2411545Y10909200D01*
X2411545Y10909200D02*
X2487735Y10985391D01*
X2487735Y10985391D02*
X2525830Y11061581D01*
X2525830Y11061581D02*
X2563926Y11213962D01*
X2563926Y11213962D02*
X2563926Y11328248D01*
X2563926Y11328248D02*
X2525830Y11480629D01*
X2525830Y11480629D02*
X2487735Y11556820D01*
X2487735Y11556820D02*
X2411545Y11633010D01*
X2411545Y11633010D02*
X2297259Y11671105D01*
X2297259Y11671105D02*
X2221068Y11671105D01*
X2221068Y11671105D02*
X2106783Y11633010D01*
X2106783Y11633010D02*
X2068687Y11594915D01*
X10030591Y9583105D02*
X10297258Y9964058D01*
X10487734Y9583105D02*
X10487734Y10383105D01*
X10487734Y10383105D02*
X10182972Y10383105D01*
X10182972Y10383105D02*
X10106782Y10345010D01*
X10106782Y10345010D02*
X10068687Y10306915D01*
X10068687Y10306915D02*
X10030591Y10230724D01*
X10030591Y10230724D02*
X10030591Y10116439D01*
X10030591Y10116439D02*
X10068687Y10040248D01*
X10068687Y10040248D02*
X10106782Y10002153D01*
X10106782Y10002153D02*
X10182972Y9964058D01*
X10182972Y9964058D02*
X10487734Y9964058D01*
X9687734Y10002153D02*
X9421068Y10002153D01*
X9306782Y9583105D02*
X9687734Y9583105D01*
X9687734Y9583105D02*
X9687734Y10383105D01*
X9687734Y10383105D02*
X9306782Y10383105D01*
X9078210Y10383105D02*
X8811543Y9583105D01*
X8811543Y9583105D02*
X8544877Y10383105D01*
X8278210Y9659296D02*
X8240115Y9621200D01*
X8240115Y9621200D02*
X8278210Y9583105D01*
X8278210Y9583105D02*
X8316306Y9621200D01*
X8316306Y9621200D02*
X8278210Y9659296D01*
X8278210Y9659296D02*
X8278210Y9583105D01*
X8278210Y10078343D02*
X8240115Y10040248D01*
X8240115Y10040248D02*
X8278210Y10002153D01*
X8278210Y10002153D02*
X8316306Y10040248D01*
X8316306Y10040248D02*
X8278210Y10078343D01*
X8278210Y10078343D02*
X8278210Y10002153D01*
X7402020Y10383105D02*
X7135353Y9583105D01*
X7135353Y9583105D02*
X6868687Y10383105D01*
X6640116Y10306915D02*
X6602020Y10345010D01*
X6602020Y10345010D02*
X6525830Y10383105D01*
X6525830Y10383105D02*
X6335354Y10383105D01*
X6335354Y10383105D02*
X6259163Y10345010D01*
X6259163Y10345010D02*
X6221068Y10306915D01*
X6221068Y10306915D02*
X6182973Y10230724D01*
X6182973Y10230724D02*
X6182973Y10154534D01*
X6182973Y10154534D02*
X6221068Y10040248D01*
X6221068Y10040248D02*
X6678211Y9583105D01*
X6678211Y9583105D02*
X6182973Y9583105D01*
X5250001Y-6356609D02*
X5440477Y-6128038D01*
X5592858Y-6356609D02*
X5592858Y-5823276D01*
X5592858Y-5823276D02*
X5364287Y-5823276D01*
X5364287Y-5823276D02*
X5288096Y-5861371D01*
X5288096Y-5861371D02*
X5250001Y-5937561D01*
X5250001Y-5937561D02*
X5250001Y-6013752D01*
X5250001Y-6013752D02*
X5288096Y-6089942D01*
X5288096Y-6089942D02*
X5364287Y-6128038D01*
X5364287Y-6128038D02*
X5592858Y-6128038D01*
X5440477Y-5556609D02*
X5630953Y-5594704D01*
X5630953Y-5594704D02*
X5821430Y-5708990D01*
X5821430Y-5708990D02*
X5935715Y-5899466D01*
X5935715Y-5899466D02*
X5973811Y-6089942D01*
X5973811Y-6089942D02*
X5935715Y-6280419D01*
X5935715Y-6280419D02*
X5821430Y-6470895D01*
X5821430Y-6470895D02*
X5630953Y-6585180D01*
X5630953Y-6585180D02*
X5440477Y-6623276D01*
X5440477Y-6623276D02*
X5250001Y-6585180D01*
X5250001Y-6585180D02*
X5059525Y-6470895D01*
X5059525Y-6470895D02*
X4945239Y-6280419D01*
X4945239Y-6280419D02*
X4907144Y-6089942D01*
X4907144Y-6089942D02*
X4945239Y-5899466D01*
X4945239Y-5899466D02*
X5059525Y-5708990D01*
X5059525Y-5708990D02*
X5250001Y-5594704D01*
X5250001Y-5594704D02*
X5440477Y-5556609D01*
X3954762Y-6470895D02*
X3954762Y-5670895D01*
X3954762Y-5670895D02*
X3764286Y-5670895D01*
X3764286Y-5670895D02*
X3650000Y-5708990D01*
X3650000Y-5708990D02*
X3573810Y-5785180D01*
X3573810Y-5785180D02*
X3535715Y-5861371D01*
X3535715Y-5861371D02*
X3497619Y-6013752D01*
X3497619Y-6013752D02*
X3497619Y-6128038D01*
X3497619Y-6128038D02*
X3535715Y-6280419D01*
X3535715Y-6280419D02*
X3573810Y-6356609D01*
X3573810Y-6356609D02*
X3650000Y-6432800D01*
X3650000Y-6432800D02*
X3764286Y-6470895D01*
X3764286Y-6470895D02*
X3954762Y-6470895D01*
X2811905Y-6470895D02*
X2811905Y-6051847D01*
X2811905Y-6051847D02*
X2850000Y-5975657D01*
X2850000Y-5975657D02*
X2926191Y-5937561D01*
X2926191Y-5937561D02*
X3078572Y-5937561D01*
X3078572Y-5937561D02*
X3154762Y-5975657D01*
X2811905Y-6432800D02*
X2888096Y-6470895D01*
X2888096Y-6470895D02*
X3078572Y-6470895D01*
X3078572Y-6470895D02*
X3154762Y-6432800D01*
X3154762Y-6432800D02*
X3192858Y-6356609D01*
X3192858Y-6356609D02*
X3192858Y-6280419D01*
X3192858Y-6280419D02*
X3154762Y-6204228D01*
X3154762Y-6204228D02*
X3078572Y-6166133D01*
X3078572Y-6166133D02*
X2888096Y-6166133D01*
X2888096Y-6166133D02*
X2811905Y-6128038D01*
X2430952Y-6470895D02*
X2430952Y-5937561D01*
X2430952Y-6013752D02*
X2392857Y-5975657D01*
X2392857Y-5975657D02*
X2316667Y-5937561D01*
X2316667Y-5937561D02*
X2202381Y-5937561D01*
X2202381Y-5937561D02*
X2126190Y-5975657D01*
X2126190Y-5975657D02*
X2088095Y-6051847D01*
X2088095Y-6051847D02*
X2088095Y-6470895D01*
X2088095Y-6051847D02*
X2050000Y-5975657D01*
X2050000Y-5975657D02*
X1973809Y-5937561D01*
X1973809Y-5937561D02*
X1859524Y-5937561D01*
X1859524Y-5937561D02*
X1783333Y-5975657D01*
X1783333Y-5975657D02*
X1745238Y-6051847D01*
X1745238Y-6051847D02*
X1745238Y-6470895D01*
X1364285Y-6470895D02*
X1364285Y-5937561D01*
X1364285Y-5670895D02*
X1402381Y-5708990D01*
X1402381Y-5708990D02*
X1364285Y-5747085D01*
X1364285Y-5747085D02*
X1326190Y-5708990D01*
X1326190Y-5708990D02*
X1364285Y-5670895D01*
X1364285Y-5670895D02*
X1364285Y-5747085D01*
X678571Y-6432800D02*
X754762Y-6470895D01*
X754762Y-6470895D02*
X907143Y-6470895D01*
X907143Y-6470895D02*
X983333Y-6432800D01*
X983333Y-6432800D02*
X1021429Y-6356609D01*
X1021429Y-6356609D02*
X1021429Y-6051847D01*
X1021429Y-6051847D02*
X983333Y-5975657D01*
X983333Y-5975657D02*
X907143Y-5937561D01*
X907143Y-5937561D02*
X754762Y-5937561D01*
X754762Y-5937561D02*
X678571Y-5975657D01*
X678571Y-5975657D02*
X640476Y-6051847D01*
X640476Y-6051847D02*
X640476Y-6128038D01*
X640476Y-6128038D02*
X1021429Y-6204228D01*
X297619Y-5937561D02*
X297619Y-6470895D01*
X297619Y-6013752D02*
X259524Y-5975657D01*
X259524Y-5975657D02*
X183334Y-5937561D01*
X183334Y-5937561D02*
X69048Y-5937561D01*
X69048Y-5937561D02*
X-7143Y-5975657D01*
X-7143Y-5975657D02*
X-45238Y-6051847D01*
X-45238Y-6051847D02*
X-45238Y-6470895D01*
X-1492858Y-6394704D02*
X-1454762Y-6432800D01*
X-1454762Y-6432800D02*
X-1340477Y-6470895D01*
X-1340477Y-6470895D02*
X-1264286Y-6470895D01*
X-1264286Y-6470895D02*
X-1150000Y-6432800D01*
X-1150000Y-6432800D02*
X-1073810Y-6356609D01*
X-1073810Y-6356609D02*
X-1035715Y-6280419D01*
X-1035715Y-6280419D02*
X-997619Y-6128038D01*
X-997619Y-6128038D02*
X-997619Y-6013752D01*
X-997619Y-6013752D02*
X-1035715Y-5861371D01*
X-1035715Y-5861371D02*
X-1073810Y-5785180D01*
X-1073810Y-5785180D02*
X-1150000Y-5708990D01*
X-1150000Y-5708990D02*
X-1264286Y-5670895D01*
X-1264286Y-5670895D02*
X-1340477Y-5670895D01*
X-1340477Y-5670895D02*
X-1454762Y-5708990D01*
X-1454762Y-5708990D02*
X-1492858Y-5747085D01*
X-1950000Y-6470895D02*
X-1873810Y-6432800D01*
X-1873810Y-6432800D02*
X-1835715Y-6356609D01*
X-1835715Y-6356609D02*
X-1835715Y-5670895D01*
X-2597620Y-6470895D02*
X-2597620Y-6051847D01*
X-2597620Y-6051847D02*
X-2559525Y-5975657D01*
X-2559525Y-5975657D02*
X-2483334Y-5937561D01*
X-2483334Y-5937561D02*
X-2330953Y-5937561D01*
X-2330953Y-5937561D02*
X-2254763Y-5975657D01*
X-2597620Y-6432800D02*
X-2521429Y-6470895D01*
X-2521429Y-6470895D02*
X-2330953Y-6470895D01*
X-2330953Y-6470895D02*
X-2254763Y-6432800D01*
X-2254763Y-6432800D02*
X-2216667Y-6356609D01*
X-2216667Y-6356609D02*
X-2216667Y-6280419D01*
X-2216667Y-6280419D02*
X-2254763Y-6204228D01*
X-2254763Y-6204228D02*
X-2330953Y-6166133D01*
X-2330953Y-6166133D02*
X-2521429Y-6166133D01*
X-2521429Y-6166133D02*
X-2597620Y-6128038D01*
X-2978573Y-6470895D02*
X-2978573Y-5937561D01*
X-2978573Y-6089942D02*
X-3016668Y-6013752D01*
X-3016668Y-6013752D02*
X-3054763Y-5975657D01*
X-3054763Y-5975657D02*
X-3130954Y-5937561D01*
X-3130954Y-5937561D02*
X-3207144Y-5937561D01*
X-3473811Y-6470895D02*
X-3473811Y-5670895D01*
X-3550001Y-6166133D02*
X-3778573Y-6470895D01*
X-3778573Y-5937561D02*
X-3473811Y-6242323D01*
X-4083334Y-6432800D02*
X-4159525Y-6470895D01*
X-4159525Y-6470895D02*
X-4311906Y-6470895D01*
X-4311906Y-6470895D02*
X-4388096Y-6432800D01*
X-4388096Y-6432800D02*
X-4426192Y-6356609D01*
X-4426192Y-6356609D02*
X-4426192Y-6318514D01*
X-4426192Y-6318514D02*
X-4388096Y-6242323D01*
X-4388096Y-6242323D02*
X-4311906Y-6204228D01*
X-4311906Y-6204228D02*
X-4197620Y-6204228D01*
X-4197620Y-6204228D02*
X-4121430Y-6166133D01*
X-4121430Y-6166133D02*
X-4083334Y-6089942D01*
X-4083334Y-6089942D02*
X-4083334Y-6051847D01*
X-4083334Y-6051847D02*
X-4121430Y-5975657D01*
X-4121430Y-5975657D02*
X-4197620Y-5937561D01*
X-4197620Y-5937561D02*
X-4311906Y-5937561D01*
X-4311906Y-5937561D02*
X-4388096Y-5975657D01*
X-4883334Y-6470895D02*
X-4807144Y-6432800D01*
X-4807144Y-6432800D02*
X-4769049Y-6394704D01*
X-4769049Y-6394704D02*
X-4730953Y-6318514D01*
X-4730953Y-6318514D02*
X-4730953Y-6089942D01*
X-4730953Y-6089942D02*
X-4769049Y-6013752D01*
X-4769049Y-6013752D02*
X-4807144Y-5975657D01*
X-4807144Y-5975657D02*
X-4883334Y-5937561D01*
X-4883334Y-5937561D02*
X-4997620Y-5937561D01*
X-4997620Y-5937561D02*
X-5073811Y-5975657D01*
X-5073811Y-5975657D02*
X-5111906Y-6013752D01*
X-5111906Y-6013752D02*
X-5150001Y-6089942D01*
X-5150001Y-6089942D02*
X-5150001Y-6318514D01*
X-5150001Y-6318514D02*
X-5111906Y-6394704D01*
X-5111906Y-6394704D02*
X-5073811Y-6432800D01*
X-5073811Y-6432800D02*
X-4997620Y-6470895D01*
X-4997620Y-6470895D02*
X-4883334Y-6470895D01*
X-5492859Y-5937561D02*
X-5492859Y-6470895D01*
X-5492859Y-6013752D02*
X-5530954Y-5975657D01*
X-5530954Y-5975657D02*
X-5607144Y-5937561D01*
X-5607144Y-5937561D02*
X-5721430Y-5937561D01*
X-5721430Y-5937561D02*
X-5797621Y-5975657D01*
X-5797621Y-5975657D02*
X-5835716Y-6051847D01*
X-5835716Y-6051847D02*
X-5835716Y-6470895D01*
X1421429Y-7035085D02*
X1383333Y-6996990D01*
X1383333Y-6996990D02*
X1307143Y-6958895D01*
X1307143Y-6958895D02*
X1116667Y-6958895D01*
X1116667Y-6958895D02*
X1040476Y-6996990D01*
X1040476Y-6996990D02*
X1002381Y-7035085D01*
X1002381Y-7035085D02*
X964286Y-7111276D01*
X964286Y-7111276D02*
X964286Y-7187466D01*
X964286Y-7187466D02*
X1002381Y-7301752D01*
X1002381Y-7301752D02*
X1459524Y-7758895D01*
X1459524Y-7758895D02*
X964286Y-7758895D01*
X469047Y-6958895D02*
X392857Y-6958895D01*
X392857Y-6958895D02*
X316666Y-6996990D01*
X316666Y-6996990D02*
X278571Y-7035085D01*
X278571Y-7035085D02*
X240476Y-7111276D01*
X240476Y-7111276D02*
X202381Y-7263657D01*
X202381Y-7263657D02*
X202381Y-7454133D01*
X202381Y-7454133D02*
X240476Y-7606514D01*
X240476Y-7606514D02*
X278571Y-7682704D01*
X278571Y-7682704D02*
X316666Y-7720800D01*
X316666Y-7720800D02*
X392857Y-7758895D01*
X392857Y-7758895D02*
X469047Y-7758895D01*
X469047Y-7758895D02*
X545238Y-7720800D01*
X545238Y-7720800D02*
X583333Y-7682704D01*
X583333Y-7682704D02*
X621428Y-7606514D01*
X621428Y-7606514D02*
X659524Y-7454133D01*
X659524Y-7454133D02*
X659524Y-7263657D01*
X659524Y-7263657D02*
X621428Y-7111276D01*
X621428Y-7111276D02*
X583333Y-7035085D01*
X583333Y-7035085D02*
X545238Y-6996990D01*
X545238Y-6996990D02*
X469047Y-6958895D01*
X-102381Y-7035085D02*
X-140477Y-6996990D01*
X-140477Y-6996990D02*
X-216667Y-6958895D01*
X-216667Y-6958895D02*
X-407143Y-6958895D01*
X-407143Y-6958895D02*
X-483334Y-6996990D01*
X-483334Y-6996990D02*
X-521429Y-7035085D01*
X-521429Y-7035085D02*
X-559524Y-7111276D01*
X-559524Y-7111276D02*
X-559524Y-7187466D01*
X-559524Y-7187466D02*
X-521429Y-7301752D01*
X-521429Y-7301752D02*
X-64286Y-7758895D01*
X-64286Y-7758895D02*
X-559524Y-7758895D01*
X-1245239Y-6958895D02*
X-1092858Y-6958895D01*
X-1092858Y-6958895D02*
X-1016667Y-6996990D01*
X-1016667Y-6996990D02*
X-978572Y-7035085D01*
X-978572Y-7035085D02*
X-902382Y-7149371D01*
X-902382Y-7149371D02*
X-864286Y-7301752D01*
X-864286Y-7301752D02*
X-864286Y-7606514D01*
X-864286Y-7606514D02*
X-902382Y-7682704D01*
X-902382Y-7682704D02*
X-940477Y-7720800D01*
X-940477Y-7720800D02*
X-1016667Y-7758895D01*
X-1016667Y-7758895D02*
X-1169048Y-7758895D01*
X-1169048Y-7758895D02*
X-1245239Y-7720800D01*
X-1245239Y-7720800D02*
X-1283334Y-7682704D01*
X-1283334Y-7682704D02*
X-1321429Y-7606514D01*
X-1321429Y-7606514D02*
X-1321429Y-7416038D01*
X-1321429Y-7416038D02*
X-1283334Y-7339847D01*
X-1283334Y-7339847D02*
X-1245239Y-7301752D01*
X-1245239Y-7301752D02*
X-1169048Y-7263657D01*
X-1169048Y-7263657D02*
X-1016667Y-7263657D01*
X-1016667Y-7263657D02*
X-940477Y-7301752D01*
X-940477Y-7301752D02*
X-902382Y-7339847D01*
X-902382Y-7339847D02*
X-864286Y-7416038D01*
X10719047Y-9370895D02*
X10261904Y-9370895D01*
X10490476Y-10170895D02*
X10490476Y-9370895D01*
X9995237Y-10170895D02*
X9995237Y-9370895D01*
X9652380Y-10170895D02*
X9652380Y-9751847D01*
X9652380Y-9751847D02*
X9690475Y-9675657D01*
X9690475Y-9675657D02*
X9766666Y-9637561D01*
X9766666Y-9637561D02*
X9880952Y-9637561D01*
X9880952Y-9637561D02*
X9957142Y-9675657D01*
X9957142Y-9675657D02*
X9995237Y-9713752D01*
X9271427Y-10170895D02*
X9271427Y-9637561D01*
X9271427Y-9370895D02*
X9309523Y-9408990D01*
X9309523Y-9408990D02*
X9271427Y-9447085D01*
X9271427Y-9447085D02*
X9233332Y-9408990D01*
X9233332Y-9408990D02*
X9271427Y-9370895D01*
X9271427Y-9370895D02*
X9271427Y-9447085D01*
X8928571Y-10132800D02*
X8852380Y-10170895D01*
X8852380Y-10170895D02*
X8699999Y-10170895D01*
X8699999Y-10170895D02*
X8623809Y-10132800D01*
X8623809Y-10132800D02*
X8585713Y-10056609D01*
X8585713Y-10056609D02*
X8585713Y-10018514D01*
X8585713Y-10018514D02*
X8623809Y-9942323D01*
X8623809Y-9942323D02*
X8699999Y-9904228D01*
X8699999Y-9904228D02*
X8814285Y-9904228D01*
X8814285Y-9904228D02*
X8890475Y-9866133D01*
X8890475Y-9866133D02*
X8928571Y-9789942D01*
X8928571Y-9789942D02*
X8928571Y-9751847D01*
X8928571Y-9751847D02*
X8890475Y-9675657D01*
X8890475Y-9675657D02*
X8814285Y-9637561D01*
X8814285Y-9637561D02*
X8699999Y-9637561D01*
X8699999Y-9637561D02*
X8623809Y-9675657D01*
X7633332Y-9637561D02*
X7633332Y-10323276D01*
X7633332Y-10323276D02*
X7671428Y-10399466D01*
X7671428Y-10399466D02*
X7747618Y-10437561D01*
X7747618Y-10437561D02*
X7785713Y-10437561D01*
X7633332Y-9370895D02*
X7671428Y-9408990D01*
X7671428Y-9408990D02*
X7633332Y-9447085D01*
X7633332Y-9447085D02*
X7595237Y-9408990D01*
X7595237Y-9408990D02*
X7633332Y-9370895D01*
X7633332Y-9370895D02*
X7633332Y-9447085D01*
X6909523Y-9637561D02*
X6909523Y-10170895D01*
X7252380Y-9637561D02*
X7252380Y-10056609D01*
X7252380Y-10056609D02*
X7214285Y-10132800D01*
X7214285Y-10132800D02*
X7138095Y-10170895D01*
X7138095Y-10170895D02*
X7023809Y-10170895D01*
X7023809Y-10170895D02*
X6947618Y-10132800D01*
X6947618Y-10132800D02*
X6909523Y-10094704D01*
X6566666Y-10132800D02*
X6490475Y-10170895D01*
X6490475Y-10170895D02*
X6338094Y-10170895D01*
X6338094Y-10170895D02*
X6261904Y-10132800D01*
X6261904Y-10132800D02*
X6223808Y-10056609D01*
X6223808Y-10056609D02*
X6223808Y-10018514D01*
X6223808Y-10018514D02*
X6261904Y-9942323D01*
X6261904Y-9942323D02*
X6338094Y-9904228D01*
X6338094Y-9904228D02*
X6452380Y-9904228D01*
X6452380Y-9904228D02*
X6528570Y-9866133D01*
X6528570Y-9866133D02*
X6566666Y-9789942D01*
X6566666Y-9789942D02*
X6566666Y-9751847D01*
X6566666Y-9751847D02*
X6528570Y-9675657D01*
X6528570Y-9675657D02*
X6452380Y-9637561D01*
X6452380Y-9637561D02*
X6338094Y-9637561D01*
X6338094Y-9637561D02*
X6261904Y-9675657D01*
X5995237Y-9637561D02*
X5690475Y-9637561D01*
X5880951Y-9370895D02*
X5880951Y-10056609D01*
X5880951Y-10056609D02*
X5842856Y-10132800D01*
X5842856Y-10132800D02*
X5766666Y-10170895D01*
X5766666Y-10170895D02*
X5690475Y-10170895D01*
X11480952Y-11458895D02*
X11480952Y-10925561D01*
X11480952Y-11001752D02*
X11442857Y-10963657D01*
X11442857Y-10963657D02*
X11366667Y-10925561D01*
X11366667Y-10925561D02*
X11252381Y-10925561D01*
X11252381Y-10925561D02*
X11176190Y-10963657D01*
X11176190Y-10963657D02*
X11138095Y-11039847D01*
X11138095Y-11039847D02*
X11138095Y-11458895D01*
X11138095Y-11039847D02*
X11100000Y-10963657D01*
X11100000Y-10963657D02*
X11023809Y-10925561D01*
X11023809Y-10925561D02*
X10909524Y-10925561D01*
X10909524Y-10925561D02*
X10833333Y-10963657D01*
X10833333Y-10963657D02*
X10795238Y-11039847D01*
X10795238Y-11039847D02*
X10795238Y-11458895D01*
X10071428Y-11458895D02*
X10071428Y-11039847D01*
X10071428Y-11039847D02*
X10109523Y-10963657D01*
X10109523Y-10963657D02*
X10185714Y-10925561D01*
X10185714Y-10925561D02*
X10338095Y-10925561D01*
X10338095Y-10925561D02*
X10414285Y-10963657D01*
X10071428Y-11420800D02*
X10147619Y-11458895D01*
X10147619Y-11458895D02*
X10338095Y-11458895D01*
X10338095Y-11458895D02*
X10414285Y-11420800D01*
X10414285Y-11420800D02*
X10452381Y-11344609D01*
X10452381Y-11344609D02*
X10452381Y-11268419D01*
X10452381Y-11268419D02*
X10414285Y-11192228D01*
X10414285Y-11192228D02*
X10338095Y-11154133D01*
X10338095Y-11154133D02*
X10147619Y-11154133D01*
X10147619Y-11154133D02*
X10071428Y-11116038D01*
X9690475Y-11458895D02*
X9690475Y-10658895D01*
X9614285Y-11154133D02*
X9385713Y-11458895D01*
X9385713Y-10925561D02*
X9690475Y-11230323D01*
X8738094Y-11420800D02*
X8814285Y-11458895D01*
X8814285Y-11458895D02*
X8966666Y-11458895D01*
X8966666Y-11458895D02*
X9042856Y-11420800D01*
X9042856Y-11420800D02*
X9080952Y-11344609D01*
X9080952Y-11344609D02*
X9080952Y-11039847D01*
X9080952Y-11039847D02*
X9042856Y-10963657D01*
X9042856Y-10963657D02*
X8966666Y-10925561D01*
X8966666Y-10925561D02*
X8814285Y-10925561D01*
X8814285Y-10925561D02*
X8738094Y-10963657D01*
X8738094Y-10963657D02*
X8699999Y-11039847D01*
X8699999Y-11039847D02*
X8699999Y-11116038D01*
X8699999Y-11116038D02*
X9080952Y-11192228D01*
X8395238Y-11420800D02*
X8319047Y-11458895D01*
X8319047Y-11458895D02*
X8166666Y-11458895D01*
X8166666Y-11458895D02*
X8090476Y-11420800D01*
X8090476Y-11420800D02*
X8052380Y-11344609D01*
X8052380Y-11344609D02*
X8052380Y-11306514D01*
X8052380Y-11306514D02*
X8090476Y-11230323D01*
X8090476Y-11230323D02*
X8166666Y-11192228D01*
X8166666Y-11192228D02*
X8280952Y-11192228D01*
X8280952Y-11192228D02*
X8357142Y-11154133D01*
X8357142Y-11154133D02*
X8395238Y-11077942D01*
X8395238Y-11077942D02*
X8395238Y-11039847D01*
X8395238Y-11039847D02*
X8357142Y-10963657D01*
X8357142Y-10963657D02*
X8280952Y-10925561D01*
X8280952Y-10925561D02*
X8166666Y-10925561D01*
X8166666Y-10925561D02*
X8090476Y-10963657D01*
X7099999Y-10925561D02*
X7099999Y-11458895D01*
X7099999Y-11001752D02*
X7061904Y-10963657D01*
X7061904Y-10963657D02*
X6985714Y-10925561D01*
X6985714Y-10925561D02*
X6871428Y-10925561D01*
X6871428Y-10925561D02*
X6795237Y-10963657D01*
X6795237Y-10963657D02*
X6757142Y-11039847D01*
X6757142Y-11039847D02*
X6757142Y-11458895D01*
X6261904Y-11458895D02*
X6338094Y-11420800D01*
X6338094Y-11420800D02*
X6376189Y-11382704D01*
X6376189Y-11382704D02*
X6414285Y-11306514D01*
X6414285Y-11306514D02*
X6414285Y-11077942D01*
X6414285Y-11077942D02*
X6376189Y-11001752D01*
X6376189Y-11001752D02*
X6338094Y-10963657D01*
X6338094Y-10963657D02*
X6261904Y-10925561D01*
X6261904Y-10925561D02*
X6147618Y-10925561D01*
X6147618Y-10925561D02*
X6071427Y-10963657D01*
X6071427Y-10963657D02*
X6033332Y-11001752D01*
X6033332Y-11001752D02*
X5995237Y-11077942D01*
X5995237Y-11077942D02*
X5995237Y-11306514D01*
X5995237Y-11306514D02*
X6033332Y-11382704D01*
X6033332Y-11382704D02*
X6071427Y-11420800D01*
X6071427Y-11420800D02*
X6147618Y-11458895D01*
X6147618Y-11458895D02*
X6261904Y-11458895D01*
X5652379Y-11458895D02*
X5652379Y-10925561D01*
X5652379Y-10658895D02*
X5690475Y-10696990D01*
X5690475Y-10696990D02*
X5652379Y-10735085D01*
X5652379Y-10735085D02*
X5614284Y-10696990D01*
X5614284Y-10696990D02*
X5652379Y-10658895D01*
X5652379Y-10658895D02*
X5652379Y-10735085D01*
X5309523Y-11420800D02*
X5233332Y-11458895D01*
X5233332Y-11458895D02*
X5080951Y-11458895D01*
X5080951Y-11458895D02*
X5004761Y-11420800D01*
X5004761Y-11420800D02*
X4966665Y-11344609D01*
X4966665Y-11344609D02*
X4966665Y-11306514D01*
X4966665Y-11306514D02*
X5004761Y-11230323D01*
X5004761Y-11230323D02*
X5080951Y-11192228D01*
X5080951Y-11192228D02*
X5195237Y-11192228D01*
X5195237Y-11192228D02*
X5271427Y-11154133D01*
X5271427Y-11154133D02*
X5309523Y-11077942D01*
X5309523Y-11077942D02*
X5309523Y-11039847D01*
X5309523Y-11039847D02*
X5271427Y-10963657D01*
X5271427Y-10963657D02*
X5195237Y-10925561D01*
X5195237Y-10925561D02*
X5080951Y-10925561D01*
X5080951Y-10925561D02*
X5004761Y-10963657D01*
X4319046Y-11420800D02*
X4395237Y-11458895D01*
X4395237Y-11458895D02*
X4547618Y-11458895D01*
X4547618Y-11458895D02*
X4623808Y-11420800D01*
X4623808Y-11420800D02*
X4661904Y-11344609D01*
X4661904Y-11344609D02*
X4661904Y-11039847D01*
X4661904Y-11039847D02*
X4623808Y-10963657D01*
X4623808Y-10963657D02*
X4547618Y-10925561D01*
X4547618Y-10925561D02*
X4395237Y-10925561D01*
X4395237Y-10925561D02*
X4319046Y-10963657D01*
X4319046Y-10963657D02*
X4280951Y-11039847D01*
X4280951Y-11039847D02*
X4280951Y-11116038D01*
X4280951Y-11116038D02*
X4661904Y-11192228D01*
X-13619Y10862105D02*
X-13619Y11662105D01*
X-13619Y11662105D02*
X-204095Y11662105D01*
X-204095Y11662105D02*
X-318381Y11624010D01*
X-318381Y11624010D02*
X-394571Y11547820D01*
X-394571Y11547820D02*
X-432666Y11471629D01*
X-432666Y11471629D02*
X-470762Y11319248D01*
X-470762Y11319248D02*
X-470762Y11204962D01*
X-470762Y11204962D02*
X-432666Y11052581D01*
X-432666Y11052581D02*
X-394571Y10976391D01*
X-394571Y10976391D02*
X-318381Y10900200D01*
X-318381Y10900200D02*
X-204095Y10862105D01*
X-204095Y10862105D02*
X-13619Y10862105D01*
X-775523Y11090677D02*
X-1156476Y11090677D01*
X-699333Y10862105D02*
X-966000Y11662105D01*
X-966000Y11662105D02*
X-1232666Y10862105D01*
X-1385047Y11662105D02*
X-1842190Y11662105D01*
X-1613618Y10862105D02*
X-1613618Y11662105D01*
X-2108857Y11281153D02*
X-2375523Y11281153D01*
X-2489809Y10862105D02*
X-2108857Y10862105D01*
X-2108857Y10862105D02*
X-2108857Y11662105D01*
X-2108857Y11662105D02*
X-2489809Y11662105D01*
X-2832667Y10938296D02*
X-2870762Y10900200D01*
X-2870762Y10900200D02*
X-2832667Y10862105D01*
X-2832667Y10862105D02*
X-2794571Y10900200D01*
X-2794571Y10900200D02*
X-2832667Y10938296D01*
X-2832667Y10938296D02*
X-2832667Y10862105D01*
X-2832667Y11357343D02*
X-2870762Y11319248D01*
X-2870762Y11319248D02*
X-2832667Y11281153D01*
X-2832667Y11281153D02*
X-2794571Y11319248D01*
X-2794571Y11319248D02*
X-2832667Y11357343D01*
X-2832667Y11357343D02*
X-2832667Y11281153D01*
X-3785047Y11585915D02*
X-3823143Y11624010D01*
X-3823143Y11624010D02*
X-3899333Y11662105D01*
X-3899333Y11662105D02*
X-4089809Y11662105D01*
X-4089809Y11662105D02*
X-4166000Y11624010D01*
X-4166000Y11624010D02*
X-4204095Y11585915D01*
X-4204095Y11585915D02*
X-4242190Y11509724D01*
X-4242190Y11509724D02*
X-4242190Y11433534D01*
X-4242190Y11433534D02*
X-4204095Y11319248D01*
X-4204095Y11319248D02*
X-3746952Y10862105D01*
X-3746952Y10862105D02*
X-4242190Y10862105D01*
X-4737429Y11662105D02*
X-4813619Y11662105D01*
X-4813619Y11662105D02*
X-4889810Y11624010D01*
X-4889810Y11624010D02*
X-4927905Y11585915D01*
X-4927905Y11585915D02*
X-4966000Y11509724D01*
X-4966000Y11509724D02*
X-5004095Y11357343D01*
X-5004095Y11357343D02*
X-5004095Y11166867D01*
X-5004095Y11166867D02*
X-4966000Y11014486D01*
X-4966000Y11014486D02*
X-4927905Y10938296D01*
X-4927905Y10938296D02*
X-4889810Y10900200D01*
X-4889810Y10900200D02*
X-4813619Y10862105D01*
X-4813619Y10862105D02*
X-4737429Y10862105D01*
X-4737429Y10862105D02*
X-4661238Y10900200D01*
X-4661238Y10900200D02*
X-4623143Y10938296D01*
X-4623143Y10938296D02*
X-4585048Y11014486D01*
X-4585048Y11014486D02*
X-4546952Y11166867D01*
X-4546952Y11166867D02*
X-4546952Y11357343D01*
X-4546952Y11357343D02*
X-4585048Y11509724D01*
X-4585048Y11509724D02*
X-4623143Y11585915D01*
X-4623143Y11585915D02*
X-4661238Y11624010D01*
X-4661238Y11624010D02*
X-4737429Y11662105D01*
X-5308857Y11585915D02*
X-5346953Y11624010D01*
X-5346953Y11624010D02*
X-5423143Y11662105D01*
X-5423143Y11662105D02*
X-5613619Y11662105D01*
X-5613619Y11662105D02*
X-5689810Y11624010D01*
X-5689810Y11624010D02*
X-5727905Y11585915D01*
X-5727905Y11585915D02*
X-5766000Y11509724D01*
X-5766000Y11509724D02*
X-5766000Y11433534D01*
X-5766000Y11433534D02*
X-5727905Y11319248D01*
X-5727905Y11319248D02*
X-5270762Y10862105D01*
X-5270762Y10862105D02*
X-5766000Y10862105D01*
X-6451715Y11662105D02*
X-6299334Y11662105D01*
X-6299334Y11662105D02*
X-6223143Y11624010D01*
X-6223143Y11624010D02*
X-6185048Y11585915D01*
X-6185048Y11585915D02*
X-6108858Y11471629D01*
X-6108858Y11471629D02*
X-6070762Y11319248D01*
X-6070762Y11319248D02*
X-6070762Y11014486D01*
X-6070762Y11014486D02*
X-6108858Y10938296D01*
X-6108858Y10938296D02*
X-6146953Y10900200D01*
X-6146953Y10900200D02*
X-6223143Y10862105D01*
X-6223143Y10862105D02*
X-6375524Y10862105D01*
X-6375524Y10862105D02*
X-6451715Y10900200D01*
X-6451715Y10900200D02*
X-6489810Y10938296D01*
X-6489810Y10938296D02*
X-6527905Y11014486D01*
X-6527905Y11014486D02*
X-6527905Y11204962D01*
X-6527905Y11204962D02*
X-6489810Y11281153D01*
X-6489810Y11281153D02*
X-6451715Y11319248D01*
X-6451715Y11319248D02*
X-6375524Y11357343D01*
X-6375524Y11357343D02*
X-6223143Y11357343D01*
X-6223143Y11357343D02*
X-6146953Y11319248D01*
X-6146953Y11319248D02*
X-6108858Y11281153D01*
X-6108858Y11281153D02*
X-6070762Y11204962D01*
X-6870763Y11166867D02*
X-7480286Y11166867D01*
X-8013620Y11662105D02*
X-8089810Y11662105D01*
X-8089810Y11662105D02*
X-8166001Y11624010D01*
X-8166001Y11624010D02*
X-8204096Y11585915D01*
X-8204096Y11585915D02*
X-8242191Y11509724D01*
X-8242191Y11509724D02*
X-8280286Y11357343D01*
X-8280286Y11357343D02*
X-8280286Y11166867D01*
X-8280286Y11166867D02*
X-8242191Y11014486D01*
X-8242191Y11014486D02*
X-8204096Y10938296D01*
X-8204096Y10938296D02*
X-8166001Y10900200D01*
X-8166001Y10900200D02*
X-8089810Y10862105D01*
X-8089810Y10862105D02*
X-8013620Y10862105D01*
X-8013620Y10862105D02*
X-7937429Y10900200D01*
X-7937429Y10900200D02*
X-7899334Y10938296D01*
X-7899334Y10938296D02*
X-7861239Y11014486D01*
X-7861239Y11014486D02*
X-7823143Y11166867D01*
X-7823143Y11166867D02*
X-7823143Y11357343D01*
X-7823143Y11357343D02*
X-7861239Y11509724D01*
X-7861239Y11509724D02*
X-7899334Y11585915D01*
X-7899334Y11585915D02*
X-7937429Y11624010D01*
X-7937429Y11624010D02*
X-8013620Y11662105D01*
X-8585048Y11585915D02*
X-8623144Y11624010D01*
X-8623144Y11624010D02*
X-8699334Y11662105D01*
X-8699334Y11662105D02*
X-8889810Y11662105D01*
X-8889810Y11662105D02*
X-8966001Y11624010D01*
X-8966001Y11624010D02*
X-9004096Y11585915D01*
X-9004096Y11585915D02*
X-9042191Y11509724D01*
X-9042191Y11509724D02*
X-9042191Y11433534D01*
X-9042191Y11433534D02*
X-9004096Y11319248D01*
X-9004096Y11319248D02*
X-8546953Y10862105D01*
X-8546953Y10862105D02*
X-9042191Y10862105D01*
X-9385049Y11166867D02*
X-9994572Y11166867D01*
X-10794572Y10862105D02*
X-10337429Y10862105D01*
X-10566001Y10862105D02*
X-10566001Y11662105D01*
X-10566001Y11662105D02*
X-10489810Y11547820D01*
X-10489810Y11547820D02*
X-10413620Y11471629D01*
X-10413620Y11471629D02*
X-10337429Y11433534D01*
X-11099334Y11585915D02*
X-11137430Y11624010D01*
X-11137430Y11624010D02*
X-11213620Y11662105D01*
X-11213620Y11662105D02*
X-11404096Y11662105D01*
X-11404096Y11662105D02*
X-11480287Y11624010D01*
X-11480287Y11624010D02*
X-11518382Y11585915D01*
X-11518382Y11585915D02*
X-11556477Y11509724D01*
X-11556477Y11509724D02*
X-11556477Y11433534D01*
X-11556477Y11433534D02*
X-11518382Y11319248D01*
X-11518382Y11319248D02*
X-11061239Y10862105D01*
X-11061239Y10862105D02*
X-11556477Y10862105D01*
D11*
%TO.C,BT1*%
X10550000Y4825000D02*
X10550000Y3000000D01*
X10550000Y4825000D02*
X7350000Y7675000D01*
X10500000Y-3087500D02*
X10500000Y-4912500D01*
X7350000Y7675000D02*
X-7350000Y7675000D01*
X-10500000Y-3087500D02*
X-10500000Y-4912500D01*
X-10550000Y4825000D02*
X-7350000Y7675000D01*
X-10550000Y4825000D02*
X-10550000Y3000000D01*
D10*
X10000000Y0D02*
G75*
G03*
X-10000000Y0I-10000000J0D01*
G01*
X-10000000Y0D02*
G75*
G03*
X10000000Y0I10000000J0D01*
G01*
%TD*%
%LPC*%
D12*
%TO.C,J1*%
X-3099000Y-10998000D03*
D13*
X-1829000Y-10998000D03*
X-559000Y-10998000D03*
X711000Y-10998000D03*
X1981000Y-10998000D03*
X3251000Y-10998000D03*
%TD*%
D12*
%TO.C,J2*%
X-10084000Y-10998000D03*
D13*
X-8814000Y-10998000D03*
X-7544000Y-10998000D03*
%TD*%
D14*
%TO.C,BT1*%
X10875000Y0D03*
X-10875000Y0D03*
D15*
X0Y0D03*
%TD*%
%LPD*%
M02*
