%TF.GenerationSoftware,KiCad,Pcbnew,7.0.10*%
%TF.CreationDate,2026-01-16T16:27:33+08:00*%
%TF.ProjectId,NeepNeep-DAC-V1,4e656570-4e65-4657-902d-4441432d5631,rev?*%
%TF.SameCoordinates,Original*%
%TF.FileFunction,Copper,L2,Bot*%
%TF.FilePolarity,Positive*%
%FSLAX46Y46*%
G04 Gerber Fmt 4.6, Leading zero omitted, Abs format (unit mm)*
G04 Created by KiCad (PCBNEW 7.0.10) date 2026-01-16 16:27:33*
%MOMM*%
%LPD*%
G01*
G04 APERTURE LIST*
%TA.AperFunction,SMDPad,CuDef*%
%ADD10R,1.150000X5.080000*%
%TD*%
%TA.AperFunction,SMDPad,CuDef*%
%ADD11C,10.000000*%
%TD*%
%TA.AperFunction,ComponentPad*%
%ADD12R,1.000000X1.000000*%
%TD*%
%TA.AperFunction,ComponentPad*%
%ADD13O,1.000000X1.000000*%
%TD*%
%TA.AperFunction,ViaPad*%
%ADD14C,0.400000*%
%TD*%
%TA.AperFunction,ViaPad*%
%ADD15C,0.500000*%
%TD*%
%TA.AperFunction,Conductor*%
%ADD16C,0.500000*%
%TD*%
%TA.AperFunction,Conductor*%
%ADD17C,0.200000*%
%TD*%
G04 APERTURE END LIST*
D10*
%TO.P,BT1,1,+*%
%TO.N,3.3v*%
X10875000Y0D03*
X-10875000Y0D03*
D11*
%TO.P,BT1,2,-*%
%TO.N,GND*%
X0Y0D03*
%TD*%
D12*
%TO.P,J1,1,Pin_1*%
%TO.N,PB1{slash}MISO*%
X-3175000Y-11000000D03*
D13*
%TO.P,J1,2,Pin_2*%
%TO.N,3.3v*%
X-1905000Y-11000000D03*
%TO.P,J1,3,Pin_3*%
%TO.N,PB2{slash}SCK*%
X-635000Y-11000000D03*
%TO.P,J1,4,Pin_4*%
%TO.N,PB0{slash}MOSI*%
X635000Y-11000000D03*
%TO.P,J1,5,Pin_5*%
%TO.N,PB5{slash}RESET*%
X1905000Y-11000000D03*
%TO.P,J1,6,Pin_6*%
%TO.N,GND*%
X3175000Y-11000000D03*
%TD*%
D14*
%TO.N,GND*%
X-7350000Y-1950000D03*
X-7900000Y-11450000D03*
D15*
X-11500000Y-10300000D03*
X5300000Y-11500000D03*
X11250000Y-11400000D03*
D14*
X-11200000Y10350000D03*
X-10250000Y11400000D03*
X-11200000Y11400000D03*
X11250000Y8650000D03*
X11250000Y11400000D03*
D15*
X-4300000Y5650000D03*
D14*
%TO.N,3.3v*%
X-10875000Y3250000D03*
D15*
%TO.N,GND*%
X11400000Y-4300000D03*
X8650000Y200000D03*
X2350000Y-1000000D03*
D14*
X-5900000Y-10750000D03*
D15*
X-9400000Y1150000D03*
X-6700000Y5650000D03*
D14*
X-5900000Y-6800000D03*
X6250000Y8650000D03*
X2050000Y8850000D03*
%TO.N,3.3v*%
X-950000Y5800000D03*
X5150000Y10850000D03*
%TO.N,GND*%
X-3800000Y-271250D03*
X-5250000Y-4050000D03*
%TO.N,3.3v*%
X-4050000Y10850000D03*
%TO.N,GND*%
X1100000Y-2800000D03*
X-550000Y300000D03*
%TO.N,3.3v*%
X-9650000Y-7100000D03*
%TO.N,PB2{slash}SCK*%
X-3828554Y-8478554D03*
%TD*%
D16*
%TO.N,3.3v*%
X-10875000Y3250000D02*
X-10875000Y6143548D01*
X-10875000Y0D02*
X-10875000Y3250000D01*
X-6168548Y10850000D02*
X-1350000Y10850000D01*
X-10875000Y6143548D02*
X-6168548Y10850000D01*
X-1350000Y6200000D02*
X-950000Y5800000D01*
X-1350000Y10850000D02*
X5650000Y10850000D01*
X-1350000Y10850000D02*
X-1350000Y6200000D01*
D17*
%TO.N,PB2{slash}SCK*%
X-635000Y-9765000D02*
X-635000Y-11000000D01*
X-1049500Y-9350500D02*
X-635000Y-9765000D01*
X-2956608Y-9350500D02*
X-1049500Y-9350500D01*
X-3828554Y-8478554D02*
X-2956608Y-9350500D01*
D16*
%TO.N,3.3v*%
X-2197894Y-10000000D02*
X-1905000Y-10292894D01*
X10875000Y5625000D02*
X10875000Y0D01*
X-6800000Y-10000000D02*
X-2197894Y-10000000D01*
X-10875000Y0D02*
X-10850000Y-25000D01*
X-1905000Y-10292894D02*
X-1905000Y-11000000D01*
X5650000Y10850000D02*
X10875000Y5625000D01*
X-10850000Y-5950000D02*
X-6800000Y-10000000D01*
X-10850000Y-25000D02*
X-10850000Y-4150000D01*
X-10850000Y-4150000D02*
X-10850000Y-5950000D01*
%TD*%
%TA.AperFunction,Conductor*%
%TO.N,GND*%
G36*
X-11772991Y-2933407D02*
G01*
X-11696208Y-2990887D01*
X-11696206Y-2990888D01*
X-11696204Y-2990889D01*
X-11692490Y-2992274D01*
X-11690467Y-2993029D01*
X-11633631Y-3035576D01*
X-11608821Y-3102096D01*
X-11608500Y-3111084D01*
X-11608500Y-5885559D01*
X-11609830Y-5903819D01*
X-11613341Y-5927786D01*
X-11613341Y-5927795D01*
X-11608980Y-5977633D01*
X-11608500Y-5988616D01*
X-11608500Y-5994185D01*
X-11604865Y-6025289D01*
X-11604493Y-6028932D01*
X-11597889Y-6104418D01*
X-11596404Y-6111606D01*
X-11596469Y-6111619D01*
X-11594835Y-6118989D01*
X-11594771Y-6118975D01*
X-11593079Y-6126116D01*
X-11567154Y-6197342D01*
X-11565951Y-6200804D01*
X-11542116Y-6272735D01*
X-11539013Y-6279388D01*
X-11539074Y-6279416D01*
X-11535789Y-6286202D01*
X-11535730Y-6286173D01*
X-11532437Y-6292730D01*
X-11490768Y-6356084D01*
X-11488829Y-6359127D01*
X-11449030Y-6423651D01*
X-11449028Y-6423654D01*
X-11444478Y-6429408D01*
X-11444532Y-6429450D01*
X-11439772Y-6435292D01*
X-11439721Y-6435250D01*
X-11435003Y-6440872D01*
X-11379845Y-6492911D01*
X-11377216Y-6495465D01*
X-7381908Y-10490773D01*
X-7369935Y-10504627D01*
X-7355469Y-10524058D01*
X-7317126Y-10556231D01*
X-7309033Y-10563648D01*
X-7305100Y-10567581D01*
X-7305097Y-10567583D01*
X-7280545Y-10586997D01*
X-7277705Y-10589311D01*
X-7219645Y-10638028D01*
X-7219640Y-10638032D01*
X-7219636Y-10638034D01*
X-7213505Y-10642067D01*
X-7213542Y-10642122D01*
X-7207189Y-10646169D01*
X-7207153Y-10646113D01*
X-7200908Y-10649965D01*
X-7200905Y-10649967D01*
X-7132214Y-10681998D01*
X-7128916Y-10683595D01*
X-7116385Y-10689888D01*
X-7061188Y-10717609D01*
X-7061186Y-10717609D01*
X-7054287Y-10720121D01*
X-7054311Y-10720185D01*
X-7047195Y-10722659D01*
X-7047173Y-10722595D01*
X-7040209Y-10724903D01*
X-6965937Y-10740238D01*
X-6962370Y-10741029D01*
X-6888656Y-10758500D01*
X-6888649Y-10758500D01*
X-6881367Y-10759352D01*
X-6881375Y-10759419D01*
X-6873878Y-10760185D01*
X-6873872Y-10760119D01*
X-6866565Y-10760757D01*
X-6866558Y-10760759D01*
X-6791811Y-10758584D01*
X-6790741Y-10758553D01*
X-6787077Y-10758500D01*
X-4309500Y-10758500D01*
X-4241379Y-10778502D01*
X-4194886Y-10832158D01*
X-4183500Y-10884500D01*
X-4183500Y-11548649D01*
X-4176991Y-11609196D01*
X-4176989Y-11609204D01*
X-4125890Y-11746202D01*
X-4125888Y-11746207D01*
X-4105837Y-11772991D01*
X-4081026Y-11839511D01*
X-4096117Y-11908885D01*
X-4146319Y-11959087D01*
X-4206705Y-11974500D01*
X-11848500Y-11974500D01*
X-11916621Y-11954498D01*
X-11963114Y-11900842D01*
X-11974500Y-11848500D01*
X-11974500Y-3034275D01*
X-11954498Y-2966154D01*
X-11900842Y-2919661D01*
X-11830568Y-2909557D01*
X-11772991Y-2933407D01*
G37*
%TD.AperFunction*%
%TA.AperFunction,Conductor*%
G36*
X-2166379Y10071498D02*
G01*
X-2119886Y10017842D01*
X-2108500Y9965500D01*
X-2108500Y6264441D01*
X-2109830Y6246181D01*
X-2113341Y6222214D01*
X-2113341Y6222205D01*
X-2108980Y6172367D01*
X-2108500Y6161384D01*
X-2108500Y6155815D01*
X-2104865Y6124711D01*
X-2104493Y6121068D01*
X-2097889Y6045582D01*
X-2096404Y6038394D01*
X-2096469Y6038381D01*
X-2094835Y6031011D01*
X-2094771Y6031025D01*
X-2093079Y6023884D01*
X-2067154Y5952658D01*
X-2065951Y5949196D01*
X-2042116Y5877265D01*
X-2039013Y5870612D01*
X-2039074Y5870584D01*
X-2035789Y5863798D01*
X-2035730Y5863827D01*
X-2032437Y5857270D01*
X-1990768Y5793916D01*
X-1988829Y5790873D01*
X-1949030Y5726349D01*
X-1949028Y5726346D01*
X-1944478Y5720592D01*
X-1944532Y5720550D01*
X-1939772Y5714708D01*
X-1939721Y5714750D01*
X-1935003Y5709128D01*
X-1879845Y5657089D01*
X-1877216Y5654535D01*
X-1666730Y5444049D01*
X-1632704Y5381737D01*
X-1637769Y5310922D01*
X-1680316Y5254086D01*
X-1713849Y5236152D01*
X-2055536Y5115426D01*
X-2055552Y5115420D01*
X-2481958Y4922671D01*
X-2890489Y4694452D01*
X-2890494Y4694450D01*
X-3278184Y4432417D01*
X-3278190Y4432412D01*
X-3642285Y4138426D01*
X-3712205Y4071415D01*
X-3712205Y4071414D01*
X-1Y359210D01*
X1Y359210D01*
X3712203Y4071414D01*
X3642278Y4138432D01*
X3278189Y4432412D01*
X3278183Y4432417D01*
X2890493Y4694450D01*
X2890488Y4694452D01*
X2481957Y4922671D01*
X2055553Y5115418D01*
X1614315Y5271318D01*
X1161473Y5389229D01*
X1161462Y5389232D01*
X700247Y5468314D01*
X233989Y5508000D01*
X-80377Y5508000D01*
X-148498Y5528002D01*
X-194991Y5581658D01*
X-205095Y5651932D01*
X-205047Y5652262D01*
X-204340Y5657089D01*
X-186659Y5777789D01*
X-202113Y5954427D01*
X-202114Y5954430D01*
X-202114Y5954432D01*
X-257885Y6122736D01*
X-257886Y6122737D01*
X-257886Y6122739D01*
X-350971Y6273652D01*
X-350972Y6273653D01*
X-350977Y6273659D01*
X-554595Y6477277D01*
X-588621Y6539589D01*
X-591500Y6566372D01*
X-591500Y9965500D01*
X-571498Y10033621D01*
X-517842Y10080114D01*
X-465500Y10091500D01*
X5283629Y10091500D01*
X5351750Y10071498D01*
X5372724Y10054595D01*
X10079595Y5347724D01*
X10113621Y5285412D01*
X10116500Y5258629D01*
X10116500Y3099887D01*
X10096498Y3031766D01*
X10059935Y2997725D01*
X10061010Y2996289D01*
X9936738Y2903262D01*
X9849112Y2786208D01*
X9849110Y2786203D01*
X9798011Y2649205D01*
X9798009Y2649197D01*
X9791500Y2588650D01*
X9791500Y-2588649D01*
X9798009Y-2649196D01*
X9798011Y-2649204D01*
X9849110Y-2786202D01*
X9849112Y-2786207D01*
X9936738Y-2903261D01*
X10053792Y-2990887D01*
X10053794Y-2990888D01*
X10053796Y-2990889D01*
X10059534Y-2993029D01*
X10190795Y-3041988D01*
X10190803Y-3041990D01*
X10251350Y-3048499D01*
X10251355Y-3048499D01*
X10251362Y-3048500D01*
X10251368Y-3048500D01*
X11498632Y-3048500D01*
X11498638Y-3048500D01*
X11498645Y-3048499D01*
X11498649Y-3048499D01*
X11559196Y-3041990D01*
X11559199Y-3041989D01*
X11559201Y-3041989D01*
X11696204Y-2990889D01*
X11718914Y-2973889D01*
X11772991Y-2933407D01*
X11839511Y-2908596D01*
X11908885Y-2923687D01*
X11959087Y-2973889D01*
X11974500Y-3034275D01*
X11974500Y-11848500D01*
X11954498Y-11916621D01*
X11900842Y-11963114D01*
X11848500Y-11974500D01*
X3928633Y-11974500D01*
X3860512Y-11954498D01*
X3814019Y-11900842D01*
X3803915Y-11830568D01*
X3833409Y-11765988D01*
X3848699Y-11751101D01*
X3891211Y-11716211D01*
X4017175Y-11562724D01*
X4110775Y-11387612D01*
X4110776Y-11387610D01*
X4151307Y-11254000D01*
X3385059Y-11254000D01*
X3387129Y-11252805D01*
X3460801Y-11165007D01*
X3500000Y-11057306D01*
X3500000Y-10942694D01*
X3460801Y-10834993D01*
X3387129Y-10747195D01*
X3287871Y-10689888D01*
X3203436Y-10675000D01*
X3146564Y-10675000D01*
X3062129Y-10689888D01*
X2962871Y-10747195D01*
X2921000Y-10797094D01*
X2921000Y-10023693D01*
X2920999Y-10023692D01*
X3429000Y-10023692D01*
X3429000Y-10746000D01*
X4151307Y-10746000D01*
X4151307Y-10745999D01*
X4110776Y-10612389D01*
X4110775Y-10612387D01*
X4017175Y-10437275D01*
X3891211Y-10283788D01*
X3737724Y-10157824D01*
X3562612Y-10064224D01*
X3562610Y-10064223D01*
X3429000Y-10023692D01*
X2920999Y-10023692D01*
X2787389Y-10064223D01*
X2787387Y-10064224D01*
X2612271Y-10157826D01*
X2610446Y-10159046D01*
X2609345Y-10159390D01*
X2606817Y-10160742D01*
X2606560Y-10160262D01*
X2542691Y-10180255D01*
X2474226Y-10161466D01*
X2470453Y-10159041D01*
X2468007Y-10157406D01*
X2292804Y-10063759D01*
X2102701Y-10006092D01*
X2102700Y-10006091D01*
X2102694Y-10006090D01*
X1905003Y-9986620D01*
X1904997Y-9986620D01*
X1707305Y-10006090D01*
X1517195Y-10063759D01*
X1341991Y-10157407D01*
X1339997Y-10158740D01*
X1338793Y-10159116D01*
X1336537Y-10160323D01*
X1336308Y-10159894D01*
X1272243Y-10179952D01*
X1203777Y-10161166D01*
X1200003Y-10158740D01*
X1198008Y-10157407D01*
X1022804Y-10063759D01*
X832701Y-10006092D01*
X832700Y-10006091D01*
X832694Y-10006090D01*
X635003Y-9986620D01*
X634997Y-9986620D01*
X437305Y-10006090D01*
X247195Y-10063759D01*
X158896Y-10110956D01*
X89390Y-10125428D01*
X23094Y-10100024D01*
X-18944Y-10042811D01*
X-26500Y-9999834D01*
X-26500Y-9813143D01*
X-25422Y-9796696D01*
X-21249Y-9764999D01*
X-24003Y-9744086D01*
X-42162Y-9606150D01*
X-64812Y-9551468D01*
X-103475Y-9458124D01*
X-179003Y-9359695D01*
X-179033Y-9359658D01*
X-201013Y-9331013D01*
X-226382Y-9311546D01*
X-238771Y-9300680D01*
X-585185Y-8954266D01*
X-596053Y-8941874D01*
X-615513Y-8916513D01*
X-647426Y-8892025D01*
X-647426Y-8892024D01*
X-742618Y-8818980D01*
X-742626Y-8818975D01*
X-890649Y-8757662D01*
X-910042Y-8755107D01*
X-910042Y-8755108D01*
X-1013697Y-8741462D01*
X-1013724Y-8741459D01*
X-1049497Y-8736750D01*
X-1049500Y-8736750D01*
X-1081191Y-8740922D01*
X-1097637Y-8742000D01*
X-2652369Y-8742000D01*
X-2720490Y-8721998D01*
X-2741464Y-8705095D01*
X-3114498Y-8332061D01*
X-3143215Y-8287646D01*
X-3196600Y-8146880D01*
X-3196600Y-8146879D01*
X-3294339Y-8005281D01*
X-3423124Y-7891187D01*
X-3423125Y-7891186D01*
X-3423128Y-7891184D01*
X-3575467Y-7811231D01*
X-3575475Y-7811227D01*
X-3742523Y-7770054D01*
X-3742526Y-7770054D01*
X-3914582Y-7770054D01*
X-3914586Y-7770054D01*
X-4081634Y-7811227D01*
X-4081642Y-7811231D01*
X-4233981Y-7891184D01*
X-4233986Y-7891188D01*
X-4362769Y-8005281D01*
X-4460509Y-8146880D01*
X-4521520Y-8307754D01*
X-4542258Y-8478550D01*
X-4542258Y-8478557D01*
X-4521520Y-8649353D01*
X-4481412Y-8755108D01*
X-4460508Y-8810229D01*
X-4362769Y-8951827D01*
X-4284475Y-9021189D01*
X-4246751Y-9081332D01*
X-4247531Y-9152324D01*
X-4286569Y-9211625D01*
X-4351469Y-9240407D01*
X-4368030Y-9241500D01*
X-6433629Y-9241500D01*
X-6501750Y-9221498D01*
X-6522724Y-9204595D01*
X-10054595Y-5672724D01*
X-10088621Y-5610412D01*
X-10091500Y-5583629D01*
X-10091500Y-4071412D01*
X-3712205Y-4071412D01*
X-3642279Y-4138431D01*
X-3278190Y-4432411D01*
X-3278184Y-4432416D01*
X-2890494Y-4694449D01*
X-2890489Y-4694451D01*
X-2481958Y-4922670D01*
X-2055554Y-5115417D01*
X-1614316Y-5271317D01*
X-1161474Y-5389228D01*
X-1161463Y-5389231D01*
X-700248Y-5468313D01*
X-233990Y-5507999D01*
X-233967Y-5508000D01*
X233967Y-5508000D01*
X233989Y-5507999D01*
X700247Y-5468313D01*
X1161462Y-5389231D01*
X1161473Y-5389228D01*
X1614315Y-5271317D01*
X2055553Y-5115417D01*
X2481957Y-4922670D01*
X2890488Y-4694451D01*
X2890493Y-4694449D01*
X3278183Y-4432416D01*
X3278189Y-4432411D01*
X3642290Y-4138420D01*
X3712202Y-4071413D01*
X3712203Y-4071412D01*
X1Y-359210D01*
X-1Y-359210D01*
X-3712205Y-4071412D01*
X-10091500Y-4071412D01*
X-10091500Y-3082185D01*
X-10071498Y-3014064D01*
X-10041009Y-2981317D01*
X-9936739Y-2903261D01*
X-9849113Y-2786207D01*
X-9849113Y-2786206D01*
X-9849111Y-2786204D01*
X-9798011Y-2649201D01*
X-9791500Y-2588638D01*
X-9791500Y-10D01*
X-5512967Y-10D01*
X-5493108Y-467507D01*
X-5493104Y-467551D01*
X-5433671Y-931683D01*
X-5433668Y-931701D01*
X-5335080Y-1389147D01*
X-5198054Y-1836582D01*
X-5198053Y-1836586D01*
X-5023580Y-2270783D01*
X-5023574Y-2270795D01*
X-4812896Y-2688648D01*
X-4812895Y-2688650D01*
X-4567549Y-3087119D01*
X-4289288Y-3463352D01*
X-4289284Y-3463357D01*
X-4070807Y-3711595D01*
X-4070807Y-3711596D01*
X-359211Y-1D01*
X359210Y-1D01*
X4070805Y-3711596D01*
X4070805Y-3711595D01*
X4289283Y-3463357D01*
X4289287Y-3463352D01*
X4567548Y-3087119D01*
X4812894Y-2688650D01*
X4812895Y-2688648D01*
X5023573Y-2270795D01*
X5023579Y-2270783D01*
X5198052Y-1836586D01*
X5198053Y-1836582D01*
X5335079Y-1389147D01*
X5433667Y-931701D01*
X5433670Y-931683D01*
X5493103Y-467551D01*
X5493107Y-467507D01*
X5512967Y-10D01*
X5512967Y11D01*
X5493107Y467508D01*
X5493103Y467552D01*
X5433670Y931684D01*
X5433667Y931702D01*
X5335079Y1389148D01*
X5198053Y1836583D01*
X5198052Y1836587D01*
X5023579Y2270784D01*
X5023573Y2270796D01*
X4812895Y2688649D01*
X4812894Y2688651D01*
X4567548Y3087120D01*
X4289287Y3463353D01*
X4289283Y3463358D01*
X4070805Y3711597D01*
X4070805Y3711598D01*
X359210Y2D01*
X359210Y-1D01*
X-359211Y-1D01*
X-359210Y0D01*
X-359210Y1D01*
X-4070807Y3711598D01*
X-4070807Y3711597D01*
X-4289281Y3463361D01*
X-4567549Y3087120D01*
X-4812895Y2688651D01*
X-4812896Y2688649D01*
X-5023574Y2270796D01*
X-5023580Y2270784D01*
X-5198053Y1836587D01*
X-5198054Y1836583D01*
X-5335080Y1389148D01*
X-5433668Y931702D01*
X-5433671Y931684D01*
X-5493104Y467552D01*
X-5493108Y467508D01*
X-5512967Y11D01*
X-5512967Y-10D01*
X-9791500Y-10D01*
X-9791500Y2588638D01*
X-9791501Y2588650D01*
X-9798010Y2649197D01*
X-9798012Y2649205D01*
X-9849111Y2786203D01*
X-9849113Y2786208D01*
X-9936739Y2903262D01*
X-10061010Y2996289D01*
X-10059669Y2998082D01*
X-10101091Y3039507D01*
X-10116500Y3099887D01*
X-10116500Y5777177D01*
X-10096498Y5845298D01*
X-10079595Y5866272D01*
X-5891272Y10054595D01*
X-5828960Y10088621D01*
X-5802177Y10091500D01*
X-2234500Y10091500D01*
X-2166379Y10071498D01*
G37*
%TD.AperFunction*%
%TA.AperFunction,Conductor*%
G36*
X11916621Y11954498D02*
G01*
X11963114Y11900842D01*
X11974500Y11848500D01*
X11974500Y3034275D01*
X11954498Y2966154D01*
X11900842Y2919661D01*
X11830568Y2909557D01*
X11772991Y2933407D01*
X11688990Y2996289D01*
X11690331Y2998082D01*
X11648909Y3039507D01*
X11633500Y3099887D01*
X11633500Y5560559D01*
X11634830Y5578818D01*
X11635940Y5586400D01*
X11638341Y5602789D01*
X11634712Y5644260D01*
X11633979Y5652648D01*
X11633500Y5663628D01*
X11633500Y5669187D01*
X11629866Y5700266D01*
X11629496Y5703878D01*
X11622887Y5779426D01*
X11622885Y5779430D01*
X11621403Y5786612D01*
X11621469Y5786626D01*
X11619837Y5793988D01*
X11619772Y5793972D01*
X11618081Y5801107D01*
X11607795Y5829367D01*
X11592139Y5872380D01*
X11590952Y5875797D01*
X11590466Y5877265D01*
X11567114Y5947738D01*
X11567109Y5947745D01*
X11564012Y5954389D01*
X11564074Y5954419D01*
X11560788Y5961205D01*
X11560728Y5961174D01*
X11557433Y5967735D01*
X11515776Y6031070D01*
X11513812Y6034154D01*
X11474032Y6098649D01*
X11469478Y6104408D01*
X11469531Y6104451D01*
X11464766Y6110300D01*
X11464715Y6110256D01*
X11459998Y6115878D01*
X11404826Y6167930D01*
X11402197Y6170484D01*
X6231908Y11340773D01*
X6219936Y11354625D01*
X6205469Y11374058D01*
X6205467Y11374060D01*
X6167129Y11406230D01*
X6159027Y11413655D01*
X6155106Y11417576D01*
X6130528Y11437011D01*
X6127691Y11439322D01*
X6069635Y11488036D01*
X6063506Y11492067D01*
X6063541Y11492122D01*
X6057187Y11496171D01*
X6057153Y11496114D01*
X6050906Y11499967D01*
X5982205Y11532004D01*
X5978909Y11533599D01*
X5974546Y11535790D01*
X5911188Y11567609D01*
X5911186Y11567610D01*
X5911183Y11567611D01*
X5904289Y11570120D01*
X5904311Y11570183D01*
X5897189Y11572659D01*
X5897169Y11572596D01*
X5890211Y11574902D01*
X5815942Y11590238D01*
X5812367Y11591031D01*
X5738656Y11608500D01*
X5731367Y11609352D01*
X5731374Y11609420D01*
X5723877Y11610186D01*
X5723872Y11610119D01*
X5716559Y11610759D01*
X5716558Y11610759D01*
X5684630Y11609830D01*
X5640741Y11608553D01*
X5637077Y11608500D01*
X-1324256Y11608500D01*
X-1331581Y11608713D01*
X-1344379Y11609459D01*
X-1394399Y11612372D01*
X-1394407Y11612372D01*
X-1405509Y11610414D01*
X-1427387Y11608500D01*
X-6104107Y11608500D01*
X-6122367Y11609830D01*
X-6146336Y11613341D01*
X-6146337Y11613341D01*
X-6191931Y11609352D01*
X-6196194Y11608979D01*
X-6207175Y11608500D01*
X-6212734Y11608500D01*
X-6243839Y11604865D01*
X-6247481Y11604493D01*
X-6322971Y11597888D01*
X-6330162Y11596403D01*
X-6330176Y11596468D01*
X-6337534Y11594837D01*
X-6337518Y11594772D01*
X-6344657Y11593080D01*
X-6344660Y11593080D01*
X-6344661Y11593079D01*
X-6374392Y11582259D01*
X-6415894Y11567154D01*
X-6419350Y11565953D01*
X-6491289Y11542114D01*
X-6497935Y11539014D01*
X-6497963Y11539074D01*
X-6504747Y11535790D01*
X-6504717Y11535731D01*
X-6511280Y11532435D01*
X-6574617Y11490779D01*
X-6577704Y11488813D01*
X-6642197Y11449032D01*
X-6647956Y11444478D01*
X-6647997Y11444530D01*
X-6653844Y11439767D01*
X-6653802Y11439717D01*
X-6659420Y11435004D01*
X-6711461Y11379844D01*
X-6714014Y11377217D01*
X-11365775Y6725456D01*
X-11379624Y6713486D01*
X-11399057Y6699019D01*
X-11431229Y6660678D01*
X-11438640Y6652590D01*
X-11442580Y6648650D01*
X-11442586Y6648643D01*
X-11462003Y6624088D01*
X-11464311Y6621254D01*
X-11513036Y6563184D01*
X-11517065Y6557057D01*
X-11517120Y6557093D01*
X-11521175Y6550728D01*
X-11521118Y6550693D01*
X-11524970Y6544450D01*
X-11557004Y6475754D01*
X-11558599Y6472461D01*
X-11592606Y6404743D01*
X-11595118Y6397841D01*
X-11595180Y6397864D01*
X-11597657Y6390738D01*
X-11597596Y6390717D01*
X-11599904Y6383753D01*
X-11615241Y6309484D01*
X-11616033Y6305911D01*
X-11633500Y6232208D01*
X-11634352Y6224914D01*
X-11634419Y6224922D01*
X-11635186Y6217422D01*
X-11635119Y6217416D01*
X-11635759Y6210106D01*
X-11633553Y6134290D01*
X-11633500Y6130626D01*
X-11633500Y3099887D01*
X-11653502Y3031766D01*
X-11690065Y2997725D01*
X-11688990Y2996289D01*
X-11772991Y2933407D01*
X-11839512Y2908596D01*
X-11908886Y2923688D01*
X-11959088Y2973890D01*
X-11974500Y3034275D01*
X-11974500Y11848500D01*
X-11954498Y11916621D01*
X-11900842Y11963114D01*
X-11848500Y11974500D01*
X11848500Y11974500D01*
X11916621Y11954498D01*
G37*
%TD.AperFunction*%
%TD*%
M02*
