%TF.GenerationSoftware,KiCad,Pcbnew,7.0.10*%
%TF.CreationDate,2026-01-16T16:27:33+08:00*%
%TF.ProjectId,NeepNeep-DAC-V1,4e656570-4e65-4657-902d-4441432d5631,rev?*%
%TF.SameCoordinates,Original*%
%TF.FileFunction,Legend,Top*%
%TF.FilePolarity,Positive*%
%FSLAX46Y46*%
G04 Gerber Fmt 4.6, Leading zero omitted, Abs format (unit mm)*
G04 Created by KiCad (PCBNEW 7.0.10) date 2026-01-16 16:27:33*
%MOMM*%
%LPD*%
G01*
G04 APERTURE LIST*
G04 Aperture macros list*
%AMRoundRect*
0 Rectangle with rounded corners*
0 $1 Rounding radius*
0 $2 $3 $4 $5 $6 $7 $8 $9 X,Y pos of 4 corners*
0 Add a 4 corners polygon primitive as box body*
4,1,4,$2,$3,$4,$5,$6,$7,$8,$9,$2,$3,0*
0 Add four circle primitives for the rounded corners*
1,1,$1+$1,$2,$3*
1,1,$1+$1,$4,$5*
1,1,$1+$1,$6,$7*
1,1,$1+$1,$8,$9*
0 Add four rect primitives between the rounded corners*
20,1,$1+$1,$2,$3,$4,$5,0*
20,1,$1+$1,$4,$5,$6,$7,0*
20,1,$1+$1,$6,$7,$8,$9,0*
20,1,$1+$1,$8,$9,$2,$3,0*%
G04 Aperture macros list end*
%ADD10C,0.150000*%
%ADD11C,0.100000*%
%ADD12C,0.250000*%
%ADD13C,0.120000*%
%ADD14R,2.000000X3.000000*%
%ADD15RoundRect,0.250000X-0.475000X0.250000X-0.475000X-0.250000X0.475000X-0.250000X0.475000X0.250000X0*%
%ADD16RoundRect,0.250000X-0.450000X0.262500X-0.450000X-0.262500X0.450000X-0.262500X0.450000X0.262500X0*%
%ADD17RoundRect,0.225000X-0.225000X-0.375000X0.225000X-0.375000X0.225000X0.375000X-0.225000X0.375000X0*%
%ADD18R,1.700000X0.650000*%
%ADD19RoundRect,0.150000X-0.650000X-0.150000X0.650000X-0.150000X0.650000X0.150000X-0.650000X0.150000X0*%
%ADD20RoundRect,0.225000X0.375000X-0.225000X0.375000X0.225000X-0.375000X0.225000X-0.375000X-0.225000X0*%
%ADD21RoundRect,0.250000X-0.262500X-0.450000X0.262500X-0.450000X0.262500X0.450000X-0.262500X0.450000X0*%
%ADD22RoundRect,0.150000X0.150000X-0.587500X0.150000X0.587500X-0.150000X0.587500X-0.150000X-0.587500X0*%
%ADD23R,1.000000X1.000000*%
%ADD24O,1.000000X1.000000*%
G04 APERTURE END LIST*
D10*
X1916666Y268991D02*
X2059523Y221372D01*
X2059523Y221372D02*
X2107142Y173753D01*
X2107142Y173753D02*
X2154761Y78515D01*
X2154761Y78515D02*
X2154761Y-64342D01*
X2154761Y-64342D02*
X2107142Y-159580D01*
X2107142Y-159580D02*
X2059523Y-207200D01*
X2059523Y-207200D02*
X1964285Y-254819D01*
X1964285Y-254819D02*
X1583333Y-254819D01*
X1583333Y-254819D02*
X1583333Y745181D01*
X1583333Y745181D02*
X1916666Y745181D01*
X1916666Y745181D02*
X2011904Y697562D01*
X2011904Y697562D02*
X2059523Y649943D01*
X2059523Y649943D02*
X2107142Y554705D01*
X2107142Y554705D02*
X2107142Y459467D01*
X2107142Y459467D02*
X2059523Y364229D01*
X2059523Y364229D02*
X2011904Y316610D01*
X2011904Y316610D02*
X1916666Y268991D01*
X1916666Y268991D02*
X1583333Y268991D01*
X2583333Y745181D02*
X2583333Y-64342D01*
X2583333Y-64342D02*
X2630952Y-159580D01*
X2630952Y-159580D02*
X2678571Y-207200D01*
X2678571Y-207200D02*
X2773809Y-254819D01*
X2773809Y-254819D02*
X2964285Y-254819D01*
X2964285Y-254819D02*
X3059523Y-207200D01*
X3059523Y-207200D02*
X3107142Y-159580D01*
X3107142Y-159580D02*
X3154761Y-64342D01*
X3154761Y-64342D02*
X3154761Y745181D01*
X3535714Y745181D02*
X4202380Y745181D01*
X4202380Y745181D02*
X3535714Y-254819D01*
X3535714Y-254819D02*
X4202380Y-254819D01*
X4488095Y745181D02*
X5154761Y745181D01*
X5154761Y745181D02*
X4488095Y-254819D01*
X4488095Y-254819D02*
X5154761Y-254819D01*
X5535714Y268991D02*
X5869047Y268991D01*
X6011904Y-254819D02*
X5535714Y-254819D01*
X5535714Y-254819D02*
X5535714Y745181D01*
X5535714Y745181D02*
X6011904Y745181D01*
X7011904Y-254819D02*
X6678571Y221372D01*
X6440476Y-254819D02*
X6440476Y745181D01*
X6440476Y745181D02*
X6821428Y745181D01*
X6821428Y745181D02*
X6916666Y697562D01*
X6916666Y697562D02*
X6964285Y649943D01*
X6964285Y649943D02*
X7011904Y554705D01*
X7011904Y554705D02*
X7011904Y411848D01*
X7011904Y411848D02*
X6964285Y316610D01*
X6964285Y316610D02*
X6916666Y268991D01*
X6916666Y268991D02*
X6821428Y221372D01*
X6821428Y221372D02*
X6440476Y221372D01*
X7964285Y-254819D02*
X7392857Y-254819D01*
X7678571Y-254819D02*
X7678571Y745181D01*
X7678571Y745181D02*
X7583333Y602324D01*
X7583333Y602324D02*
X7488095Y507086D01*
X7488095Y507086D02*
X7392857Y459467D01*
D11*
X-6111296Y-9333332D02*
X-6073200Y-9371428D01*
X-6073200Y-9371428D02*
X-6035105Y-9485713D01*
X-6035105Y-9485713D02*
X-6035105Y-9561904D01*
X-6035105Y-9561904D02*
X-6073200Y-9676190D01*
X-6073200Y-9676190D02*
X-6149391Y-9752380D01*
X-6149391Y-9752380D02*
X-6225581Y-9790475D01*
X-6225581Y-9790475D02*
X-6377962Y-9828571D01*
X-6377962Y-9828571D02*
X-6492248Y-9828571D01*
X-6492248Y-9828571D02*
X-6644629Y-9790475D01*
X-6644629Y-9790475D02*
X-6720820Y-9752380D01*
X-6720820Y-9752380D02*
X-6797010Y-9676190D01*
X-6797010Y-9676190D02*
X-6835105Y-9561904D01*
X-6835105Y-9561904D02*
X-6835105Y-9485713D01*
X-6835105Y-9485713D02*
X-6797010Y-9371428D01*
X-6797010Y-9371428D02*
X-6758915Y-9333332D01*
X-6568439Y-8647618D02*
X-6035105Y-8647618D01*
X-6873200Y-8838094D02*
X-6301772Y-9028571D01*
X-6301772Y-9028571D02*
X-6301772Y-8533332D01*
X7816667Y6861296D02*
X7778571Y6823200D01*
X7778571Y6823200D02*
X7664286Y6785105D01*
X7664286Y6785105D02*
X7588095Y6785105D01*
X7588095Y6785105D02*
X7473809Y6823200D01*
X7473809Y6823200D02*
X7397619Y6899391D01*
X7397619Y6899391D02*
X7359524Y6975581D01*
X7359524Y6975581D02*
X7321428Y7127962D01*
X7321428Y7127962D02*
X7321428Y7242248D01*
X7321428Y7242248D02*
X7359524Y7394629D01*
X7359524Y7394629D02*
X7397619Y7470820D01*
X7397619Y7470820D02*
X7473809Y7547010D01*
X7473809Y7547010D02*
X7588095Y7585105D01*
X7588095Y7585105D02*
X7664286Y7585105D01*
X7664286Y7585105D02*
X7778571Y7547010D01*
X7778571Y7547010D02*
X7816667Y7508915D01*
X8083333Y7585105D02*
X8578571Y7585105D01*
X8578571Y7585105D02*
X8311905Y7280343D01*
X8311905Y7280343D02*
X8426190Y7280343D01*
X8426190Y7280343D02*
X8502381Y7242248D01*
X8502381Y7242248D02*
X8540476Y7204153D01*
X8540476Y7204153D02*
X8578571Y7127962D01*
X8578571Y7127962D02*
X8578571Y6937486D01*
X8578571Y6937486D02*
X8540476Y6861296D01*
X8540476Y6861296D02*
X8502381Y6823200D01*
X8502381Y6823200D02*
X8426190Y6785105D01*
X8426190Y6785105D02*
X8197619Y6785105D01*
X8197619Y6785105D02*
X8121428Y6823200D01*
X8121428Y6823200D02*
X8083333Y6861296D01*
X-5583333Y7085105D02*
X-5850000Y7466058D01*
X-6040476Y7085105D02*
X-6040476Y7885105D01*
X-6040476Y7885105D02*
X-5735714Y7885105D01*
X-5735714Y7885105D02*
X-5659524Y7847010D01*
X-5659524Y7847010D02*
X-5621429Y7808915D01*
X-5621429Y7808915D02*
X-5583333Y7732724D01*
X-5583333Y7732724D02*
X-5583333Y7618439D01*
X-5583333Y7618439D02*
X-5621429Y7542248D01*
X-5621429Y7542248D02*
X-5659524Y7504153D01*
X-5659524Y7504153D02*
X-5735714Y7466058D01*
X-5735714Y7466058D02*
X-6040476Y7466058D01*
X-5316667Y7885105D02*
X-4821429Y7885105D01*
X-4821429Y7885105D02*
X-5088095Y7580343D01*
X-5088095Y7580343D02*
X-4973810Y7580343D01*
X-4973810Y7580343D02*
X-4897619Y7542248D01*
X-4897619Y7542248D02*
X-4859524Y7504153D01*
X-4859524Y7504153D02*
X-4821429Y7427962D01*
X-4821429Y7427962D02*
X-4821429Y7237486D01*
X-4821429Y7237486D02*
X-4859524Y7161296D01*
X-4859524Y7161296D02*
X-4897619Y7123200D01*
X-4897619Y7123200D02*
X-4973810Y7085105D01*
X-4973810Y7085105D02*
X-5202381Y7085105D01*
X-5202381Y7085105D02*
X-5278572Y7123200D01*
X-5278572Y7123200D02*
X-5316667Y7161296D01*
X-2083333Y7185105D02*
X-2350000Y7566058D01*
X-2540476Y7185105D02*
X-2540476Y7985105D01*
X-2540476Y7985105D02*
X-2235714Y7985105D01*
X-2235714Y7985105D02*
X-2159524Y7947010D01*
X-2159524Y7947010D02*
X-2121429Y7908915D01*
X-2121429Y7908915D02*
X-2083333Y7832724D01*
X-2083333Y7832724D02*
X-2083333Y7718439D01*
X-2083333Y7718439D02*
X-2121429Y7642248D01*
X-2121429Y7642248D02*
X-2159524Y7604153D01*
X-2159524Y7604153D02*
X-2235714Y7566058D01*
X-2235714Y7566058D02*
X-2540476Y7566058D01*
X-1778572Y7908915D02*
X-1740476Y7947010D01*
X-1740476Y7947010D02*
X-1664286Y7985105D01*
X-1664286Y7985105D02*
X-1473810Y7985105D01*
X-1473810Y7985105D02*
X-1397619Y7947010D01*
X-1397619Y7947010D02*
X-1359524Y7908915D01*
X-1359524Y7908915D02*
X-1321429Y7832724D01*
X-1321429Y7832724D02*
X-1321429Y7756534D01*
X-1321429Y7756534D02*
X-1359524Y7642248D01*
X-1359524Y7642248D02*
X-1816667Y7185105D01*
X-1816667Y7185105D02*
X-1321429Y7185105D01*
X-7583333Y7135105D02*
X-7850000Y7516058D01*
X-8040476Y7135105D02*
X-8040476Y7935105D01*
X-8040476Y7935105D02*
X-7735714Y7935105D01*
X-7735714Y7935105D02*
X-7659524Y7897010D01*
X-7659524Y7897010D02*
X-7621429Y7858915D01*
X-7621429Y7858915D02*
X-7583333Y7782724D01*
X-7583333Y7782724D02*
X-7583333Y7668439D01*
X-7583333Y7668439D02*
X-7621429Y7592248D01*
X-7621429Y7592248D02*
X-7659524Y7554153D01*
X-7659524Y7554153D02*
X-7735714Y7516058D01*
X-7735714Y7516058D02*
X-8040476Y7516058D01*
X-6821429Y7135105D02*
X-7278572Y7135105D01*
X-7050000Y7135105D02*
X-7050000Y7935105D01*
X-7050000Y7935105D02*
X-7126191Y7820820D01*
X-7126191Y7820820D02*
X-7202381Y7744629D01*
X-7202381Y7744629D02*
X-7278572Y7706534D01*
X-4440476Y-664895D02*
X-4440476Y135105D01*
X-4440476Y135105D02*
X-4250000Y135105D01*
X-4250000Y135105D02*
X-4135714Y97010D01*
X-4135714Y97010D02*
X-4059524Y20820D01*
X-4059524Y20820D02*
X-4021429Y-55371D01*
X-4021429Y-55371D02*
X-3983333Y-207752D01*
X-3983333Y-207752D02*
X-3983333Y-322038D01*
X-3983333Y-322038D02*
X-4021429Y-474419D01*
X-4021429Y-474419D02*
X-4059524Y-550609D01*
X-4059524Y-550609D02*
X-4135714Y-626800D01*
X-4135714Y-626800D02*
X-4250000Y-664895D01*
X-4250000Y-664895D02*
X-4440476Y-664895D01*
X-3716667Y135105D02*
X-3221429Y135105D01*
X-3221429Y135105D02*
X-3488095Y-169657D01*
X-3488095Y-169657D02*
X-3373810Y-169657D01*
X-3373810Y-169657D02*
X-3297619Y-207752D01*
X-3297619Y-207752D02*
X-3259524Y-245847D01*
X-3259524Y-245847D02*
X-3221429Y-322038D01*
X-3221429Y-322038D02*
X-3221429Y-512514D01*
X-3221429Y-512514D02*
X-3259524Y-588704D01*
X-3259524Y-588704D02*
X-3297619Y-626800D01*
X-3297619Y-626800D02*
X-3373810Y-664895D01*
X-3373810Y-664895D02*
X-3602381Y-664895D01*
X-3602381Y-664895D02*
X-3678572Y-626800D01*
X-3678572Y-626800D02*
X-3716667Y-588704D01*
X-9390476Y-714895D02*
X-9390476Y85105D01*
X-9390476Y85105D02*
X-9200000Y85105D01*
X-9200000Y85105D02*
X-9085714Y47010D01*
X-9085714Y47010D02*
X-9009524Y-29180D01*
X-9009524Y-29180D02*
X-8971429Y-105371D01*
X-8971429Y-105371D02*
X-8933333Y-257752D01*
X-8933333Y-257752D02*
X-8933333Y-372038D01*
X-8933333Y-372038D02*
X-8971429Y-524419D01*
X-8971429Y-524419D02*
X-9009524Y-600609D01*
X-9009524Y-600609D02*
X-9085714Y-676800D01*
X-9085714Y-676800D02*
X-9200000Y-714895D01*
X-9200000Y-714895D02*
X-9390476Y-714895D01*
X-8628572Y8915D02*
X-8590476Y47010D01*
X-8590476Y47010D02*
X-8514286Y85105D01*
X-8514286Y85105D02*
X-8323810Y85105D01*
X-8323810Y85105D02*
X-8247619Y47010D01*
X-8247619Y47010D02*
X-8209524Y8915D01*
X-8209524Y8915D02*
X-8171429Y-67276D01*
X-8171429Y-67276D02*
X-8171429Y-143466D01*
X-8171429Y-143466D02*
X-8209524Y-257752D01*
X-8209524Y-257752D02*
X-8666667Y-714895D01*
X-8666667Y-714895D02*
X-8171429Y-714895D01*
X-6259524Y-7464895D02*
X-6259524Y-8112514D01*
X-6259524Y-8112514D02*
X-6221429Y-8188704D01*
X-6221429Y-8188704D02*
X-6183334Y-8226800D01*
X-6183334Y-8226800D02*
X-6107143Y-8264895D01*
X-6107143Y-8264895D02*
X-5954762Y-8264895D01*
X-5954762Y-8264895D02*
X-5878572Y-8226800D01*
X-5878572Y-8226800D02*
X-5840477Y-8188704D01*
X-5840477Y-8188704D02*
X-5802381Y-8112514D01*
X-5802381Y-8112514D02*
X-5802381Y-7464895D01*
X-5497620Y-7464895D02*
X-5002382Y-7464895D01*
X-5002382Y-7464895D02*
X-5269048Y-7769657D01*
X-5269048Y-7769657D02*
X-5154763Y-7769657D01*
X-5154763Y-7769657D02*
X-5078572Y-7807752D01*
X-5078572Y-7807752D02*
X-5040477Y-7845847D01*
X-5040477Y-7845847D02*
X-5002382Y-7922038D01*
X-5002382Y-7922038D02*
X-5002382Y-8112514D01*
X-5002382Y-8112514D02*
X-5040477Y-8188704D01*
X-5040477Y-8188704D02*
X-5078572Y-8226800D01*
X-5078572Y-8226800D02*
X-5154763Y-8264895D01*
X-5154763Y-8264895D02*
X-5383334Y-8264895D01*
X-5383334Y-8264895D02*
X-5459525Y-8226800D01*
X-5459525Y-8226800D02*
X-5497620Y-8188704D01*
X-10909524Y7885105D02*
X-10909524Y7237486D01*
X-10909524Y7237486D02*
X-10871429Y7161296D01*
X-10871429Y7161296D02*
X-10833334Y7123200D01*
X-10833334Y7123200D02*
X-10757143Y7085105D01*
X-10757143Y7085105D02*
X-10604762Y7085105D01*
X-10604762Y7085105D02*
X-10528572Y7123200D01*
X-10528572Y7123200D02*
X-10490477Y7161296D01*
X-10490477Y7161296D02*
X-10452381Y7237486D01*
X-10452381Y7237486D02*
X-10452381Y7885105D01*
X-10109525Y7808915D02*
X-10071429Y7847010D01*
X-10071429Y7847010D02*
X-9995239Y7885105D01*
X-9995239Y7885105D02*
X-9804763Y7885105D01*
X-9804763Y7885105D02*
X-9728572Y7847010D01*
X-9728572Y7847010D02*
X-9690477Y7808915D01*
X-9690477Y7808915D02*
X-9652382Y7732724D01*
X-9652382Y7732724D02*
X-9652382Y7656534D01*
X-9652382Y7656534D02*
X-9690477Y7542248D01*
X-9690477Y7542248D02*
X-10147620Y7085105D01*
X-10147620Y7085105D02*
X-9652382Y7085105D01*
X1514895Y8259525D02*
X714895Y8259525D01*
X714895Y8259525D02*
X714895Y8450001D01*
X714895Y8450001D02*
X752990Y8564287D01*
X752990Y8564287D02*
X829180Y8640477D01*
X829180Y8640477D02*
X905371Y8678572D01*
X905371Y8678572D02*
X1057752Y8716668D01*
X1057752Y8716668D02*
X1172038Y8716668D01*
X1172038Y8716668D02*
X1324419Y8678572D01*
X1324419Y8678572D02*
X1400609Y8640477D01*
X1400609Y8640477D02*
X1476800Y8564287D01*
X1476800Y8564287D02*
X1514895Y8450001D01*
X1514895Y8450001D02*
X1514895Y8259525D01*
X1514895Y9478572D02*
X1514895Y9021429D01*
X1514895Y9250001D02*
X714895Y9250001D01*
X714895Y9250001D02*
X829180Y9173810D01*
X829180Y9173810D02*
X905371Y9097620D01*
X905371Y9097620D02*
X943466Y9021429D01*
X3516667Y7011296D02*
X3478571Y6973200D01*
X3478571Y6973200D02*
X3364286Y6935105D01*
X3364286Y6935105D02*
X3288095Y6935105D01*
X3288095Y6935105D02*
X3173809Y6973200D01*
X3173809Y6973200D02*
X3097619Y7049391D01*
X3097619Y7049391D02*
X3059524Y7125581D01*
X3059524Y7125581D02*
X3021428Y7277962D01*
X3021428Y7277962D02*
X3021428Y7392248D01*
X3021428Y7392248D02*
X3059524Y7544629D01*
X3059524Y7544629D02*
X3097619Y7620820D01*
X3097619Y7620820D02*
X3173809Y7697010D01*
X3173809Y7697010D02*
X3288095Y7735105D01*
X3288095Y7735105D02*
X3364286Y7735105D01*
X3364286Y7735105D02*
X3478571Y7697010D01*
X3478571Y7697010D02*
X3516667Y7658915D01*
X4278571Y6935105D02*
X3821428Y6935105D01*
X4050000Y6935105D02*
X4050000Y7735105D01*
X4050000Y7735105D02*
X3973809Y7620820D01*
X3973809Y7620820D02*
X3897619Y7544629D01*
X3897619Y7544629D02*
X3821428Y7506534D01*
X8973809Y-11453585D02*
X8897619Y-11415490D01*
X8897619Y-11415490D02*
X8821428Y-11339300D01*
X8821428Y-11339300D02*
X8707142Y-11225014D01*
X8707142Y-11225014D02*
X8630952Y-11186919D01*
X8630952Y-11186919D02*
X8554761Y-11186919D01*
X8592857Y-11377395D02*
X8516666Y-11339300D01*
X8516666Y-11339300D02*
X8440476Y-11263109D01*
X8440476Y-11263109D02*
X8402380Y-11110728D01*
X8402380Y-11110728D02*
X8402380Y-10844061D01*
X8402380Y-10844061D02*
X8440476Y-10691680D01*
X8440476Y-10691680D02*
X8516666Y-10615490D01*
X8516666Y-10615490D02*
X8592857Y-10577395D01*
X8592857Y-10577395D02*
X8745238Y-10577395D01*
X8745238Y-10577395D02*
X8821428Y-10615490D01*
X8821428Y-10615490D02*
X8897619Y-10691680D01*
X8897619Y-10691680D02*
X8935714Y-10844061D01*
X8935714Y-10844061D02*
X8935714Y-11110728D01*
X8935714Y-11110728D02*
X8897619Y-11263109D01*
X8897619Y-11263109D02*
X8821428Y-11339300D01*
X8821428Y-11339300D02*
X8745238Y-11377395D01*
X8745238Y-11377395D02*
X8592857Y-11377395D01*
X9697618Y-11377395D02*
X9240475Y-11377395D01*
X9469047Y-11377395D02*
X9469047Y-10577395D01*
X9469047Y-10577395D02*
X9392856Y-10691680D01*
X9392856Y-10691680D02*
X9316666Y-10767871D01*
X9316666Y-10767871D02*
X9240475Y-10805966D01*
X199895Y-9956353D02*
X199895Y-9803972D01*
X199895Y-9803972D02*
X237990Y-9727782D01*
X237990Y-9727782D02*
X314180Y-9651591D01*
X314180Y-9651591D02*
X466561Y-9613496D01*
X466561Y-9613496D02*
X733228Y-9613496D01*
X733228Y-9613496D02*
X885609Y-9651591D01*
X885609Y-9651591D02*
X961800Y-9727782D01*
X961800Y-9727782D02*
X999895Y-9803972D01*
X999895Y-9803972D02*
X999895Y-9956353D01*
X999895Y-9956353D02*
X961800Y-10032544D01*
X961800Y-10032544D02*
X885609Y-10108734D01*
X885609Y-10108734D02*
X733228Y-10146830D01*
X733228Y-10146830D02*
X466561Y-10146830D01*
X466561Y-10146830D02*
X314180Y-10108734D01*
X314180Y-10108734D02*
X237990Y-10032544D01*
X237990Y-10032544D02*
X199895Y-9956353D01*
X2269895Y-9651591D02*
X1888942Y-9918258D01*
X2269895Y-10108734D02*
X1469895Y-10108734D01*
X1469895Y-10108734D02*
X1469895Y-9803972D01*
X1469895Y-9803972D02*
X1507990Y-9727782D01*
X1507990Y-9727782D02*
X1546085Y-9689687D01*
X1546085Y-9689687D02*
X1622276Y-9651591D01*
X1622276Y-9651591D02*
X1736561Y-9651591D01*
X1736561Y-9651591D02*
X1812752Y-9689687D01*
X1812752Y-9689687D02*
X1850847Y-9727782D01*
X1850847Y-9727782D02*
X1888942Y-9803972D01*
X1888942Y-9803972D02*
X1888942Y-10108734D01*
X-346296Y-9651591D02*
X-308200Y-9689687D01*
X-308200Y-9689687D02*
X-270105Y-9803972D01*
X-270105Y-9803972D02*
X-270105Y-9880163D01*
X-270105Y-9880163D02*
X-308200Y-9994449D01*
X-308200Y-9994449D02*
X-384391Y-10070639D01*
X-384391Y-10070639D02*
X-460581Y-10108734D01*
X-460581Y-10108734D02*
X-612962Y-10146830D01*
X-612962Y-10146830D02*
X-727248Y-10146830D01*
X-727248Y-10146830D02*
X-879629Y-10108734D01*
X-879629Y-10108734D02*
X-955820Y-10070639D01*
X-955820Y-10070639D02*
X-1032010Y-9994449D01*
X-1032010Y-9994449D02*
X-1070105Y-9880163D01*
X-1070105Y-9880163D02*
X-1070105Y-9803972D01*
X-1070105Y-9803972D02*
X-1032010Y-9689687D01*
X-1032010Y-9689687D02*
X-993915Y-9651591D01*
X2777990Y-9689687D02*
X2739895Y-9765877D01*
X2739895Y-9765877D02*
X2739895Y-9880163D01*
X2739895Y-9880163D02*
X2777990Y-9994449D01*
X2777990Y-9994449D02*
X2854180Y-10070639D01*
X2854180Y-10070639D02*
X2930371Y-10108734D01*
X2930371Y-10108734D02*
X3082752Y-10146830D01*
X3082752Y-10146830D02*
X3197038Y-10146830D01*
X3197038Y-10146830D02*
X3349419Y-10108734D01*
X3349419Y-10108734D02*
X3425609Y-10070639D01*
X3425609Y-10070639D02*
X3501800Y-9994449D01*
X3501800Y-9994449D02*
X3539895Y-9880163D01*
X3539895Y-9880163D02*
X3539895Y-9803972D01*
X3539895Y-9803972D02*
X3501800Y-9689687D01*
X3501800Y-9689687D02*
X3463704Y-9651591D01*
X3463704Y-9651591D02*
X3197038Y-9651591D01*
X3197038Y-9651591D02*
X3197038Y-9803972D01*
X-2340105Y-10223020D02*
X-1540105Y-9956353D01*
X-1540105Y-9956353D02*
X-2340105Y-9689687D01*
X-2810105Y-10108734D02*
X-3610105Y-10108734D01*
X-11111296Y-9433332D02*
X-11073200Y-9471428D01*
X-11073200Y-9471428D02*
X-11035105Y-9585713D01*
X-11035105Y-9585713D02*
X-11035105Y-9661904D01*
X-11035105Y-9661904D02*
X-11073200Y-9776190D01*
X-11073200Y-9776190D02*
X-11149391Y-9852380D01*
X-11149391Y-9852380D02*
X-11225581Y-9890475D01*
X-11225581Y-9890475D02*
X-11377962Y-9928571D01*
X-11377962Y-9928571D02*
X-11492248Y-9928571D01*
X-11492248Y-9928571D02*
X-11644629Y-9890475D01*
X-11644629Y-9890475D02*
X-11720820Y-9852380D01*
X-11720820Y-9852380D02*
X-11797010Y-9776190D01*
X-11797010Y-9776190D02*
X-11835105Y-9661904D01*
X-11835105Y-9661904D02*
X-11835105Y-9585713D01*
X-11835105Y-9585713D02*
X-11797010Y-9471428D01*
X-11797010Y-9471428D02*
X-11758915Y-9433332D01*
X-11758915Y-9128571D02*
X-11797010Y-9090475D01*
X-11797010Y-9090475D02*
X-11835105Y-9014285D01*
X-11835105Y-9014285D02*
X-11835105Y-8823809D01*
X-11835105Y-8823809D02*
X-11797010Y-8747618D01*
X-11797010Y-8747618D02*
X-11758915Y-8709523D01*
X-11758915Y-8709523D02*
X-11682724Y-8671428D01*
X-11682724Y-8671428D02*
X-11606534Y-8671428D01*
X-11606534Y-8671428D02*
X-11492248Y-8709523D01*
X-11492248Y-8709523D02*
X-11035105Y-9166666D01*
X-11035105Y-9166666D02*
X-11035105Y-8671428D01*
D12*
%TO.C,BUZZER1*%
X11200000Y3160000D02*
X11200000Y-2100000D01*
X8850000Y3160000D02*
X11200000Y3160000D01*
X5200000Y2530000D02*
X5200000Y1260000D01*
X4560000Y1900000D02*
X5830000Y1900000D01*
X11200000Y-2100000D02*
X8900000Y-2100000D01*
X8852501Y3160927D02*
G75*
G03*
X6420000Y4839999I-3632506J-2660935D01*
G01*
X6378129Y-3836344D02*
G75*
G03*
X8829999Y-2130000I-1198134J4336352D01*
G01*
X3930031Y4820009D02*
G75*
G03*
X3930000Y-3820000I1259969J-4320009D01*
G01*
D13*
%TO.C,C4*%
X-7165000Y-9088748D02*
X-7165000Y-9611252D01*
X-8635000Y-9088748D02*
X-8635000Y-9611252D01*
%TO.C,C3*%
X8685000Y9811252D02*
X8685000Y9288748D01*
X7215000Y9811252D02*
X7215000Y9288748D01*
%TO.C,R3*%
X-4815000Y10027064D02*
X-4815000Y9572936D01*
X-6285000Y10027064D02*
X-6285000Y9572936D01*
%TO.C,R2*%
X-1215000Y10027064D02*
X-1215000Y9572936D01*
X-2685000Y10027064D02*
X-2685000Y9572936D01*
%TO.C,R1*%
X-8235000Y10027064D02*
X-8235000Y9572936D01*
X-6765000Y10027064D02*
X-6765000Y9572936D01*
%TO.C,D3*%
X-6160000Y-1271250D02*
X-2150000Y-1271250D01*
X-6160000Y728750D02*
X-2150000Y728750D01*
X-6160000Y728750D02*
X-6160000Y-1271250D01*
%TO.C,D2*%
X-11210000Y-1271250D02*
X-7200000Y-1271250D01*
X-11210000Y728750D02*
X-7200000Y728750D01*
X-11210000Y728750D02*
X-11210000Y-1271250D01*
D10*
%TO.C,U3*%
X-3300000Y-7155000D02*
X-8800000Y-7155000D01*
X-3300000Y-6950000D02*
X-1550000Y-6950000D01*
X-8800000Y-7155000D02*
X-8800000Y-6855000D01*
X-3300000Y-1645000D02*
X-8800000Y-1645000D01*
X-8800000Y-1645000D02*
X-8800000Y-1945000D01*
X-3300000Y-1645000D02*
X-3300000Y-1945000D01*
X-3300000Y-7155000D02*
X-3300000Y-6950000D01*
D13*
%TO.C,U2*%
X-8575000Y1203750D02*
X-8575000Y1463750D01*
X-8575000Y6393750D02*
X-10250000Y6393750D01*
X-5850000Y6653750D02*
X-8575000Y6653750D01*
X-8575000Y6653750D02*
X-8575000Y6393750D01*
X-3125000Y1203750D02*
X-3125000Y1463750D01*
X-5850000Y1203750D02*
X-3125000Y1203750D01*
X-5850000Y1203750D02*
X-8575000Y1203750D01*
X-3125000Y6653750D02*
X-3125000Y6393750D01*
X-5850000Y6653750D02*
X-3125000Y6653750D01*
%TO.C,D1*%
X2150000Y6640000D02*
X2150000Y10650000D01*
X150000Y6640000D02*
X150000Y10650000D01*
X150000Y6640000D02*
X2150000Y6640000D01*
%TO.C,C1*%
X2915000Y9911252D02*
X2915000Y9388748D01*
X4385000Y9911252D02*
X4385000Y9388748D01*
%TO.C,R6*%
X322936Y-7615000D02*
X777064Y-7615000D01*
X322936Y-9085000D02*
X777064Y-9085000D01*
%TO.C,Q1*%
X11310000Y-8412500D02*
X11310000Y-7762500D01*
X11310000Y-8412500D02*
X11310000Y-9062500D01*
X8190000Y-8412500D02*
X8190000Y-7762500D01*
X8190000Y-8412500D02*
X8190000Y-10087500D01*
%TO.C,C2*%
X-10735000Y-9088748D02*
X-10735000Y-9611252D01*
X-9265000Y-9088748D02*
X-9265000Y-9611252D01*
%TO.C,R7*%
X5815000Y-8322936D02*
X5815000Y-8777064D01*
X7285000Y-8322936D02*
X7285000Y-8777064D01*
%TD*%
%LPC*%
D14*
%TO.C,BUZZER1*%
X5200000Y4500000D03*
X5200000Y-3500000D03*
%TD*%
D15*
%TO.C,C4*%
X-7900000Y-10300000D03*
X-7900000Y-8400000D03*
%TD*%
%TO.C,C3*%
X7950000Y8600000D03*
X7950000Y10500000D03*
%TD*%
D16*
%TO.C,R3*%
X-5550000Y10712500D03*
X-5550000Y8887500D03*
%TD*%
%TO.C,R2*%
X-1950000Y10712500D03*
X-1950000Y8887500D03*
%TD*%
%TO.C,R1*%
X-7500000Y8887500D03*
X-7500000Y10712500D03*
%TD*%
D17*
%TO.C,D3*%
X-5450000Y-271250D03*
X-2150000Y-271250D03*
%TD*%
%TO.C,D2*%
X-10500000Y-271250D03*
X-7200000Y-271250D03*
%TD*%
D18*
%TO.C,U3*%
X-9700000Y-6305000D03*
X-9700000Y-5035000D03*
X-9700000Y-3765000D03*
X-9700000Y-2495000D03*
X-2400000Y-2495000D03*
X-2400000Y-3765000D03*
X-2400000Y-5035000D03*
X-2400000Y-6305000D03*
%TD*%
D19*
%TO.C,U2*%
X-9450000Y5833750D03*
X-9450000Y4563750D03*
X-9450000Y3293750D03*
X-9450000Y2023750D03*
X-2250000Y2023750D03*
X-2250000Y3293750D03*
X-2250000Y4563750D03*
X-2250000Y5833750D03*
%TD*%
D20*
%TO.C,D1*%
X1150000Y7350000D03*
X1150000Y10650000D03*
%TD*%
D15*
%TO.C,C1*%
X3650000Y8700000D03*
X3650000Y10600000D03*
%TD*%
D21*
%TO.C,R6*%
X-362500Y-8350000D03*
X1462500Y-8350000D03*
%TD*%
D22*
%TO.C,Q1*%
X9750000Y-7475000D03*
X10700000Y-9350000D03*
X8800000Y-9350000D03*
%TD*%
D23*
%TO.C,J1*%
X-3175000Y-11000000D03*
D24*
X-1905000Y-11000000D03*
X-635000Y-11000000D03*
X635000Y-11000000D03*
X1905000Y-11000000D03*
X3175000Y-11000000D03*
%TD*%
D15*
%TO.C,C2*%
X-10000000Y-10300000D03*
X-10000000Y-8400000D03*
%TD*%
D16*
%TO.C,R7*%
X6550000Y-9462500D03*
X6550000Y-7637500D03*
%TD*%
%LPD*%
M02*
