M48
; DRILL file {KiCad 7.0.10} date Fri Jan 16 16:27:34 2026
; FORMAT={-:-/ absolute / inch / decimal}
; #@! TF.CreationDate,2026-01-16T16:27:34+08:00
; #@! TF.GenerationSoftware,Kicad,Pcbnew,7.0.10
; #@! TF.FileFunction,Plated,1,2,PTH
FMAT,2
INCH
; #@! TA.AperFunction,Plated,PTH,ViaDrill
T1C0.0079
; #@! TA.AperFunction,Plated,PTH,ViaDrill
T2C0.0118
; #@! TA.AperFunction,Plated,PTH,ComponentDrill
T3C0.0256
%
G90
G05
T1
X-0.4409Y0.4488
X-0.4409Y0.4075
X-0.4281Y0.128
X-0.4035Y0.4488
X-0.3799Y-0.2795
X-0.311Y-0.4508
X-0.2894Y-0.0768
X-0.2323Y-0.2677
X-0.2323Y-0.4232
X-0.2067Y-0.1594
X-0.1594Y0.4272
X-0.1507Y-0.3338
X-0.1496Y-0.0107
X-0.0374Y0.2283
X-0.0217Y0.0118
X0.0433Y-0.1102
X0.0807Y0.3484
X0.2028Y0.4272
X0.2461Y0.3406
X0.4429Y0.4488
X0.4429Y0.3406
T2
X-0.4528Y-0.4055
X-0.3701Y0.0453
X-0.2638Y0.2224
X-0.1693Y0.2224
X0.0925Y-0.0394
X0.2087Y-0.4528
X0.3406Y0.0079
X0.4429Y-0.4488
X0.4488Y-0.1693
T3
X-0.125Y-0.4331
X-0.075Y-0.4331
X-0.025Y-0.4331
X0.025Y-0.4331
X0.075Y-0.4331
X0.125Y-0.4331
M30
