%TF.GenerationSoftware,KiCad,Pcbnew,7.0.10*%
%TF.CreationDate,2026-01-16T16:27:33+08:00*%
%TF.ProjectId,NeepNeep-DAC-V1,4e656570-4e65-4657-902d-4441432d5631,rev?*%
%TF.SameCoordinates,Original*%
%TF.FileFunction,Copper,L1,Top*%
%TF.FilePolarity,Positive*%
%FSLAX46Y46*%
G04 Gerber Fmt 4.6, Leading zero omitted, Abs format (unit mm)*
G04 Created by KiCad (PCBNEW 7.0.10) date 2026-01-16 16:27:33*
%MOMM*%
%LPD*%
G01*
G04 APERTURE LIST*
G04 Aperture macros list*
%AMRoundRect*
0 Rectangle with rounded corners*
0 $1 Rounding radius*
0 $2 $3 $4 $5 $6 $7 $8 $9 X,Y pos of 4 corners*
0 Add a 4 corners polygon primitive as box body*
4,1,4,$2,$3,$4,$5,$6,$7,$8,$9,$2,$3,0*
0 Add four circle primitives for the rounded corners*
1,1,$1+$1,$2,$3*
1,1,$1+$1,$4,$5*
1,1,$1+$1,$6,$7*
1,1,$1+$1,$8,$9*
0 Add four rect primitives between the rounded corners*
20,1,$1+$1,$2,$3,$4,$5,0*
20,1,$1+$1,$4,$5,$6,$7,0*
20,1,$1+$1,$6,$7,$8,$9,0*
20,1,$1+$1,$8,$9,$2,$3,0*%
G04 Aperture macros list end*
%TA.AperFunction,SMDPad,CuDef*%
%ADD10R,2.000000X3.000000*%
%TD*%
%TA.AperFunction,SMDPad,CuDef*%
%ADD11RoundRect,0.250000X-0.475000X0.250000X-0.475000X-0.250000X0.475000X-0.250000X0.475000X0.250000X0*%
%TD*%
%TA.AperFunction,SMDPad,CuDef*%
%ADD12RoundRect,0.250000X-0.450000X0.262500X-0.450000X-0.262500X0.450000X-0.262500X0.450000X0.262500X0*%
%TD*%
%TA.AperFunction,SMDPad,CuDef*%
%ADD13RoundRect,0.225000X-0.225000X-0.375000X0.225000X-0.375000X0.225000X0.375000X-0.225000X0.375000X0*%
%TD*%
%TA.AperFunction,SMDPad,CuDef*%
%ADD14R,1.700000X0.650000*%
%TD*%
%TA.AperFunction,SMDPad,CuDef*%
%ADD15RoundRect,0.150000X-0.650000X-0.150000X0.650000X-0.150000X0.650000X0.150000X-0.650000X0.150000X0*%
%TD*%
%TA.AperFunction,SMDPad,CuDef*%
%ADD16RoundRect,0.225000X0.375000X-0.225000X0.375000X0.225000X-0.375000X0.225000X-0.375000X-0.225000X0*%
%TD*%
%TA.AperFunction,SMDPad,CuDef*%
%ADD17RoundRect,0.250000X-0.262500X-0.450000X0.262500X-0.450000X0.262500X0.450000X-0.262500X0.450000X0*%
%TD*%
%TA.AperFunction,SMDPad,CuDef*%
%ADD18RoundRect,0.150000X0.150000X-0.587500X0.150000X0.587500X-0.150000X0.587500X-0.150000X-0.587500X0*%
%TD*%
%TA.AperFunction,ComponentPad*%
%ADD19R,1.000000X1.000000*%
%TD*%
%TA.AperFunction,ComponentPad*%
%ADD20O,1.000000X1.000000*%
%TD*%
%TA.AperFunction,ViaPad*%
%ADD21C,0.400000*%
%TD*%
%TA.AperFunction,ViaPad*%
%ADD22C,0.500000*%
%TD*%
%TA.AperFunction,Conductor*%
%ADD23C,0.200000*%
%TD*%
%TA.AperFunction,Conductor*%
%ADD24C,0.400000*%
%TD*%
%TA.AperFunction,Conductor*%
%ADD25C,0.500000*%
%TD*%
G04 APERTURE END LIST*
D10*
%TO.P,BUZZER1,1,+*%
%TO.N,3.3v*%
X5200000Y4500000D03*
%TO.P,BUZZER1,2,-*%
%TO.N,Net-(BUZZER1--)*%
X5200000Y-3500000D03*
%TD*%
D11*
%TO.P,C4,2*%
%TO.N,GND*%
X-7900000Y-10300000D03*
%TO.P,C4,1*%
%TO.N,3.3v*%
X-7900000Y-8400000D03*
%TD*%
%TO.P,C3,2*%
%TO.N,Net-(BUZZER1--)*%
X7950000Y8600000D03*
%TO.P,C3,1*%
%TO.N,3.3v*%
X7950000Y10500000D03*
%TD*%
D12*
%TO.P,R3,1*%
%TO.N,3.3v*%
X-5550000Y10712500D03*
%TO.P,R3,2*%
%TO.N,Net-(D2-A)*%
X-5550000Y8887500D03*
%TD*%
%TO.P,R2,1*%
%TO.N,3.3v*%
X-1950000Y10712500D03*
%TO.P,R2,2*%
%TO.N,Net-(D3-A)*%
X-1950000Y8887500D03*
%TD*%
%TO.P,R1,2*%
%TO.N,Net-(D1-A)*%
X-7500000Y8887500D03*
%TO.P,R1,1*%
%TO.N,3.3v*%
X-7500000Y10712500D03*
%TD*%
D13*
%TO.P,D3,1,K*%
%TO.N,PB0{slash}MOSI*%
X-5450000Y-271250D03*
%TO.P,D3,2,A*%
%TO.N,Net-(D3-A)*%
X-2150000Y-271250D03*
%TD*%
%TO.P,D2,1,K*%
%TO.N,PB2{slash}SCK*%
X-10500000Y-271250D03*
%TO.P,D2,2,A*%
%TO.N,Net-(D2-A)*%
X-7200000Y-271250D03*
%TD*%
D14*
%TO.P,U3,8,VCC*%
%TO.N,3.3v*%
X-9700000Y-6305000D03*
%TO.P,U3,7,PB2*%
%TO.N,PB2{slash}SCK*%
X-9700000Y-5035000D03*
%TO.P,U3,6,PB1*%
%TO.N,PB1{slash}MISO*%
X-9700000Y-3765000D03*
%TO.P,U3,5,AREF/PB0*%
%TO.N,PB0{slash}MOSI*%
X-9700000Y-2495000D03*
%TO.P,U3,4,GND*%
%TO.N,GND*%
X-2400000Y-2495000D03*
%TO.P,U3,3,XTAL2/PB4*%
%TO.N,PB4*%
X-2400000Y-3765000D03*
%TO.P,U3,2,XTAL1/PB3*%
%TO.N,PB3*%
X-2400000Y-5035000D03*
%TO.P,U3,1,~{RESET}/PB5*%
%TO.N,PB5{slash}RESET*%
X-2400000Y-6305000D03*
%TD*%
D15*
%TO.P,U2,1,~{CS}*%
%TO.N,Net-(D1-A)*%
X-9450000Y5833750D03*
%TO.P,U2,2,DO(IO1)*%
%TO.N,PB1{slash}MISO*%
X-9450000Y4563750D03*
%TO.P,U2,3,IO2*%
%TO.N,3.3v*%
X-9450000Y3293750D03*
%TO.P,U2,4,GND*%
%TO.N,GND*%
X-9450000Y2023750D03*
%TO.P,U2,5,DI(IO0)*%
%TO.N,Net-(D3-A)*%
X-2250000Y2023750D03*
%TO.P,U2,6,CLK*%
%TO.N,Net-(D2-A)*%
X-2250000Y3293750D03*
%TO.P,U2,7,IO3*%
%TO.N,3.3v*%
X-2250000Y4563750D03*
%TO.P,U2,8,VCC*%
X-2250000Y5833750D03*
%TD*%
D16*
%TO.P,D1,1,K*%
%TO.N,PB3*%
X1150000Y7350000D03*
%TO.P,D1,2,A*%
%TO.N,Net-(D1-A)*%
X1150000Y10650000D03*
%TD*%
D11*
%TO.P,C1,2*%
%TO.N,GND*%
X3650000Y8700000D03*
%TO.P,C1,1*%
%TO.N,3.3v*%
X3650000Y10600000D03*
%TD*%
D17*
%TO.P,R6,1*%
%TO.N,3.3v*%
X-362500Y-8350000D03*
%TO.P,R6,2*%
%TO.N,PB5{slash}RESET*%
X1462500Y-8350000D03*
%TD*%
D18*
%TO.P,Q1,3,C*%
%TO.N,Net-(BUZZER1--)*%
X9750000Y-7475000D03*
%TO.P,Q1,2,E*%
%TO.N,GND*%
X10700000Y-9350000D03*
%TO.P,Q1,1,B*%
%TO.N,Net-(Q1-B)*%
X8800000Y-9350000D03*
%TD*%
D19*
%TO.P,J1,1,Pin_1*%
%TO.N,PB1{slash}MISO*%
X-3175000Y-11000000D03*
D20*
%TO.P,J1,2,Pin_2*%
%TO.N,3.3v*%
X-1905000Y-11000000D03*
%TO.P,J1,3,Pin_3*%
%TO.N,PB2{slash}SCK*%
X-635000Y-11000000D03*
%TO.P,J1,4,Pin_4*%
%TO.N,PB0{slash}MOSI*%
X635000Y-11000000D03*
%TO.P,J1,5,Pin_5*%
%TO.N,PB5{slash}RESET*%
X1905000Y-11000000D03*
%TO.P,J1,6,Pin_6*%
%TO.N,GND*%
X3175000Y-11000000D03*
%TD*%
D11*
%TO.P,C2,2*%
%TO.N,GND*%
X-10000000Y-10300000D03*
%TO.P,C2,1*%
%TO.N,3.3v*%
X-10000000Y-8400000D03*
%TD*%
D12*
%TO.P,R7,2*%
%TO.N,Net-(Q1-B)*%
X6550000Y-9462500D03*
%TO.P,R7,1*%
%TO.N,PB4*%
X6550000Y-7637500D03*
%TD*%
D21*
%TO.N,GND*%
X-7350000Y-1950000D03*
X-7900000Y-11450000D03*
D22*
X-11500000Y-10300000D03*
X5300000Y-11500000D03*
X11250000Y-11400000D03*
D21*
X-11200000Y10350000D03*
X-10250000Y11400000D03*
X-11200000Y11400000D03*
X11250000Y8650000D03*
X11250000Y11400000D03*
D22*
X-4300000Y5650000D03*
D21*
%TO.N,3.3v*%
X-10875000Y3250000D03*
D22*
%TO.N,GND*%
X11400000Y-4300000D03*
X8650000Y200000D03*
X2350000Y-1000000D03*
D21*
X-5900000Y-10750000D03*
D22*
X-9400000Y1150000D03*
X-6700000Y5650000D03*
D21*
X-5900000Y-6800000D03*
X6250000Y8650000D03*
X2050000Y8850000D03*
%TO.N,3.3v*%
X-950000Y5800000D03*
X5150000Y10850000D03*
%TO.N,GND*%
X-3800000Y-271250D03*
X-5250000Y-4050000D03*
%TO.N,3.3v*%
X-4050000Y10850000D03*
%TO.N,GND*%
X1100000Y-2800000D03*
X-550000Y300000D03*
%TO.N,3.3v*%
X-9650000Y-7100000D03*
%TO.N,PB2{slash}SCK*%
X-3828554Y-8478554D03*
%TD*%
D23*
%TO.N,PB3*%
X-3265000Y-5035000D02*
X-2400000Y-5035000D01*
X-3850000Y-2050000D02*
X-3850000Y-4450000D01*
X-3150000Y-1350000D02*
X-3850000Y-2050000D01*
X1150000Y-250000D02*
X50000Y-1350000D01*
X50000Y-1350000D02*
X-3150000Y-1350000D01*
X1150000Y7350000D02*
X1150000Y-250000D01*
X-3850000Y-4450000D02*
X-3265000Y-5035000D01*
%TO.N,PB0{slash}MOSI*%
X-8600000Y-2495000D02*
X-8100000Y-2495000D01*
X-9700000Y-2495000D02*
X-8600000Y-2495000D01*
X-7650000Y-3300000D02*
X-8050000Y-2900000D01*
X-8050000Y-2900000D02*
X-8455000Y-2495000D01*
X-8455000Y-2495000D02*
X-8600000Y-2495000D01*
X-7650000Y-4300000D02*
X-7650000Y-3300000D01*
X-6700000Y-5250000D02*
X-7650000Y-4300000D01*
X175000Y-7175000D02*
X-3275000Y-7175000D01*
X450000Y-7450000D02*
X175000Y-7175000D01*
X450000Y-9965000D02*
X450000Y-7450000D01*
X-3275000Y-7175000D02*
X-5200000Y-5250000D01*
X635000Y-10150000D02*
X450000Y-9965000D01*
X635000Y-11000000D02*
X635000Y-10150000D01*
X-5200000Y-5250000D02*
X-6700000Y-5250000D01*
X-6445000Y-2495000D02*
X-8100000Y-2495000D01*
X-5450000Y-1500000D02*
X-6445000Y-2495000D01*
X-5450000Y-271250D02*
X-5450000Y-1500000D01*
%TO.N,PB2{slash}SCK*%
X-8046372Y-5035000D02*
X-9700000Y-5035000D01*
X-6990686Y-6090686D02*
X-8046372Y-5035000D01*
X-5490686Y-6090686D02*
X-6990686Y-6090686D01*
X-3828554Y-7752818D02*
X-5490686Y-6090686D01*
X-3828554Y-8478554D02*
X-3828554Y-7752818D01*
%TO.N,PB1{slash}MISO*%
X-8385000Y-3765000D02*
X-9700000Y-3765000D01*
X-8050000Y-4465686D02*
X-8050000Y-4100000D01*
X-8050000Y-4100000D02*
X-8385000Y-3765000D01*
X-6865686Y-5650000D02*
X-8050000Y-4465686D01*
X-5365686Y-5650000D02*
X-6865686Y-5650000D01*
X-3175000Y-7840686D02*
X-5365686Y-5650000D01*
X-3175000Y-11000000D02*
X-3175000Y-7840686D01*
%TO.N,Net-(BUZZER1--)*%
X7950000Y-3600000D02*
X7675000Y-3875000D01*
X7950000Y8600000D02*
X7950000Y-3600000D01*
D24*
%TO.N,3.3v*%
X5000000Y10700000D02*
X5000000Y4875000D01*
X5150000Y10850000D02*
X5000000Y10700000D01*
X5150000Y10850000D02*
X7600000Y10850000D01*
X7600000Y10850000D02*
X7950000Y10500000D01*
X-10000000Y-8400000D02*
X-7900000Y-8400000D01*
X-9650000Y-8050000D02*
X-10000000Y-8400000D01*
X-9650000Y-7100000D02*
X-9650000Y-8050000D01*
D23*
%TO.N,Net-(D3-A)*%
X-100000Y2650000D02*
X-726250Y2023750D01*
X-100000Y6587500D02*
X-100000Y2650000D01*
X-726250Y2023750D02*
X-2250000Y2023750D01*
X-1950000Y8887500D02*
X-1950000Y8437500D01*
X-1950000Y8437500D02*
X-100000Y6587500D01*
%TO.N,Net-(D2-A)*%
X-5550000Y4550000D02*
X-6375000Y3725000D01*
X-5550000Y8887500D02*
X-5550000Y4550000D01*
X-6375000Y3725000D02*
X-6875000Y3225000D01*
%TO.N,Net-(D1-A)*%
X-7500000Y9250000D02*
X-6900000Y9850000D01*
X-7500000Y8887500D02*
X-7500000Y9250000D01*
X350000Y9850000D02*
X-6900000Y9850000D01*
X1150000Y10650000D02*
X350000Y9850000D01*
D24*
%TO.N,3.3v*%
X-2087500Y10850000D02*
X-1950000Y10712500D01*
X-4050000Y10850000D02*
X-2087500Y10850000D01*
X-5550000Y10712500D02*
X-7500000Y10712500D01*
X-5412500Y10850000D02*
X-5550000Y10712500D01*
X-4050000Y10850000D02*
X-5412500Y10850000D01*
D23*
%TO.N,PB4*%
X4300000Y-7637500D02*
X6550000Y-7637500D01*
X1312500Y-4650000D02*
X4300000Y-7637500D01*
X-990000Y-4650000D02*
X1312500Y-4650000D01*
X-2400000Y-3765000D02*
X-1875000Y-3765000D01*
X-1875000Y-3765000D02*
X-990000Y-4650000D01*
%TO.N,Net-(BUZZER1--)*%
X9750000Y-5950000D02*
X9750000Y-7475000D01*
X7675000Y-3875000D02*
X9750000Y-5950000D01*
X5000000Y-3875000D02*
X7675000Y-3875000D01*
%TO.N,Net-(Q1-B)*%
X8687500Y-9462500D02*
X8800000Y-9350000D01*
X6550000Y-9462500D02*
X8687500Y-9462500D01*
%TO.N,3.3v*%
X-10831250Y3293750D02*
X-10875000Y3250000D01*
X-9450000Y3293750D02*
X-10831250Y3293750D01*
X3550000Y10850000D02*
X3550000Y10700000D01*
X3550000Y10700000D02*
X3650000Y10600000D01*
%TO.N,Net-(D2-A)*%
X-7200000Y-271250D02*
X-7200000Y2900000D01*
%TO.N,3.3v*%
X-1750000Y-8450000D02*
X-362500Y-8450000D01*
X-1905000Y-8605000D02*
X-1750000Y-8450000D01*
X-1905000Y-11000000D02*
X-1905000Y-8605000D01*
%TO.N,Net-(D1-A)*%
X-7800000Y8550000D02*
X-7100000Y8550000D01*
%TO.N,Net-(D2-A)*%
X-6806250Y3293750D02*
X-6875000Y3225000D01*
X-6875000Y3225000D02*
X-7200000Y2900000D01*
X-5900000Y3293750D02*
X-6806250Y3293750D01*
X-3650000Y3293750D02*
X-5900000Y3293750D01*
%TO.N,Net-(D1-A)*%
X-9450000Y6900000D02*
X-7800000Y8550000D01*
X-9450000Y5833750D02*
X-9450000Y6900000D01*
D25*
%TO.N,3.3v*%
X-950000Y5800000D02*
X-2216250Y5800000D01*
X-2216250Y5800000D02*
X-2250000Y5833750D01*
D23*
%TO.N,Net-(D2-A)*%
X-2250000Y3293750D02*
X-3650000Y3293750D01*
D24*
%TO.N,3.3v*%
X5150000Y10850000D02*
X3550000Y10850000D01*
D23*
X-2250000Y4563750D02*
X-2250000Y5833750D01*
D24*
X-9700000Y-6450000D02*
X-9700000Y-6305000D01*
X-7750000Y-8400000D02*
X-9700000Y-6450000D01*
D23*
%TO.N,PB2{slash}SCK*%
X-11250000Y-1021250D02*
X-10500000Y-271250D01*
X-11250000Y-4010000D02*
X-11250000Y-1021250D01*
X-10225000Y-5035000D02*
X-11250000Y-4010000D01*
X-9700000Y-5035000D02*
X-10225000Y-5035000D01*
%TO.N,PB1{slash}MISO*%
X-10135000Y-3765000D02*
X-9700000Y-3765000D01*
X-10850000Y-1870000D02*
X-10850000Y-3050000D01*
X-10850000Y-3050000D02*
X-10135000Y-3765000D01*
X-9639375Y-1660625D02*
X-10640625Y-1660625D01*
X-10640625Y-1660625D02*
X-10850000Y-1870000D01*
X-8150000Y-171250D02*
X-9639375Y-1660625D01*
D24*
%TO.N,3.3v*%
X-9650000Y-6355000D02*
X-9700000Y-6305000D01*
X-9650000Y-7100000D02*
X-9650000Y-6355000D01*
D23*
%TO.N,PB5{slash}RESET*%
X1782138Y-6305000D02*
X-2400000Y-6305000D01*
X1800000Y-6322862D02*
X1782138Y-6305000D01*
%TO.N,PB1{slash}MISO*%
X-8150000Y4063749D02*
X-8150000Y-171250D01*
X-8650001Y4563750D02*
X-8150000Y4063749D01*
X-9450000Y4563750D02*
X-8650001Y4563750D01*
%TO.N,Net-(D3-A)*%
X-2150000Y1923750D02*
X-2250000Y2023750D01*
X-2150000Y-271250D02*
X-2150000Y1923750D01*
%TO.N,PB5{slash}RESET*%
X1800000Y-10895000D02*
X1905000Y-11000000D01*
X1800000Y-6322862D02*
X1800000Y-10895000D01*
%TD*%
%TA.AperFunction,Conductor*%
%TO.N,GND*%
G36*
X11956194Y11956194D02*
G01*
X11974500Y11912000D01*
X11974500Y-11912000D01*
X11956194Y-11956194D01*
X11912000Y-11974500D01*
X-11912000Y-11974500D01*
X-11956194Y-11956194D01*
X-11974500Y-11912000D01*
X-11974500Y-10500000D01*
X-11025000Y-10500000D01*
X-11025000Y-10593053D01*
X-11024999Y-10593070D01*
X-11014386Y-10681446D01*
X-10958925Y-10822087D01*
X-10958920Y-10822096D01*
X-10867565Y-10942564D01*
X-10747097Y-11033919D01*
X-10747088Y-11033924D01*
X-10606447Y-11089385D01*
X-10518071Y-11099998D01*
X-10518053Y-11100000D01*
X-10200000Y-11100000D01*
X-10200000Y-10500000D01*
X-9800000Y-10500000D01*
X-9800000Y-11100000D01*
X-9481947Y-11100000D01*
X-9481930Y-11099998D01*
X-9393554Y-11089385D01*
X-9252913Y-11033924D01*
X-9252904Y-11033919D01*
X-9132436Y-10942564D01*
X-9041081Y-10822096D01*
X-9041080Y-10822093D01*
X-9008143Y-10738572D01*
X-8974900Y-10704174D01*
X-8927072Y-10703357D01*
X-8892674Y-10736600D01*
X-8891857Y-10738572D01*
X-8858921Y-10822093D01*
X-8858920Y-10822096D01*
X-8767565Y-10942564D01*
X-8647097Y-11033919D01*
X-8647088Y-11033924D01*
X-8506447Y-11089385D01*
X-8418071Y-11099998D01*
X-8418053Y-11100000D01*
X-8100000Y-11100000D01*
X-8100000Y-10500000D01*
X-7700000Y-10500000D01*
X-7700000Y-11100000D01*
X-7381947Y-11100000D01*
X-7381930Y-11099998D01*
X-7293554Y-11089385D01*
X-7152913Y-11033924D01*
X-7152904Y-11033919D01*
X-7032436Y-10942564D01*
X-6941081Y-10822096D01*
X-6941076Y-10822087D01*
X-6885615Y-10681446D01*
X-6875002Y-10593070D01*
X-6875000Y-10593053D01*
X-6875000Y-10500000D01*
X-7700000Y-10500000D01*
X-8100000Y-10500000D01*
X-9800000Y-10500000D01*
X-10200000Y-10500000D01*
X-11025000Y-10500000D01*
X-11974500Y-10500000D01*
X-11974500Y-10100000D01*
X-11025000Y-10100000D01*
X-10200000Y-10100000D01*
X-10200000Y-9500000D01*
X-9800000Y-9500000D01*
X-9800000Y-10100000D01*
X-8100000Y-10100000D01*
X-8100000Y-9500000D01*
X-7700000Y-9500000D01*
X-7700000Y-10100000D01*
X-6875000Y-10100000D01*
X-6875000Y-10006946D01*
X-6875002Y-10006929D01*
X-6885615Y-9918553D01*
X-6941076Y-9777912D01*
X-6941081Y-9777903D01*
X-7032436Y-9657435D01*
X-7152904Y-9566080D01*
X-7152913Y-9566075D01*
X-7293554Y-9510614D01*
X-7381930Y-9500001D01*
X-7381947Y-9500000D01*
X-7700000Y-9500000D01*
X-8100000Y-9500000D01*
X-8418053Y-9500000D01*
X-8418071Y-9500001D01*
X-8506447Y-9510614D01*
X-8647088Y-9566075D01*
X-8647097Y-9566080D01*
X-8767565Y-9657435D01*
X-8858920Y-9777903D01*
X-8858925Y-9777912D01*
X-8891858Y-9861427D01*
X-8925100Y-9895825D01*
X-8972928Y-9896641D01*
X-9007326Y-9863399D01*
X-9008142Y-9861427D01*
X-9041076Y-9777912D01*
X-9041081Y-9777903D01*
X-9132436Y-9657435D01*
X-9252904Y-9566080D01*
X-9252913Y-9566075D01*
X-9393554Y-9510614D01*
X-9481930Y-9500001D01*
X-9481947Y-9500000D01*
X-9800000Y-9500000D01*
X-10200000Y-9500000D01*
X-10518053Y-9500000D01*
X-10518071Y-9500001D01*
X-10606447Y-9510614D01*
X-10747088Y-9566075D01*
X-10747097Y-9566080D01*
X-10867565Y-9657435D01*
X-10958920Y-9777903D01*
X-10958925Y-9777912D01*
X-11014386Y-9918553D01*
X-11024999Y-10006929D01*
X-11025000Y-10006946D01*
X-11025000Y-10100000D01*
X-11974500Y-10100000D01*
X-11974500Y-8704266D01*
X-10925500Y-8704266D01*
X-10924522Y-8714699D01*
X-10922647Y-8734696D01*
X-10922646Y-8734701D01*
X-10877793Y-8862882D01*
X-10877793Y-8862883D01*
X-10861690Y-8884701D01*
X-10797150Y-8972150D01*
X-10687882Y-9052793D01*
X-10559699Y-9097646D01*
X-10529266Y-9100500D01*
X-10529262Y-9100500D01*
X-9470738Y-9100500D01*
X-9470734Y-9100500D01*
X-9440301Y-9097646D01*
X-9312118Y-9052793D01*
X-9202850Y-8972150D01*
X-9122207Y-8862882D01*
X-9115026Y-8842358D01*
X-9083152Y-8806690D01*
X-9056033Y-8800500D01*
X-8843967Y-8800500D01*
X-8799773Y-8818806D01*
X-8784974Y-8842359D01*
X-8777794Y-8862880D01*
X-8777793Y-8862883D01*
X-8761690Y-8884701D01*
X-8697150Y-8972150D01*
X-8587882Y-9052793D01*
X-8459699Y-9097646D01*
X-8429266Y-9100500D01*
X-8429262Y-9100500D01*
X-7370738Y-9100500D01*
X-7370734Y-9100500D01*
X-7340301Y-9097646D01*
X-7212118Y-9052793D01*
X-7102850Y-8972150D01*
X-7022207Y-8862882D01*
X-6977354Y-8734699D01*
X-6974500Y-8704266D01*
X-6974500Y-8095734D01*
X-6977354Y-8065301D01*
X-7022207Y-7937118D01*
X-7036940Y-7917156D01*
X-7071985Y-7869671D01*
X-7102850Y-7827850D01*
X-7212118Y-7747207D01*
X-7340299Y-7702354D01*
X-7340304Y-7702353D01*
X-7360301Y-7700478D01*
X-7370734Y-7699500D01*
X-7370738Y-7699500D01*
X-7858220Y-7699500D01*
X-7902414Y-7681194D01*
X-8713706Y-6869901D01*
X-8732012Y-6825707D01*
X-8713706Y-6781513D01*
X-8706484Y-6775587D01*
X-8705452Y-6774554D01*
X-8705448Y-6774552D01*
X-8661133Y-6708231D01*
X-8649500Y-6649748D01*
X-8649500Y-5960252D01*
X-8661133Y-5901769D01*
X-8661134Y-5901767D01*
X-8705448Y-5835447D01*
X-8771768Y-5791133D01*
X-8771770Y-5791132D01*
X-8830252Y-5779500D01*
X-10569748Y-5779500D01*
X-10628231Y-5791132D01*
X-10628233Y-5791133D01*
X-10694553Y-5835447D01*
X-10738867Y-5901767D01*
X-10738868Y-5901769D01*
X-10750500Y-5960251D01*
X-10750500Y-6649748D01*
X-10738868Y-6708230D01*
X-10738867Y-6708232D01*
X-10694553Y-6774552D01*
X-10628233Y-6818866D01*
X-10628231Y-6818867D01*
X-10569748Y-6830500D01*
X-10113000Y-6830500D01*
X-10068806Y-6848806D01*
X-10050500Y-6893000D01*
X-10050500Y-7063559D01*
X-10051269Y-7073335D01*
X-10055492Y-7099999D01*
X-10051269Y-7126662D01*
X-10050500Y-7136439D01*
X-10050500Y-7637000D01*
X-10068806Y-7681194D01*
X-10113000Y-7699500D01*
X-10529266Y-7699500D01*
X-10538876Y-7700401D01*
X-10559697Y-7702353D01*
X-10559702Y-7702354D01*
X-10687883Y-7747207D01*
X-10687884Y-7747207D01*
X-10797150Y-7827850D01*
X-10877793Y-7937116D01*
X-10877793Y-7937117D01*
X-10922646Y-8065298D01*
X-10922647Y-8065303D01*
X-10924681Y-8087000D01*
X-10925500Y-8095734D01*
X-10925500Y-8704266D01*
X-11974500Y-8704266D01*
X-11974500Y-1007129D01*
X-11555379Y-1007129D01*
X-11551099Y-1037811D01*
X-11550500Y-1046446D01*
X-11550500Y-3950787D01*
X-11552326Y-3961979D01*
X-11551973Y-3962029D01*
X-11552774Y-3967767D01*
X-11550567Y-4015483D01*
X-11550500Y-4018370D01*
X-11550500Y-4037847D01*
X-11550012Y-4040456D01*
X-11549016Y-4049050D01*
X-11547586Y-4079987D01*
X-11547584Y-4079995D01*
X-11541905Y-4092858D01*
X-11537645Y-4106614D01*
X-11535061Y-4120433D01*
X-11518754Y-4146772D01*
X-11514726Y-4154412D01*
X-11508623Y-4168232D01*
X-11502206Y-4182765D01*
X-11492265Y-4192706D01*
X-11483323Y-4203994D01*
X-11475919Y-4215952D01*
X-11451193Y-4234624D01*
X-11444672Y-4240299D01*
X-10768806Y-4916165D01*
X-10750500Y-4960359D01*
X-10750500Y-5379748D01*
X-10738868Y-5438230D01*
X-10738867Y-5438232D01*
X-10694553Y-5504552D01*
X-10628233Y-5548866D01*
X-10628231Y-5548867D01*
X-10569748Y-5560500D01*
X-8830252Y-5560500D01*
X-8771769Y-5548867D01*
X-8705448Y-5504552D01*
X-8661133Y-5438231D01*
X-8650705Y-5385807D01*
X-8624129Y-5346033D01*
X-8589406Y-5335500D01*
X-8196731Y-5335500D01*
X-8152537Y-5353806D01*
X-7245043Y-6261300D01*
X-7238420Y-6270505D01*
X-7238136Y-6270291D01*
X-7234647Y-6274911D01*
X-7199328Y-6307109D01*
X-7197240Y-6309103D01*
X-7183483Y-6322860D01*
X-7181292Y-6324360D01*
X-7174516Y-6329729D01*
X-7151619Y-6350602D01*
X-7138509Y-6355681D01*
X-7125765Y-6362397D01*
X-7114167Y-6370342D01*
X-7084017Y-6377433D01*
X-7075747Y-6379994D01*
X-7046859Y-6391186D01*
X-7032800Y-6391186D01*
X-7018492Y-6392845D01*
X-7004805Y-6396065D01*
X-6974124Y-6391784D01*
X-6965489Y-6391186D01*
X-5641045Y-6391186D01*
X-5596851Y-6409492D01*
X-4147360Y-7858983D01*
X-4129054Y-7903177D01*
X-4129054Y-8186774D01*
X-4147360Y-8230968D01*
X-4156604Y-8240211D01*
X-4214200Y-8353248D01*
X-4214200Y-8353249D01*
X-4234046Y-8478554D01*
X-4214200Y-8603858D01*
X-4214200Y-8603859D01*
X-4160984Y-8708300D01*
X-4156604Y-8716896D01*
X-4066896Y-8806604D01*
X-3953858Y-8864200D01*
X-3828554Y-8884046D01*
X-3703250Y-8864200D01*
X-3590212Y-8806604D01*
X-3582194Y-8798586D01*
X-3538000Y-8780280D01*
X-3493806Y-8798586D01*
X-3475500Y-8842780D01*
X-3475500Y-10237000D01*
X-3493806Y-10281194D01*
X-3538000Y-10299500D01*
X-3694748Y-10299500D01*
X-3753231Y-10311132D01*
X-3753233Y-10311133D01*
X-3819553Y-10355447D01*
X-3863867Y-10421767D01*
X-3863868Y-10421769D01*
X-3875500Y-10480251D01*
X-3875500Y-11519748D01*
X-3863868Y-11578230D01*
X-3863867Y-11578232D01*
X-3819553Y-11644552D01*
X-3753233Y-11688866D01*
X-3753231Y-11688867D01*
X-3694748Y-11700500D01*
X-2655252Y-11700500D01*
X-2596769Y-11688867D01*
X-2530448Y-11644552D01*
X-2486133Y-11578231D01*
X-2480790Y-11551365D01*
X-2454216Y-11511592D01*
X-2407300Y-11502259D01*
X-2378046Y-11516776D01*
X-2305852Y-11580734D01*
X-2155225Y-11659790D01*
X-1990056Y-11700500D01*
X-1990054Y-11700500D01*
X-1819946Y-11700500D01*
X-1819944Y-11700500D01*
X-1654775Y-11659790D01*
X-1504148Y-11580734D01*
X-1376817Y-11467929D01*
X-1321437Y-11387696D01*
X-1281266Y-11361725D01*
X-1234496Y-11371764D01*
X-1218565Y-11387695D01*
X-1165272Y-11464902D01*
X-1163184Y-11467927D01*
X-1163182Y-11467930D01*
X-1108046Y-11516776D01*
X-1035852Y-11580734D01*
X-885225Y-11659790D01*
X-720056Y-11700500D01*
X-720054Y-11700500D01*
X-549946Y-11700500D01*
X-549944Y-11700500D01*
X-384775Y-11659790D01*
X-234148Y-11580734D01*
X-106817Y-11467929D01*
X-51437Y-11387696D01*
X-11266Y-11361725D01*
X35504Y-11371764D01*
X51435Y-11387695D01*
X104728Y-11464902D01*
X106816Y-11467927D01*
X106818Y-11467930D01*
X161954Y-11516776D01*
X234148Y-11580734D01*
X384775Y-11659790D01*
X549944Y-11700500D01*
X549946Y-11700500D01*
X720054Y-11700500D01*
X720056Y-11700500D01*
X885225Y-11659790D01*
X1035852Y-11580734D01*
X1163183Y-11467929D01*
X1218563Y-11387696D01*
X1258734Y-11361725D01*
X1305504Y-11371764D01*
X1321435Y-11387695D01*
X1374728Y-11464902D01*
X1376816Y-11467927D01*
X1376818Y-11467930D01*
X1431954Y-11516776D01*
X1504148Y-11580734D01*
X1654775Y-11659790D01*
X1819944Y-11700500D01*
X1819946Y-11700500D01*
X1990054Y-11700500D01*
X1990056Y-11700500D01*
X2155225Y-11659790D01*
X2305852Y-11580734D01*
X2433183Y-11467929D01*
X2433182Y-11467929D01*
X2436013Y-11465422D01*
X2437540Y-11467146D01*
X2474085Y-11449325D01*
X2519313Y-11464902D01*
X2530816Y-11478457D01*
X2545575Y-11501945D01*
X2545576Y-11501947D01*
X2673053Y-11629424D01*
X2825695Y-11725335D01*
X2975000Y-11777578D01*
X2975000Y-11259807D01*
X3062129Y-11310112D01*
X3146564Y-11325000D01*
X3203436Y-11325000D01*
X3287871Y-11310112D01*
X3375000Y-11259807D01*
X3375000Y-11777577D01*
X3524304Y-11725335D01*
X3676946Y-11629424D01*
X3804424Y-11501946D01*
X3900335Y-11349304D01*
X3952579Y-11200000D01*
X3431438Y-11200000D01*
X3460801Y-11165007D01*
X3500000Y-11057306D01*
X3500000Y-10942694D01*
X3460801Y-10834993D01*
X3431438Y-10800000D01*
X3952579Y-10800000D01*
X3900335Y-10650695D01*
X3804424Y-10498053D01*
X3676946Y-10370575D01*
X3524304Y-10274664D01*
X3375000Y-10222420D01*
X3375000Y-10740192D01*
X3287871Y-10689888D01*
X3203436Y-10675000D01*
X3146564Y-10675000D01*
X3062129Y-10689888D01*
X2975000Y-10740192D01*
X2975000Y-10222420D01*
X2825695Y-10274664D01*
X2673053Y-10370575D01*
X2545577Y-10498051D01*
X2530816Y-10521543D01*
X2491802Y-10549223D01*
X2444643Y-10541210D01*
X2436359Y-10534186D01*
X2436013Y-10534578D01*
X2305851Y-10419265D01*
X2155226Y-10340210D01*
X2148038Y-10338438D01*
X2109511Y-10310084D01*
X2100500Y-10277755D01*
X2100500Y-9779266D01*
X5649500Y-9779266D01*
X5650478Y-9789699D01*
X5652353Y-9809696D01*
X5652354Y-9809701D01*
X5697207Y-9937882D01*
X5697207Y-9937883D01*
X5736926Y-9991699D01*
X5777850Y-10047150D01*
X5887118Y-10127793D01*
X6015301Y-10172646D01*
X6045734Y-10175500D01*
X6045738Y-10175500D01*
X7054262Y-10175500D01*
X7054266Y-10175500D01*
X7084699Y-10172646D01*
X7212882Y-10127793D01*
X7322150Y-10047150D01*
X7402793Y-9937882D01*
X7447646Y-9809699D01*
X7447645Y-9809699D01*
X7448902Y-9806110D01*
X7450851Y-9806792D01*
X7474404Y-9772905D01*
X7508168Y-9763000D01*
X8237000Y-9763000D01*
X8281194Y-9781306D01*
X8299500Y-9825500D01*
X8299500Y-9970759D01*
X8309426Y-10038890D01*
X8309426Y-10038891D01*
X8309427Y-10038893D01*
X8360802Y-10143983D01*
X8443517Y-10226698D01*
X8548607Y-10278073D01*
X8616740Y-10288000D01*
X8616741Y-10288000D01*
X8983259Y-10288000D01*
X8983260Y-10288000D01*
X9051393Y-10278073D01*
X9156483Y-10226698D01*
X9239198Y-10143983D01*
X9290573Y-10038893D01*
X9300500Y-9970760D01*
X9300500Y-9550000D01*
X10100001Y-9550000D01*
X10100001Y-9991708D01*
X10102850Y-10022104D01*
X10147654Y-10150146D01*
X10147654Y-10150147D01*
X10228208Y-10259291D01*
X10337353Y-10339845D01*
X10465392Y-10384648D01*
X10465396Y-10384649D01*
X10495784Y-10387498D01*
X10495799Y-10387499D01*
X10499999Y-10387498D01*
X10500000Y-10387498D01*
X10500000Y-9550000D01*
X10900000Y-9550000D01*
X10900000Y-10387499D01*
X10904208Y-10387499D01*
X10934604Y-10384649D01*
X11062646Y-10339845D01*
X11062647Y-10339845D01*
X11171791Y-10259291D01*
X11252345Y-10150147D01*
X11252345Y-10150146D01*
X11297148Y-10022107D01*
X11297149Y-10022102D01*
X11300000Y-9991699D01*
X11300000Y-9550000D01*
X10900000Y-9550000D01*
X10500000Y-9550000D01*
X10100001Y-9550000D01*
X9300500Y-9550000D01*
X9300500Y-9150000D01*
X10100000Y-9150000D01*
X10500000Y-9150000D01*
X10500000Y-8312500D01*
X10900000Y-8312500D01*
X10900000Y-9150000D01*
X11299999Y-9150000D01*
X11299999Y-8708291D01*
X11297149Y-8677895D01*
X11252345Y-8549853D01*
X11252345Y-8549852D01*
X11171791Y-8440708D01*
X11062646Y-8360154D01*
X10934607Y-8315351D01*
X10934602Y-8315350D01*
X10904199Y-8312500D01*
X10900000Y-8312500D01*
X10500000Y-8312500D01*
X10499999Y-8312499D01*
X10495804Y-8312500D01*
X10495796Y-8312501D01*
X10465395Y-8315350D01*
X10337353Y-8360154D01*
X10337352Y-8360154D01*
X10228208Y-8440708D01*
X10147654Y-8549852D01*
X10147654Y-8549853D01*
X10102851Y-8677892D01*
X10102850Y-8677897D01*
X10100000Y-8708300D01*
X10100000Y-9150000D01*
X9300500Y-9150000D01*
X9300500Y-8729240D01*
X9290573Y-8661107D01*
X9239198Y-8556017D01*
X9156483Y-8473302D01*
X9051393Y-8421927D01*
X9051391Y-8421926D01*
X9051390Y-8421926D01*
X8990123Y-8413000D01*
X8983260Y-8412000D01*
X8616740Y-8412000D01*
X8609877Y-8413000D01*
X8548609Y-8421926D01*
X8443515Y-8473303D01*
X8360803Y-8556015D01*
X8309426Y-8661109D01*
X8299500Y-8729240D01*
X8299500Y-9099500D01*
X8281194Y-9143694D01*
X8237000Y-9162000D01*
X7508168Y-9162000D01*
X7463974Y-9143694D01*
X7450178Y-9118443D01*
X7448902Y-9118890D01*
X7431944Y-9070428D01*
X7402793Y-8987118D01*
X7391745Y-8972149D01*
X7376783Y-8951875D01*
X7322150Y-8877850D01*
X7212882Y-8797207D01*
X7084701Y-8752354D01*
X7084696Y-8752353D01*
X7064699Y-8750478D01*
X7054266Y-8749500D01*
X6045734Y-8749500D01*
X6036124Y-8750401D01*
X6015303Y-8752353D01*
X6015298Y-8752354D01*
X5887117Y-8797207D01*
X5887116Y-8797207D01*
X5777850Y-8877850D01*
X5697207Y-8987116D01*
X5697207Y-8987117D01*
X5652354Y-9115298D01*
X5652353Y-9115303D01*
X5650233Y-9137908D01*
X5649500Y-9145734D01*
X5649500Y-9779266D01*
X2100500Y-9779266D01*
X2100500Y-9070428D01*
X2112712Y-9033315D01*
X2127793Y-9012882D01*
X2172646Y-8884699D01*
X2175500Y-8854266D01*
X2175500Y-7845734D01*
X2172646Y-7815301D01*
X2127793Y-7687118D01*
X2113629Y-7667926D01*
X2112712Y-7666683D01*
X2100500Y-7629570D01*
X2100500Y-6382074D01*
X2102326Y-6370880D01*
X2101973Y-6370831D01*
X2102773Y-6365096D01*
X2100567Y-6317378D01*
X2100500Y-6314491D01*
X2100500Y-6295021D01*
X2100500Y-6295018D01*
X2100011Y-6292404D01*
X2099014Y-6283805D01*
X2098603Y-6274914D01*
X2097585Y-6252871D01*
X2091903Y-6240003D01*
X2087643Y-6226243D01*
X2085061Y-6212428D01*
X2068755Y-6186094D01*
X2064718Y-6178434D01*
X2052209Y-6150102D01*
X2052205Y-6150096D01*
X2042266Y-6140157D01*
X2033321Y-6128865D01*
X2025920Y-6116912D01*
X2025919Y-6116910D01*
X2004558Y-6100779D01*
X2000132Y-6097103D01*
X1990778Y-6088575D01*
X1988711Y-6086602D01*
X1974935Y-6072826D01*
X1972739Y-6071321D01*
X1965968Y-6065957D01*
X1943072Y-6045085D01*
X1943071Y-6045084D01*
X1934326Y-6041696D01*
X1929954Y-6040002D01*
X1917215Y-6033286D01*
X1905621Y-6025345D01*
X1905621Y-6025344D01*
X1883227Y-6020077D01*
X1875464Y-6018251D01*
X1867205Y-6015693D01*
X1838311Y-6004500D01*
X1838310Y-6004500D01*
X1824252Y-6004500D01*
X1809943Y-6002840D01*
X1796257Y-5999621D01*
X1765576Y-6003901D01*
X1756941Y-6004500D01*
X-1289406Y-6004500D01*
X-1333600Y-5986194D01*
X-1350705Y-5954193D01*
X-1361133Y-5901769D01*
X-1361134Y-5901767D01*
X-1405448Y-5835447D01*
X-1471768Y-5791133D01*
X-1471770Y-5791132D01*
X-1530252Y-5779500D01*
X-3269748Y-5779500D01*
X-3328231Y-5791132D01*
X-3328233Y-5791133D01*
X-3394553Y-5835447D01*
X-3438867Y-5901767D01*
X-3438868Y-5901769D01*
X-3450500Y-5960251D01*
X-3450500Y-6423641D01*
X-3468806Y-6467835D01*
X-3513000Y-6486141D01*
X-3557194Y-6467835D01*
X-4945645Y-5079384D01*
X-4952270Y-5070175D01*
X-4952555Y-5070391D01*
X-4956045Y-5065768D01*
X-4991359Y-5033576D01*
X-4993427Y-5031602D01*
X-5007203Y-5017826D01*
X-5009399Y-5016321D01*
X-5016170Y-5010957D01*
X-5039066Y-4990085D01*
X-5039067Y-4990084D01*
X-5047812Y-4986696D01*
X-5052184Y-4985002D01*
X-5064923Y-4978286D01*
X-5076517Y-4970345D01*
X-5076517Y-4970344D01*
X-5098911Y-4965077D01*
X-5106674Y-4963251D01*
X-5114933Y-4960693D01*
X-5143827Y-4949500D01*
X-5143828Y-4949500D01*
X-5157886Y-4949500D01*
X-5172195Y-4947840D01*
X-5185881Y-4944621D01*
X-5216562Y-4948901D01*
X-5225197Y-4949500D01*
X-6549641Y-4949500D01*
X-6593835Y-4931194D01*
X-7331194Y-4193835D01*
X-7349500Y-4149641D01*
X-7349500Y-3359211D01*
X-7347674Y-3348017D01*
X-7348027Y-3347968D01*
X-7347227Y-3342233D01*
X-7349433Y-3294515D01*
X-7349500Y-3291628D01*
X-7349500Y-3272159D01*
X-7349500Y-3272156D01*
X-7349989Y-3269542D01*
X-7350986Y-3260943D01*
X-7351977Y-3239500D01*
X-7352415Y-3230008D01*
X-7358098Y-3217137D01*
X-7362357Y-3203380D01*
X-7364939Y-3189568D01*
X-7364939Y-3189567D01*
X-7381244Y-3163233D01*
X-7385277Y-3155583D01*
X-7397794Y-3127234D01*
X-7407738Y-3117290D01*
X-7416683Y-3105997D01*
X-7424081Y-3094048D01*
X-7448801Y-3075380D01*
X-7455330Y-3069698D01*
X-7532549Y-2992479D01*
X-7622836Y-2902193D01*
X-7641141Y-2858000D01*
X-7622835Y-2813806D01*
X-7578641Y-2795500D01*
X-6504212Y-2795500D01*
X-6493021Y-2797325D01*
X-6492971Y-2796973D01*
X-6487237Y-2797772D01*
X-6487235Y-2797773D01*
X-6487234Y-2797772D01*
X-6487233Y-2797773D01*
X-6451115Y-2796103D01*
X-6439514Y-2795566D01*
X-6436628Y-2795500D01*
X-6417160Y-2795500D01*
X-6417156Y-2795500D01*
X-6414549Y-2795012D01*
X-6405953Y-2794014D01*
X-6375008Y-2792585D01*
X-6362147Y-2786906D01*
X-6348381Y-2782643D01*
X-6334567Y-2780061D01*
X-6308225Y-2763750D01*
X-6300590Y-2759725D01*
X-6272235Y-2747206D01*
X-6262290Y-2737259D01*
X-6251002Y-2728319D01*
X-6239048Y-2720919D01*
X-6220375Y-2696190D01*
X-6214707Y-2689676D01*
X-5279386Y-1754355D01*
X-5270179Y-1747733D01*
X-5270394Y-1747448D01*
X-5265776Y-1743959D01*
X-5265772Y-1743958D01*
X-5233565Y-1708627D01*
X-5231591Y-1706561D01*
X-5217826Y-1692797D01*
X-5216335Y-1690618D01*
X-5210958Y-1683829D01*
X-5190084Y-1660933D01*
X-5185005Y-1647820D01*
X-5178292Y-1635082D01*
X-5170344Y-1623481D01*
X-5163253Y-1593328D01*
X-5160699Y-1585076D01*
X-5149500Y-1556173D01*
X-5149500Y-1542114D01*
X-5147840Y-1527804D01*
X-5144621Y-1514119D01*
X-5148902Y-1483437D01*
X-5149500Y-1474803D01*
X-5149500Y-1118475D01*
X-5131194Y-1074281D01*
X-5096773Y-1056744D01*
X-5091874Y-1055969D01*
X-4971780Y-994778D01*
X-4876472Y-899470D01*
X-4815281Y-779376D01*
X-4799500Y-679738D01*
X-4799500Y137238D01*
X-4815281Y236876D01*
X-4815283Y236879D01*
X-4815283Y236881D01*
X-4876472Y356970D01*
X-4971781Y452279D01*
X-5091870Y513468D01*
X-5091880Y513471D01*
X-5191499Y529249D01*
X-5191511Y529250D01*
X-5191512Y529250D01*
X-5708488Y529250D01*
X-5708490Y529250D01*
X-5708502Y529249D01*
X-5808121Y513471D01*
X-5808131Y513468D01*
X-5928220Y452279D01*
X-6023529Y356970D01*
X-6084718Y236881D01*
X-6084721Y236871D01*
X-6100499Y137252D01*
X-6100500Y137236D01*
X-6100500Y-679735D01*
X-6100499Y-679751D01*
X-6084721Y-779370D01*
X-6084718Y-779380D01*
X-6023529Y-899469D01*
X-6023528Y-899470D01*
X-5928220Y-994778D01*
X-5808126Y-1055969D01*
X-5803228Y-1056744D01*
X-5762440Y-1081733D01*
X-5750500Y-1118475D01*
X-5750500Y-1349640D01*
X-5768806Y-1393834D01*
X-6551165Y-2176194D01*
X-6595359Y-2194500D01*
X-8412886Y-2194500D01*
X-8427195Y-2192840D01*
X-8440881Y-2189621D01*
X-8471562Y-2193901D01*
X-8480197Y-2194500D01*
X-8589406Y-2194500D01*
X-8633600Y-2176194D01*
X-8650705Y-2144193D01*
X-8661133Y-2091769D01*
X-8661134Y-2091767D01*
X-8705448Y-2025447D01*
X-8771768Y-1981133D01*
X-8771770Y-1981132D01*
X-8830252Y-1969500D01*
X-9370553Y-1969500D01*
X-9414747Y-1951194D01*
X-9433053Y-1907000D01*
X-9420433Y-1869341D01*
X-9414749Y-1861814D01*
X-9409082Y-1855301D01*
X-7979386Y-425605D01*
X-7970179Y-418983D01*
X-7970394Y-418698D01*
X-7965775Y-415209D01*
X-7965772Y-415208D01*
X-7959190Y-407987D01*
X-7915890Y-387658D01*
X-7870897Y-403900D01*
X-7850567Y-447201D01*
X-7850500Y-450091D01*
X-7850500Y-679735D01*
X-7850499Y-679751D01*
X-7834721Y-779370D01*
X-7834718Y-779380D01*
X-7773529Y-899469D01*
X-7678220Y-994778D01*
X-7558131Y-1055967D01*
X-7558129Y-1055967D01*
X-7558126Y-1055969D01*
X-7558123Y-1055969D01*
X-7558121Y-1055970D01*
X-7458502Y-1071748D01*
X-7458496Y-1071748D01*
X-7458488Y-1071750D01*
X-7458486Y-1071750D01*
X-6941514Y-1071750D01*
X-6941512Y-1071750D01*
X-6899493Y-1065095D01*
X-6841880Y-1055970D01*
X-6841880Y-1055969D01*
X-6841874Y-1055969D01*
X-6721780Y-994778D01*
X-6626472Y-899470D01*
X-6565281Y-779376D01*
X-6549500Y-679738D01*
X-6549500Y137238D01*
X-6565281Y236876D01*
X-6565283Y236879D01*
X-6565283Y236881D01*
X-6626472Y356970D01*
X-6721781Y452279D01*
X-6841870Y513468D01*
X-6841877Y513470D01*
X-6846783Y514247D01*
X-6887567Y539246D01*
X-6899500Y575977D01*
X-6899500Y2749641D01*
X-6881194Y2793835D01*
X-6700085Y2974944D01*
X-6655891Y2993250D01*
X-5956173Y2993250D01*
X-3706173Y2993250D01*
X-3255581Y2993250D01*
X-3211387Y2974944D01*
X-3199432Y2958200D01*
X-3189200Y2937270D01*
X-3189198Y2937267D01*
X-3106483Y2854552D01*
X-3001393Y2803177D01*
X-2933260Y2793250D01*
X-2933259Y2793250D01*
X-1566741Y2793250D01*
X-1566740Y2793250D01*
X-1498607Y2803177D01*
X-1393517Y2854552D01*
X-1310802Y2937267D01*
X-1259427Y3042357D01*
X-1249500Y3110490D01*
X-1249500Y3477010D01*
X-1259427Y3545143D01*
X-1310802Y3650233D01*
X-1393517Y3732948D01*
X-1498607Y3784323D01*
X-1498609Y3784324D01*
X-1498610Y3784324D01*
X-1552733Y3792210D01*
X-1566740Y3794250D01*
X-2933260Y3794250D01*
X-2944879Y3792558D01*
X-3001391Y3784324D01*
X-3106485Y3732947D01*
X-3189198Y3650234D01*
X-3189200Y3650231D01*
X-3199432Y3629300D01*
X-3235288Y3597636D01*
X-3255581Y3594250D01*
X-5929891Y3594250D01*
X-5974085Y3612556D01*
X-5992391Y3656750D01*
X-5974085Y3700944D01*
X-5880779Y3794250D01*
X-5379386Y4295645D01*
X-5370179Y4302267D01*
X-5370394Y4302552D01*
X-5365776Y4306041D01*
X-5365772Y4306042D01*
X-5333565Y4341373D01*
X-5331591Y4343439D01*
X-5317826Y4357203D01*
X-5316335Y4359382D01*
X-5310958Y4366171D01*
X-5290084Y4389067D01*
X-5285005Y4402180D01*
X-5278292Y4414918D01*
X-5270344Y4426519D01*
X-5263253Y4456672D01*
X-5260699Y4464924D01*
X-5249500Y4493827D01*
X-5249500Y4507886D01*
X-5247840Y4522196D01*
X-5244621Y4535881D01*
X-5248901Y4566563D01*
X-5249500Y4575198D01*
X-5249500Y8112000D01*
X-5231194Y8156194D01*
X-5187000Y8174500D01*
X-5045738Y8174500D01*
X-5045734Y8174500D01*
X-5015301Y8177354D01*
X-4887118Y8222207D01*
X-4777850Y8302850D01*
X-4697207Y8412118D01*
X-4652354Y8540301D01*
X-4649500Y8570734D01*
X-4649500Y9204266D01*
X-4652354Y9234699D01*
X-4697207Y9362882D01*
X-4761420Y9449887D01*
X-4772934Y9496315D01*
X-4748246Y9537287D01*
X-4711132Y9549500D01*
X-2788868Y9549500D01*
X-2744674Y9531194D01*
X-2726368Y9487000D01*
X-2738581Y9449886D01*
X-2802793Y9362884D01*
X-2802793Y9362883D01*
X-2847646Y9234702D01*
X-2847647Y9234697D01*
X-2850500Y9204263D01*
X-2850500Y8570738D01*
X-2847647Y8540304D01*
X-2847646Y8540299D01*
X-2802793Y8412118D01*
X-2802793Y8412117D01*
X-2762472Y8357484D01*
X-2722150Y8302850D01*
X-2612882Y8222207D01*
X-2484699Y8177354D01*
X-2454266Y8174500D01*
X-2137859Y8174500D01*
X-2093665Y8156194D01*
X-418806Y6481335D01*
X-400500Y6437141D01*
X-400500Y5963314D01*
X-418806Y5919120D01*
X-463000Y5900814D01*
X-507194Y5919120D01*
X-521180Y5940480D01*
X-551216Y6017010D01*
X-555448Y6027794D01*
X-555449Y6027796D01*
X-640119Y6133968D01*
X-640121Y6133970D01*
X-655643Y6144553D01*
X-752327Y6210472D01*
X-752329Y6210473D01*
X-752331Y6210474D01*
X-882096Y6250500D01*
X-882098Y6250500D01*
X-1345181Y6250500D01*
X-1389375Y6268806D01*
X-1393516Y6272947D01*
X-1393517Y6272948D01*
X-1498607Y6324323D01*
X-1498609Y6324324D01*
X-1498610Y6324324D01*
X-1552733Y6332210D01*
X-1566740Y6334250D01*
X-2933260Y6334250D01*
X-2944879Y6332558D01*
X-3001391Y6324324D01*
X-3106485Y6272947D01*
X-3189197Y6190235D01*
X-3240574Y6085141D01*
X-3248929Y6027795D01*
X-3250500Y6017010D01*
X-3250500Y5650490D01*
X-3248460Y5636483D01*
X-3240574Y5582360D01*
X-3240574Y5582359D01*
X-3240573Y5582357D01*
X-3189198Y5477267D01*
X-3106483Y5394552D01*
X-3001393Y5343177D01*
X-2933260Y5333250D01*
X-2613000Y5333250D01*
X-2568806Y5314944D01*
X-2550500Y5270750D01*
X-2550500Y5126750D01*
X-2568806Y5082556D01*
X-2613000Y5064250D01*
X-2933260Y5064250D01*
X-2944879Y5062558D01*
X-3001391Y5054324D01*
X-3106485Y5002947D01*
X-3189197Y4920235D01*
X-3240574Y4815141D01*
X-3250500Y4747010D01*
X-3250500Y4380491D01*
X-3240574Y4312360D01*
X-3240574Y4312359D01*
X-3240573Y4312357D01*
X-3189198Y4207267D01*
X-3106483Y4124552D01*
X-3001393Y4073177D01*
X-2933260Y4063250D01*
X-2933259Y4063250D01*
X-1566741Y4063250D01*
X-1566740Y4063250D01*
X-1498607Y4073177D01*
X-1393517Y4124552D01*
X-1310802Y4207267D01*
X-1259427Y4312357D01*
X-1249500Y4380490D01*
X-1249500Y4747010D01*
X-1259427Y4815143D01*
X-1310802Y4920233D01*
X-1393517Y5002948D01*
X-1498607Y5054323D01*
X-1498609Y5054324D01*
X-1498610Y5054324D01*
X-1552733Y5062210D01*
X-1566740Y5064250D01*
X-1566741Y5064250D01*
X-1887000Y5064250D01*
X-1931194Y5082556D01*
X-1949500Y5126750D01*
X-1949500Y5270750D01*
X-1931194Y5314944D01*
X-1887000Y5333250D01*
X-1566741Y5333250D01*
X-1566740Y5333250D01*
X-1498607Y5343177D01*
X-1498602Y5343180D01*
X-1493970Y5344610D01*
X-1493863Y5344261D01*
X-1471214Y5349500D01*
X-916244Y5349500D01*
X-916238Y5349500D01*
X-815713Y5364652D01*
X-693358Y5423575D01*
X-593806Y5515945D01*
X-525904Y5633555D01*
X-523933Y5642189D01*
X-496253Y5681203D01*
X-449094Y5689216D01*
X-410080Y5661536D01*
X-400500Y5628283D01*
X-400500Y2800359D01*
X-418806Y2756165D01*
X-832415Y2342556D01*
X-876609Y2324250D01*
X-1244419Y2324250D01*
X-1288613Y2342556D01*
X-1300568Y2359300D01*
X-1310801Y2380231D01*
X-1310803Y2380234D01*
X-1393516Y2462947D01*
X-1393517Y2462948D01*
X-1498607Y2514323D01*
X-1498609Y2514324D01*
X-1498610Y2514324D01*
X-1552733Y2522210D01*
X-1566740Y2524250D01*
X-2933260Y2524250D01*
X-2944879Y2522558D01*
X-3001391Y2514324D01*
X-3106485Y2462947D01*
X-3189197Y2380235D01*
X-3240574Y2275141D01*
X-3250500Y2207010D01*
X-3250500Y1840491D01*
X-3240574Y1772360D01*
X-3240574Y1772359D01*
X-3240573Y1772357D01*
X-3189198Y1667267D01*
X-3106483Y1584552D01*
X-3001393Y1533177D01*
X-2933260Y1523250D01*
X-2513000Y1523250D01*
X-2468806Y1504944D01*
X-2450500Y1460750D01*
X-2450500Y575977D01*
X-2468806Y531783D01*
X-2503217Y514247D01*
X-2508124Y513470D01*
X-2508131Y513468D01*
X-2628220Y452279D01*
X-2723529Y356970D01*
X-2784718Y236881D01*
X-2784721Y236871D01*
X-2800499Y137252D01*
X-2800500Y137236D01*
X-2800500Y-679735D01*
X-2800499Y-679751D01*
X-2784721Y-779370D01*
X-2784718Y-779380D01*
X-2723529Y-899469D01*
X-2680192Y-942806D01*
X-2661886Y-987000D01*
X-2680192Y-1031194D01*
X-2724386Y-1049500D01*
X-3090788Y-1049500D01*
X-3101980Y-1047674D01*
X-3102029Y-1048027D01*
X-3107768Y-1047226D01*
X-3154273Y-1049376D01*
X-3155487Y-1049433D01*
X-3158372Y-1049500D01*
X-3177848Y-1049500D01*
X-3180455Y-1049988D01*
X-3189049Y-1050984D01*
X-3219990Y-1052414D01*
X-3219998Y-1052416D01*
X-3232863Y-1058096D01*
X-3246616Y-1062355D01*
X-3260432Y-1064938D01*
X-3260437Y-1064940D01*
X-3286771Y-1081244D01*
X-3294422Y-1085277D01*
X-3322765Y-1097792D01*
X-3322769Y-1097795D01*
X-3332714Y-1107740D01*
X-3344001Y-1116680D01*
X-3355951Y-1124079D01*
X-3355953Y-1124081D01*
X-3374620Y-1148800D01*
X-3380301Y-1155328D01*
X-4020618Y-1795645D01*
X-4029825Y-1802271D01*
X-4029611Y-1802555D01*
X-4034230Y-1806042D01*
X-4066416Y-1841348D01*
X-4068405Y-1843431D01*
X-4082174Y-1857201D01*
X-4083680Y-1859400D01*
X-4089041Y-1866165D01*
X-4109916Y-1889066D01*
X-4109918Y-1889068D01*
X-4114999Y-1902184D01*
X-4121712Y-1914919D01*
X-4129656Y-1926516D01*
X-4129657Y-1926520D01*
X-4136750Y-1956672D01*
X-4139309Y-1964935D01*
X-4150500Y-1993825D01*
X-4150500Y-2007884D01*
X-4152160Y-2022193D01*
X-4155379Y-2035879D01*
X-4151099Y-2066561D01*
X-4150500Y-2075196D01*
X-4150500Y-4390787D01*
X-4152326Y-4401979D01*
X-4151973Y-4402029D01*
X-4152774Y-4407767D01*
X-4150567Y-4455483D01*
X-4150500Y-4458370D01*
X-4150500Y-4477847D01*
X-4150012Y-4480456D01*
X-4149016Y-4489050D01*
X-4147586Y-4519987D01*
X-4147584Y-4519995D01*
X-4141905Y-4532858D01*
X-4137645Y-4546614D01*
X-4135061Y-4560433D01*
X-4118754Y-4586772D01*
X-4114726Y-4594412D01*
X-4107794Y-4610109D01*
X-4102206Y-4622765D01*
X-4092265Y-4632706D01*
X-4083323Y-4643994D01*
X-4075919Y-4655952D01*
X-4051193Y-4674624D01*
X-4044672Y-4680299D01*
X-3519357Y-5205614D01*
X-3512734Y-5214819D01*
X-3512450Y-5214605D01*
X-3508961Y-5219225D01*
X-3473642Y-5251423D01*
X-3471554Y-5253417D01*
X-3468806Y-5256165D01*
X-3450500Y-5300359D01*
X-3450500Y-5379748D01*
X-3438868Y-5438230D01*
X-3438867Y-5438232D01*
X-3394553Y-5504552D01*
X-3328233Y-5548866D01*
X-3328231Y-5548867D01*
X-3269748Y-5560500D01*
X-1530252Y-5560500D01*
X-1471769Y-5548867D01*
X-1405448Y-5504552D01*
X-1361133Y-5438231D01*
X-1349500Y-5379748D01*
X-1349500Y-4867700D01*
X-1331194Y-4823506D01*
X-1287000Y-4805200D01*
X-1242806Y-4823506D01*
X-1237124Y-4830035D01*
X-1233958Y-4834228D01*
X-1198642Y-4866423D01*
X-1196554Y-4868417D01*
X-1182797Y-4882174D01*
X-1180606Y-4883674D01*
X-1173830Y-4889043D01*
X-1150933Y-4909916D01*
X-1137823Y-4914995D01*
X-1125079Y-4921711D01*
X-1113481Y-4929656D01*
X-1083331Y-4936747D01*
X-1075061Y-4939308D01*
X-1046173Y-4950500D01*
X-1032114Y-4950500D01*
X-1017806Y-4952159D01*
X-1004119Y-4955379D01*
X-973438Y-4951098D01*
X-964803Y-4950500D01*
X1162141Y-4950500D01*
X1206335Y-4968806D01*
X4045643Y-7808114D01*
X4052266Y-7817319D01*
X4052550Y-7817105D01*
X4056039Y-7821725D01*
X4056041Y-7821727D01*
X4056042Y-7821728D01*
X4091358Y-7853923D01*
X4093446Y-7855917D01*
X4107203Y-7869674D01*
X4109394Y-7871174D01*
X4116170Y-7876543D01*
X4139067Y-7897416D01*
X4152177Y-7902495D01*
X4164921Y-7909211D01*
X4176519Y-7917156D01*
X4206669Y-7924247D01*
X4214939Y-7926808D01*
X4243827Y-7938000D01*
X4257886Y-7938000D01*
X4272194Y-7939659D01*
X4285881Y-7942879D01*
X4316562Y-7938598D01*
X4325197Y-7938000D01*
X5591832Y-7938000D01*
X5636026Y-7956306D01*
X5649821Y-7981556D01*
X5651098Y-7981110D01*
X5697207Y-8112882D01*
X5697207Y-8112883D01*
X5734852Y-8163890D01*
X5777850Y-8222150D01*
X5887118Y-8302793D01*
X6015301Y-8347646D01*
X6045734Y-8350500D01*
X6045738Y-8350500D01*
X7054262Y-8350500D01*
X7054266Y-8350500D01*
X7084699Y-8347646D01*
X7212882Y-8302793D01*
X7322150Y-8222150D01*
X7402793Y-8112882D01*
X7447646Y-7984699D01*
X7450500Y-7954266D01*
X7450500Y-7320734D01*
X7447646Y-7290301D01*
X7402793Y-7162118D01*
X7322150Y-7052850D01*
X7212882Y-6972207D01*
X7171155Y-6957606D01*
X7084701Y-6927354D01*
X7084696Y-6927353D01*
X7064699Y-6925478D01*
X7054266Y-6924500D01*
X6045734Y-6924500D01*
X6036124Y-6925401D01*
X6015303Y-6927353D01*
X6015298Y-6927354D01*
X5887117Y-6972207D01*
X5887116Y-6972207D01*
X5777850Y-7052850D01*
X5697207Y-7162116D01*
X5697207Y-7162117D01*
X5651098Y-7293890D01*
X5649148Y-7293207D01*
X5625596Y-7327095D01*
X5591832Y-7337000D01*
X4450359Y-7337000D01*
X4406165Y-7318694D01*
X2107219Y-5019748D01*
X3999500Y-5019748D01*
X4011132Y-5078230D01*
X4011133Y-5078232D01*
X4055447Y-5144552D01*
X4121767Y-5188866D01*
X4121769Y-5188867D01*
X4180252Y-5200500D01*
X6219748Y-5200500D01*
X6278231Y-5188867D01*
X6344552Y-5144552D01*
X6388867Y-5078231D01*
X6400500Y-5019748D01*
X6400500Y-4238000D01*
X6418806Y-4193806D01*
X6463000Y-4175500D01*
X7524641Y-4175500D01*
X7568835Y-4193806D01*
X9431194Y-6056165D01*
X9449500Y-6100359D01*
X9449500Y-6531918D01*
X9431194Y-6576112D01*
X9414451Y-6588067D01*
X9393518Y-6598300D01*
X9310803Y-6681015D01*
X9310802Y-6681016D01*
X9310802Y-6681017D01*
X9285114Y-6733562D01*
X9259426Y-6786109D01*
X9249500Y-6854240D01*
X9249500Y-8095759D01*
X9259426Y-8163890D01*
X9259426Y-8163891D01*
X9259427Y-8163893D01*
X9310802Y-8268983D01*
X9393517Y-8351698D01*
X9498607Y-8403073D01*
X9566740Y-8413000D01*
X9566741Y-8413000D01*
X9933259Y-8413000D01*
X9933260Y-8413000D01*
X10001393Y-8403073D01*
X10106483Y-8351698D01*
X10189198Y-8268983D01*
X10240573Y-8163893D01*
X10250500Y-8095760D01*
X10250500Y-6854240D01*
X10240573Y-6786107D01*
X10189198Y-6681017D01*
X10106483Y-6598302D01*
X10106481Y-6598300D01*
X10085549Y-6588067D01*
X10053886Y-6552210D01*
X10050500Y-6531918D01*
X10050500Y-6009211D01*
X10052326Y-5998017D01*
X10051973Y-5997968D01*
X10052773Y-5992233D01*
X10050567Y-5944515D01*
X10050500Y-5941628D01*
X10050500Y-5922159D01*
X10050500Y-5922156D01*
X10050011Y-5919542D01*
X10049014Y-5910942D01*
X10047585Y-5880009D01*
X10047585Y-5880008D01*
X10041904Y-5867143D01*
X10037643Y-5853381D01*
X10035061Y-5839566D01*
X10018754Y-5813230D01*
X10014724Y-5805585D01*
X10002206Y-5777235D01*
X9992266Y-5767295D01*
X9983321Y-5756003D01*
X9975920Y-5744050D01*
X9975919Y-5744048D01*
X9951196Y-5725378D01*
X9944667Y-5719696D01*
X8145286Y-3920315D01*
X8126980Y-3876121D01*
X8143291Y-3834016D01*
X8166435Y-3808627D01*
X8168409Y-3806561D01*
X8182174Y-3792797D01*
X8183665Y-3790618D01*
X8189042Y-3783829D01*
X8209916Y-3760933D01*
X8214997Y-3747816D01*
X8221710Y-3735079D01*
X8229657Y-3723480D01*
X8236750Y-3693318D01*
X8239302Y-3685075D01*
X8250500Y-3656173D01*
X8250500Y-3642114D01*
X8252160Y-3627804D01*
X8253139Y-3623641D01*
X8255379Y-3614119D01*
X8251099Y-3583437D01*
X8250500Y-3574802D01*
X8250500Y7837000D01*
X8268806Y7881194D01*
X8313000Y7899500D01*
X8479262Y7899500D01*
X8479266Y7899500D01*
X8509699Y7902354D01*
X8637882Y7947207D01*
X8747150Y8027850D01*
X8827793Y8137118D01*
X8872646Y8265301D01*
X8875500Y8295734D01*
X8875500Y8904266D01*
X8872646Y8934699D01*
X8827793Y9062882D01*
X8814091Y9081447D01*
X8801783Y9098125D01*
X8747150Y9172150D01*
X8637882Y9252793D01*
X8509701Y9297646D01*
X8509696Y9297647D01*
X8489699Y9299522D01*
X8479266Y9300500D01*
X7420734Y9300500D01*
X7411124Y9299599D01*
X7390303Y9297647D01*
X7390298Y9297646D01*
X7262117Y9252793D01*
X7262116Y9252793D01*
X7152850Y9172150D01*
X7072207Y9062884D01*
X7072207Y9062883D01*
X7027354Y8934702D01*
X7027353Y8934697D01*
X7024500Y8904263D01*
X7024500Y8295738D01*
X7027353Y8265304D01*
X7027354Y8265299D01*
X7072207Y8137118D01*
X7072207Y8137117D01*
X7112528Y8082484D01*
X7152850Y8027850D01*
X7262118Y7947207D01*
X7390301Y7902354D01*
X7420734Y7899500D01*
X7587000Y7899500D01*
X7631194Y7881194D01*
X7649500Y7837000D01*
X7649500Y-3449641D01*
X7631194Y-3493835D01*
X7568835Y-3556194D01*
X7524641Y-3574500D01*
X6463000Y-3574500D01*
X6418806Y-3556194D01*
X6400500Y-3512000D01*
X6400500Y-1980252D01*
X6388867Y-1921769D01*
X6382895Y-1912831D01*
X6344552Y-1855447D01*
X6278232Y-1811133D01*
X6278230Y-1811132D01*
X6219748Y-1799500D01*
X4180252Y-1799500D01*
X4121769Y-1811132D01*
X4121767Y-1811133D01*
X4055447Y-1855447D01*
X4011133Y-1921767D01*
X4011132Y-1921769D01*
X3999500Y-1980251D01*
X3999500Y-5019748D01*
X2107219Y-5019748D01*
X1566855Y-4479384D01*
X1560230Y-4470175D01*
X1559945Y-4470391D01*
X1556455Y-4465768D01*
X1521141Y-4433576D01*
X1519073Y-4431602D01*
X1505297Y-4417826D01*
X1503101Y-4416321D01*
X1496330Y-4410957D01*
X1473434Y-4390085D01*
X1473433Y-4390084D01*
X1464688Y-4386696D01*
X1460316Y-4385002D01*
X1447577Y-4378286D01*
X1435983Y-4370345D01*
X1435983Y-4370344D01*
X1413589Y-4365077D01*
X1405826Y-4363251D01*
X1397567Y-4360693D01*
X1368673Y-4349500D01*
X1368672Y-4349500D01*
X1354614Y-4349500D01*
X1340305Y-4347840D01*
X1326619Y-4344621D01*
X1295938Y-4348901D01*
X1287303Y-4349500D01*
X-839641Y-4349500D01*
X-883835Y-4331194D01*
X-1331194Y-3883835D01*
X-1349500Y-3839641D01*
X-1349500Y-3420252D01*
X-1361133Y-3361769D01*
X-1370322Y-3348017D01*
X-1405448Y-3295447D01*
X-1471768Y-3251133D01*
X-1471770Y-3251132D01*
X-1510539Y-3243421D01*
X-1550313Y-3216845D01*
X-1559645Y-3169929D01*
X-1533069Y-3130155D01*
X-1505547Y-3120038D01*
X-1480124Y-3117089D01*
X-1377521Y-3071785D01*
X-1298215Y-2992479D01*
X-1252910Y-2889872D01*
X-1252909Y-2889872D01*
X-1250001Y-2864802D01*
X-1250000Y-2864800D01*
X-1250000Y-2695000D01*
X-2537500Y-2695000D01*
X-2581694Y-2676694D01*
X-2600000Y-2632500D01*
X-2600000Y-1870000D01*
X-2200000Y-1870000D01*
X-2200000Y-2295000D01*
X-1250001Y-2295000D01*
X-1250001Y-2125207D01*
X-1252911Y-2100123D01*
X-1298215Y-1997520D01*
X-1377521Y-1918214D01*
X-1480128Y-1872909D01*
X-1480128Y-1872908D01*
X-1505199Y-1870000D01*
X-2200000Y-1870000D01*
X-2600000Y-1870000D01*
X-3094142Y-1870000D01*
X-3138336Y-1851694D01*
X-3156642Y-1807500D01*
X-3138337Y-1763307D01*
X-3043835Y-1668806D01*
X-2999641Y-1650500D01*
X-9212Y-1650500D01*
X1979Y-1652325D01*
X2029Y-1651973D01*
X7763Y-1652772D01*
X7765Y-1652773D01*
X7766Y-1652772D01*
X7767Y-1652773D01*
X43885Y-1651103D01*
X55486Y-1650566D01*
X58372Y-1650500D01*
X77840Y-1650500D01*
X77844Y-1650500D01*
X80451Y-1650012D01*
X89047Y-1649014D01*
X119992Y-1647585D01*
X132853Y-1641906D01*
X146619Y-1637643D01*
X160433Y-1635061D01*
X186775Y-1618750D01*
X194410Y-1614725D01*
X222765Y-1602206D01*
X232710Y-1592259D01*
X243998Y-1583319D01*
X255952Y-1575919D01*
X274625Y-1551190D01*
X280293Y-1544676D01*
X1320614Y-504355D01*
X1329821Y-497733D01*
X1329606Y-497448D01*
X1334224Y-493959D01*
X1334228Y-493958D01*
X1366435Y-458627D01*
X1368409Y-456561D01*
X1382174Y-442797D01*
X1383665Y-440618D01*
X1389042Y-433829D01*
X1409916Y-410933D01*
X1414994Y-397821D01*
X1421711Y-385079D01*
X1429657Y-373481D01*
X1436750Y-343321D01*
X1439305Y-335067D01*
X1450500Y-306173D01*
X1450500Y-292115D01*
X1452160Y-277805D01*
X1455379Y-264119D01*
X1451099Y-233437D01*
X1450500Y-224802D01*
X1450500Y6637000D01*
X1468806Y6681194D01*
X1513000Y6699500D01*
X1558486Y6699500D01*
X1558488Y6699500D01*
X1658126Y6715281D01*
X1778220Y6776472D01*
X1873528Y6871780D01*
X1934719Y6991874D01*
X1939725Y7023481D01*
X1950498Y7091499D01*
X1950500Y7091515D01*
X1950500Y7608486D01*
X1950498Y7608502D01*
X1934720Y7708121D01*
X1934719Y7708123D01*
X1934719Y7708126D01*
X1934717Y7708129D01*
X1934717Y7708131D01*
X1873528Y7828220D01*
X1778219Y7923529D01*
X1658130Y7984718D01*
X1658120Y7984721D01*
X1558501Y8000499D01*
X1558489Y8000500D01*
X1558488Y8000500D01*
X741512Y8000500D01*
X741510Y8000500D01*
X741498Y8000499D01*
X641879Y7984721D01*
X641869Y7984718D01*
X521780Y7923529D01*
X426471Y7828220D01*
X365282Y7708131D01*
X365279Y7708121D01*
X349501Y7608502D01*
X349500Y7608486D01*
X349500Y7091515D01*
X349501Y7091499D01*
X365279Y6991880D01*
X365282Y6991870D01*
X426471Y6871781D01*
X521780Y6776472D01*
X641869Y6715283D01*
X641871Y6715283D01*
X641874Y6715281D01*
X641877Y6715281D01*
X641879Y6715280D01*
X741498Y6699502D01*
X741504Y6699502D01*
X741512Y6699500D01*
X787000Y6699500D01*
X831194Y6681194D01*
X849500Y6637000D01*
X849500Y-99641D01*
X831194Y-143835D01*
X-56165Y-1031194D01*
X-100359Y-1049500D01*
X-1575614Y-1049500D01*
X-1619808Y-1031194D01*
X-1638114Y-987000D01*
X-1619808Y-942806D01*
X-1604924Y-927922D01*
X-1576472Y-899470D01*
X-1515281Y-779376D01*
X-1499500Y-679738D01*
X-1499500Y137238D01*
X-1515281Y236876D01*
X-1515283Y236879D01*
X-1515283Y236881D01*
X-1576472Y356970D01*
X-1671781Y452279D01*
X-1791870Y513468D01*
X-1791877Y513470D01*
X-1796783Y514247D01*
X-1837567Y539246D01*
X-1849500Y575977D01*
X-1849500Y1460750D01*
X-1831194Y1504944D01*
X-1787000Y1523250D01*
X-1566741Y1523250D01*
X-1566740Y1523250D01*
X-1498607Y1533177D01*
X-1393517Y1584552D01*
X-1310802Y1667267D01*
X-1306476Y1676117D01*
X-1300568Y1688200D01*
X-1264712Y1719864D01*
X-1244419Y1723250D01*
X-785462Y1723250D01*
X-774271Y1721425D01*
X-774221Y1721777D01*
X-768487Y1720978D01*
X-768485Y1720977D01*
X-768484Y1720978D01*
X-768483Y1720977D01*
X-732365Y1722647D01*
X-720764Y1723184D01*
X-717878Y1723250D01*
X-698410Y1723250D01*
X-698406Y1723250D01*
X-695799Y1723738D01*
X-687203Y1724736D01*
X-656258Y1726165D01*
X-643397Y1731844D01*
X-629631Y1736107D01*
X-615817Y1738689D01*
X-589475Y1755000D01*
X-581840Y1759025D01*
X-553485Y1771544D01*
X-543540Y1781491D01*
X-532252Y1790431D01*
X-520298Y1797831D01*
X-501625Y1822560D01*
X-495957Y1829074D01*
X70614Y2395645D01*
X79821Y2402267D01*
X79606Y2402552D01*
X84224Y2406041D01*
X84228Y2406042D01*
X116435Y2441373D01*
X118409Y2443439D01*
X132174Y2457203D01*
X133665Y2459382D01*
X139042Y2466171D01*
X159916Y2489067D01*
X164995Y2502180D01*
X171708Y2514918D01*
X179656Y2526519D01*
X186747Y2556672D01*
X189301Y2564924D01*
X200500Y2593827D01*
X200500Y2607886D01*
X202160Y2622196D01*
X205379Y2635881D01*
X201099Y2666563D01*
X200500Y2675198D01*
X200500Y6528289D01*
X202326Y6539483D01*
X201973Y6539532D01*
X202773Y6545267D01*
X200567Y6592985D01*
X200500Y6595872D01*
X200500Y6615341D01*
X200500Y6615344D01*
X200011Y6617958D01*
X199014Y6626558D01*
X197585Y6657491D01*
X197585Y6657492D01*
X191904Y6670357D01*
X187643Y6684119D01*
X185061Y6697934D01*
X168754Y6724270D01*
X164724Y6731915D01*
X152206Y6760265D01*
X142266Y6770205D01*
X133321Y6781497D01*
X125920Y6793450D01*
X125919Y6793452D01*
X101196Y6812122D01*
X94667Y6817804D01*
X-1248778Y8161249D01*
X-1267084Y8205443D01*
X-1248778Y8249637D01*
X-1241714Y8255718D01*
X-1177850Y8302850D01*
X-1097207Y8412118D01*
X-1066456Y8500000D01*
X2625000Y8500000D01*
X2625000Y8406947D01*
X2625001Y8406930D01*
X2635614Y8318554D01*
X2691075Y8177913D01*
X2691080Y8177904D01*
X2782435Y8057436D01*
X2902903Y7966081D01*
X2902912Y7966076D01*
X3043553Y7910615D01*
X3131929Y7900002D01*
X3131947Y7900000D01*
X3450000Y7900000D01*
X3450000Y8500000D01*
X2625000Y8500000D01*
X-1066456Y8500000D01*
X-1052354Y8540301D01*
X-1049500Y8570734D01*
X-1049500Y8900000D01*
X2625000Y8900000D01*
X3450000Y8900000D01*
X3450000Y9500000D01*
X3131947Y9500000D01*
X3131929Y9499999D01*
X3043553Y9489386D01*
X2902912Y9433925D01*
X2902903Y9433920D01*
X2782435Y9342565D01*
X2691080Y9222097D01*
X2691075Y9222088D01*
X2635614Y9081447D01*
X2625001Y8993071D01*
X2625000Y8993054D01*
X2625000Y8900000D01*
X-1049500Y8900000D01*
X-1049500Y9204266D01*
X-1052354Y9234699D01*
X-1097207Y9362882D01*
X-1161420Y9449887D01*
X-1172934Y9496315D01*
X-1148246Y9537287D01*
X-1111132Y9549500D01*
X290788Y9549500D01*
X301979Y9547675D01*
X302029Y9548027D01*
X307763Y9547228D01*
X307765Y9547227D01*
X307766Y9547228D01*
X307767Y9547227D01*
X343885Y9548897D01*
X355486Y9549434D01*
X358372Y9549500D01*
X377840Y9549500D01*
X377844Y9549500D01*
X380451Y9549988D01*
X389047Y9550986D01*
X419992Y9552415D01*
X432853Y9558094D01*
X446619Y9562357D01*
X460433Y9564939D01*
X486775Y9581250D01*
X494410Y9585275D01*
X522765Y9597794D01*
X532710Y9607741D01*
X543998Y9616681D01*
X555952Y9624081D01*
X574625Y9648810D01*
X580293Y9655324D01*
X906165Y9981194D01*
X950359Y9999500D01*
X1558486Y9999500D01*
X1558488Y9999500D01*
X1658126Y10015281D01*
X1778220Y10076472D01*
X1873528Y10171780D01*
X1934719Y10291874D01*
X1935330Y10295734D01*
X2724500Y10295734D01*
X2724963Y10290800D01*
X2727353Y10265304D01*
X2727354Y10265299D01*
X2772207Y10137118D01*
X2772207Y10137117D01*
X2812528Y10082484D01*
X2852850Y10027850D01*
X2962118Y9947207D01*
X3090301Y9902354D01*
X3120734Y9899500D01*
X3120738Y9899500D01*
X4179262Y9899500D01*
X4179266Y9899500D01*
X4209699Y9902354D01*
X4337882Y9947207D01*
X4447150Y10027850D01*
X4486713Y10081457D01*
X4527684Y10106145D01*
X4574113Y10094631D01*
X4598802Y10053659D01*
X4599500Y10044343D01*
X4599500Y9406265D01*
X4581194Y9362071D01*
X4537000Y9343765D01*
X4499235Y9356465D01*
X4397096Y9433920D01*
X4397087Y9433925D01*
X4256446Y9489386D01*
X4168070Y9499999D01*
X4168053Y9500000D01*
X3850000Y9500000D01*
X3850000Y7900000D01*
X4168053Y7900000D01*
X4168070Y7900002D01*
X4256446Y7910615D01*
X4397087Y7966076D01*
X4397096Y7966081D01*
X4499235Y8043536D01*
X4545510Y8055654D01*
X4586800Y8031501D01*
X4599500Y7993736D01*
X4599500Y6263000D01*
X4581194Y6218806D01*
X4537000Y6200500D01*
X4180252Y6200500D01*
X4121769Y6188868D01*
X4121767Y6188867D01*
X4055447Y6144553D01*
X4011133Y6078233D01*
X4011132Y6078231D01*
X3999500Y6019749D01*
X3999500Y2980252D01*
X4011132Y2921770D01*
X4011133Y2921768D01*
X4055447Y2855448D01*
X4121767Y2811134D01*
X4121769Y2811133D01*
X4180252Y2799500D01*
X6219748Y2799500D01*
X6278231Y2811133D01*
X6344552Y2855448D01*
X6388867Y2921769D01*
X6400500Y2980252D01*
X6400500Y6019748D01*
X6388867Y6078231D01*
X6384250Y6085141D01*
X6344552Y6144553D01*
X6278232Y6188867D01*
X6278230Y6188868D01*
X6219748Y6200500D01*
X5463000Y6200500D01*
X5418806Y6218806D01*
X5400500Y6263000D01*
X5400500Y10387000D01*
X5418806Y10431194D01*
X5463000Y10449500D01*
X6962000Y10449500D01*
X7006194Y10431194D01*
X7024500Y10387000D01*
X7024500Y10195738D01*
X7027353Y10165304D01*
X7027354Y10165299D01*
X7072207Y10037118D01*
X7072207Y10037117D01*
X7099970Y9999500D01*
X7152850Y9927850D01*
X7262118Y9847207D01*
X7390301Y9802354D01*
X7420734Y9799500D01*
X7420738Y9799500D01*
X8479262Y9799500D01*
X8479266Y9799500D01*
X8509699Y9802354D01*
X8637882Y9847207D01*
X8747150Y9927850D01*
X8827793Y10037118D01*
X8872646Y10165301D01*
X8875500Y10195734D01*
X8875500Y10804266D01*
X8872646Y10834699D01*
X8827793Y10962882D01*
X8747150Y11072150D01*
X8637882Y11152793D01*
X8631981Y11154858D01*
X8509701Y11197646D01*
X8509696Y11197647D01*
X8489699Y11199522D01*
X8479266Y11200500D01*
X8479262Y11200500D01*
X7819257Y11200500D01*
X7789100Y11210298D01*
X7788471Y11209063D01*
X7784092Y11211295D01*
X7784090Y11211296D01*
X7784087Y11211297D01*
X7758417Y11219638D01*
X7749357Y11223391D01*
X7725302Y11235647D01*
X7725303Y11235647D01*
X7698638Y11239871D01*
X7689107Y11242159D01*
X7663433Y11250500D01*
X7663431Y11250500D01*
X5186440Y11250500D01*
X5176664Y11251269D01*
X5150000Y11255492D01*
X5123336Y11251269D01*
X5113560Y11250500D01*
X4355055Y11250500D01*
X4334413Y11254007D01*
X4209701Y11297646D01*
X4209696Y11297647D01*
X4189699Y11299522D01*
X4179266Y11300500D01*
X3120734Y11300500D01*
X3111124Y11299599D01*
X3090303Y11297647D01*
X3090298Y11297646D01*
X2962117Y11252793D01*
X2962116Y11252793D01*
X2852850Y11172150D01*
X2772207Y11062884D01*
X2772207Y11062883D01*
X2727354Y10934702D01*
X2727353Y10934697D01*
X2725233Y10912092D01*
X2724500Y10904266D01*
X2724500Y10295734D01*
X1935330Y10295734D01*
X1950500Y10391512D01*
X1950500Y10908488D01*
X1934719Y11008126D01*
X1934717Y11008129D01*
X1934717Y11008131D01*
X1873528Y11128220D01*
X1778219Y11223529D01*
X1658130Y11284718D01*
X1658120Y11284721D01*
X1558501Y11300499D01*
X1558489Y11300500D01*
X1558488Y11300500D01*
X741512Y11300500D01*
X741510Y11300500D01*
X741498Y11300499D01*
X641879Y11284721D01*
X641869Y11284718D01*
X521780Y11223529D01*
X426471Y11128220D01*
X365282Y11008131D01*
X365279Y11008121D01*
X349501Y10908502D01*
X349500Y10908486D01*
X349500Y10391511D01*
X360521Y10321928D01*
X349354Y10275414D01*
X342985Y10267957D01*
X243834Y10168806D01*
X199642Y10150500D01*
X-1039430Y10150500D01*
X-1083624Y10168806D01*
X-1101930Y10213000D01*
X-1098423Y10233642D01*
X-1052355Y10365299D01*
X-1052354Y10365301D01*
X-1049500Y10395734D01*
X-1049500Y11029266D01*
X-1052354Y11059699D01*
X-1097207Y11187882D01*
X-1113751Y11210298D01*
X-1132459Y11235647D01*
X-1177850Y11297150D01*
X-1287118Y11377793D01*
X-1415299Y11422646D01*
X-1415304Y11422647D01*
X-1435301Y11424522D01*
X-1445734Y11425500D01*
X-2454266Y11425500D01*
X-2463876Y11424599D01*
X-2484697Y11422647D01*
X-2484702Y11422646D01*
X-2612883Y11377793D01*
X-2612884Y11377793D01*
X-2722150Y11297151D01*
X-2730280Y11286135D01*
X-2737844Y11275887D01*
X-2778814Y11251198D01*
X-2788130Y11250500D01*
X-4013560Y11250500D01*
X-4023336Y11251269D01*
X-4050000Y11255492D01*
X-4076664Y11251269D01*
X-4086440Y11250500D01*
X-4711870Y11250500D01*
X-4756064Y11268806D01*
X-4762154Y11275882D01*
X-4777850Y11297150D01*
X-4782388Y11300499D01*
X-4887118Y11377793D01*
X-5015299Y11422646D01*
X-5015304Y11422647D01*
X-5035301Y11424522D01*
X-5045734Y11425500D01*
X-6054266Y11425500D01*
X-6063876Y11424599D01*
X-6084697Y11422647D01*
X-6084702Y11422646D01*
X-6212883Y11377793D01*
X-6212884Y11377793D01*
X-6322150Y11297150D01*
X-6402793Y11187884D01*
X-6402793Y11187883D01*
X-6414348Y11154858D01*
X-6446222Y11119190D01*
X-6473341Y11113000D01*
X-6576659Y11113000D01*
X-6620853Y11131306D01*
X-6635652Y11154858D01*
X-6647207Y11187882D01*
X-6663751Y11210298D01*
X-6682459Y11235647D01*
X-6727850Y11297150D01*
X-6837118Y11377793D01*
X-6965299Y11422646D01*
X-6965304Y11422647D01*
X-6985301Y11424522D01*
X-6995734Y11425500D01*
X-8004266Y11425500D01*
X-8013876Y11424599D01*
X-8034697Y11422647D01*
X-8034702Y11422646D01*
X-8162883Y11377793D01*
X-8162884Y11377793D01*
X-8272150Y11297150D01*
X-8352793Y11187884D01*
X-8352793Y11187883D01*
X-8397646Y11059702D01*
X-8397647Y11059697D01*
X-8400500Y11029263D01*
X-8400500Y10395738D01*
X-8397647Y10365304D01*
X-8397646Y10365299D01*
X-8352793Y10237118D01*
X-8352793Y10237117D01*
X-8314979Y10185882D01*
X-8272150Y10127850D01*
X-8162882Y10047207D01*
X-8034699Y10002354D01*
X-8004266Y9999500D01*
X-7326359Y9999500D01*
X-7282165Y9981194D01*
X-7263859Y9937000D01*
X-7282165Y9892806D01*
X-7556165Y9618806D01*
X-7600359Y9600500D01*
X-8004266Y9600500D01*
X-8013876Y9599599D01*
X-8034697Y9597647D01*
X-8034702Y9597646D01*
X-8162883Y9552793D01*
X-8162884Y9552793D01*
X-8272150Y9472150D01*
X-8352793Y9362884D01*
X-8352793Y9362883D01*
X-8397646Y9234702D01*
X-8397647Y9234697D01*
X-8400500Y9204263D01*
X-8400500Y8570738D01*
X-8397647Y8540304D01*
X-8397646Y8540299D01*
X-8368372Y8456638D01*
X-8371055Y8408878D01*
X-8383171Y8391802D01*
X-9620618Y7154355D01*
X-9629825Y7147729D01*
X-9629611Y7147445D01*
X-9634230Y7143958D01*
X-9666416Y7108652D01*
X-9668405Y7106569D01*
X-9682174Y7092799D01*
X-9683680Y7090600D01*
X-9689041Y7083835D01*
X-9709916Y7060934D01*
X-9709918Y7060932D01*
X-9714999Y7047816D01*
X-9721712Y7035081D01*
X-9729656Y7023484D01*
X-9729657Y7023480D01*
X-9736750Y6993328D01*
X-9739309Y6985065D01*
X-9750500Y6956175D01*
X-9750500Y6942116D01*
X-9752160Y6927807D01*
X-9755379Y6914121D01*
X-9751099Y6883439D01*
X-9750500Y6874804D01*
X-9750500Y6396750D01*
X-9768806Y6352556D01*
X-9813000Y6334250D01*
X-10133260Y6334250D01*
X-10144879Y6332558D01*
X-10201391Y6324324D01*
X-10306485Y6272947D01*
X-10389197Y6190235D01*
X-10440574Y6085141D01*
X-10448929Y6027795D01*
X-10450500Y6017010D01*
X-10450500Y5650490D01*
X-10448460Y5636483D01*
X-10440574Y5582360D01*
X-10440574Y5582359D01*
X-10440573Y5582357D01*
X-10389198Y5477267D01*
X-10306483Y5394552D01*
X-10201393Y5343177D01*
X-10133260Y5333250D01*
X-10133259Y5333250D01*
X-8766741Y5333250D01*
X-8766740Y5333250D01*
X-8698607Y5343177D01*
X-8593517Y5394552D01*
X-8510802Y5477267D01*
X-8459427Y5582357D01*
X-8449500Y5650490D01*
X-8449500Y6017010D01*
X-8459427Y6085143D01*
X-8510802Y6190233D01*
X-8593517Y6272948D01*
X-8698607Y6324323D01*
X-8698609Y6324324D01*
X-8698610Y6324324D01*
X-8752733Y6332210D01*
X-8766740Y6334250D01*
X-8766741Y6334250D01*
X-9087000Y6334250D01*
X-9131194Y6352556D01*
X-9149500Y6396750D01*
X-9149500Y6749641D01*
X-9131194Y6793835D01*
X-7768835Y8156194D01*
X-7724641Y8174500D01*
X-6995738Y8174500D01*
X-6995734Y8174500D01*
X-6965301Y8177354D01*
X-6837118Y8222207D01*
X-6727850Y8302850D01*
X-6647207Y8412118D01*
X-6602354Y8540301D01*
X-6599500Y8570734D01*
X-6599500Y9204266D01*
X-6602354Y9234699D01*
X-6647207Y9362882D01*
X-6711420Y9449887D01*
X-6722934Y9496315D01*
X-6698246Y9537287D01*
X-6661132Y9549500D01*
X-6388868Y9549500D01*
X-6344674Y9531194D01*
X-6326368Y9487000D01*
X-6338581Y9449886D01*
X-6402793Y9362884D01*
X-6402793Y9362883D01*
X-6447646Y9234702D01*
X-6447647Y9234697D01*
X-6450500Y9204263D01*
X-6450500Y8570738D01*
X-6447647Y8540304D01*
X-6447646Y8540299D01*
X-6402793Y8412118D01*
X-6402793Y8412117D01*
X-6362472Y8357484D01*
X-6322150Y8302850D01*
X-6212882Y8222207D01*
X-6084699Y8177354D01*
X-6054266Y8174500D01*
X-5913000Y8174500D01*
X-5868806Y8156194D01*
X-5850500Y8112000D01*
X-5850500Y4700359D01*
X-5868806Y4656165D01*
X-6547765Y3977206D01*
X-6979014Y3545958D01*
X-6979018Y3545953D01*
X-6988962Y3536011D01*
X-7000245Y3527075D01*
X-7012199Y3519672D01*
X-7012202Y3519670D01*
X-7030869Y3494951D01*
X-7036548Y3488425D01*
X-7047763Y3477209D01*
X-7047766Y3477206D01*
X-7370618Y3154355D01*
X-7379825Y3147729D01*
X-7379611Y3147445D01*
X-7384230Y3143958D01*
X-7416416Y3108652D01*
X-7418405Y3106569D01*
X-7432174Y3092799D01*
X-7433680Y3090600D01*
X-7439041Y3083835D01*
X-7459916Y3060934D01*
X-7459918Y3060932D01*
X-7464999Y3047816D01*
X-7471712Y3035081D01*
X-7479656Y3023484D01*
X-7479657Y3023480D01*
X-7486750Y2993328D01*
X-7489309Y2985065D01*
X-7500500Y2956175D01*
X-7500500Y2942116D01*
X-7502160Y2927807D01*
X-7505379Y2914121D01*
X-7501099Y2883439D01*
X-7500500Y2874804D01*
X-7500500Y575977D01*
X-7518806Y531783D01*
X-7553217Y514247D01*
X-7558124Y513470D01*
X-7558131Y513468D01*
X-7678220Y452279D01*
X-7742806Y387692D01*
X-7787000Y369386D01*
X-7831194Y387692D01*
X-7849500Y431886D01*
X-7849500Y4004538D01*
X-7847674Y4015732D01*
X-7848027Y4015781D01*
X-7847227Y4021516D01*
X-7849433Y4069234D01*
X-7849500Y4072121D01*
X-7849500Y4091590D01*
X-7849500Y4091593D01*
X-7849989Y4094207D01*
X-7850986Y4102807D01*
X-7851350Y4110677D01*
X-7852415Y4133741D01*
X-7858096Y4146606D01*
X-7862357Y4160368D01*
X-7864939Y4174183D01*
X-7881246Y4200519D01*
X-7885276Y4208164D01*
X-7897794Y4236514D01*
X-7907734Y4246454D01*
X-7916679Y4257746D01*
X-7924080Y4269699D01*
X-7924081Y4269701D01*
X-7948804Y4288371D01*
X-7955333Y4294053D01*
X-8395646Y4734366D01*
X-8402271Y4743575D01*
X-8402556Y4743359D01*
X-8406042Y4747976D01*
X-8406043Y4747978D01*
X-8439802Y4778754D01*
X-8456847Y4810861D01*
X-8457995Y4810506D01*
X-8459426Y4815135D01*
X-8459427Y4815143D01*
X-8510802Y4920233D01*
X-8593517Y5002948D01*
X-8698607Y5054323D01*
X-8698609Y5054324D01*
X-8698610Y5054324D01*
X-8752733Y5062210D01*
X-8766740Y5064250D01*
X-10133260Y5064250D01*
X-10144879Y5062558D01*
X-10201391Y5054324D01*
X-10306485Y5002947D01*
X-10389197Y4920235D01*
X-10440574Y4815141D01*
X-10450500Y4747010D01*
X-10450500Y4380491D01*
X-10440574Y4312360D01*
X-10440574Y4312359D01*
X-10440573Y4312357D01*
X-10389198Y4207267D01*
X-10306483Y4124552D01*
X-10201393Y4073177D01*
X-10133260Y4063250D01*
X-10133259Y4063250D01*
X-8766741Y4063250D01*
X-8766740Y4063250D01*
X-8698607Y4073177D01*
X-8661988Y4091080D01*
X-8614245Y4094042D01*
X-8590345Y4079123D01*
X-8468806Y3957584D01*
X-8450500Y3913390D01*
X-8450500Y3740819D01*
X-8468806Y3696625D01*
X-8513000Y3678319D01*
X-8557194Y3696625D01*
X-8593516Y3732947D01*
X-8593517Y3732948D01*
X-8698607Y3784323D01*
X-8698609Y3784324D01*
X-8698610Y3784324D01*
X-8752733Y3792210D01*
X-8766740Y3794250D01*
X-10133260Y3794250D01*
X-10144879Y3792558D01*
X-10201391Y3784324D01*
X-10306485Y3732947D01*
X-10389198Y3650234D01*
X-10389200Y3650231D01*
X-10399432Y3629300D01*
X-10435288Y3597636D01*
X-10455581Y3594250D01*
X-10653447Y3594250D01*
X-10681821Y3601062D01*
X-10749696Y3635646D01*
X-10875000Y3655492D01*
X-11000305Y3635646D01*
X-11000306Y3635646D01*
X-11113343Y3578050D01*
X-11203050Y3488343D01*
X-11260646Y3375306D01*
X-11260646Y3375305D01*
X-11280492Y3250000D01*
X-11260646Y3124696D01*
X-11260646Y3124695D01*
X-11221474Y3047816D01*
X-11203050Y3011658D01*
X-11113342Y2921950D01*
X-11000304Y2864354D01*
X-10875000Y2844508D01*
X-10749696Y2864354D01*
X-10636658Y2921950D01*
X-10583664Y2974944D01*
X-10539470Y2993250D01*
X-10455581Y2993250D01*
X-10411387Y2974944D01*
X-10399432Y2958200D01*
X-10389200Y2937270D01*
X-10389198Y2937267D01*
X-10306483Y2854552D01*
X-10201393Y2803177D01*
X-10133260Y2793250D01*
X-10133259Y2793250D01*
X-8766741Y2793250D01*
X-8766740Y2793250D01*
X-8698607Y2803177D01*
X-8593517Y2854552D01*
X-8557194Y2890875D01*
X-8513000Y2909181D01*
X-8468806Y2890875D01*
X-8450500Y2846681D01*
X-8450500Y2598899D01*
X-8468806Y2554705D01*
X-8513000Y2536399D01*
X-8550114Y2548612D01*
X-8587353Y2576096D01*
X-8715393Y2620899D01*
X-8715398Y2620900D01*
X-8745801Y2623750D01*
X-9250000Y2623750D01*
X-9250000Y1423751D01*
X-8745792Y1423751D01*
X-8715396Y1426601D01*
X-8587356Y1471404D01*
X-8550115Y1498889D01*
X-8503686Y1510404D01*
X-8462713Y1485717D01*
X-8450500Y1448602D01*
X-8450500Y-20890D01*
X-8468806Y-65084D01*
X-9745540Y-1341819D01*
X-9789734Y-1360125D01*
X-10581412Y-1360125D01*
X-10592604Y-1358299D01*
X-10592653Y-1358652D01*
X-10598392Y-1357851D01*
X-10644897Y-1360001D01*
X-10646111Y-1360058D01*
X-10648996Y-1360125D01*
X-10668473Y-1360125D01*
X-10671080Y-1360613D01*
X-10679674Y-1361609D01*
X-10710613Y-1363039D01*
X-10710621Y-1363041D01*
X-10723483Y-1368720D01*
X-10737239Y-1372980D01*
X-10751057Y-1375563D01*
X-10751062Y-1375565D01*
X-10777396Y-1391869D01*
X-10785047Y-1395902D01*
X-10813390Y-1408418D01*
X-10823335Y-1418362D01*
X-10834620Y-1427301D01*
X-10851498Y-1437753D01*
X-10852610Y-1435958D01*
X-10889894Y-1449416D01*
X-10933193Y-1429083D01*
X-10949500Y-1386983D01*
X-10949500Y-1171608D01*
X-10931197Y-1127417D01*
X-10882044Y-1078263D01*
X-10837853Y-1059959D01*
X-10828074Y-1060729D01*
X-10777550Y-1068730D01*
X-10758488Y-1071750D01*
X-10758486Y-1071750D01*
X-10241514Y-1071750D01*
X-10241512Y-1071750D01*
X-10199493Y-1065095D01*
X-10141880Y-1055970D01*
X-10141880Y-1055969D01*
X-10141874Y-1055969D01*
X-10021780Y-994778D01*
X-9926472Y-899470D01*
X-9865281Y-779376D01*
X-9849500Y-679738D01*
X-9849500Y137238D01*
X-9865281Y236876D01*
X-9865283Y236879D01*
X-9865283Y236881D01*
X-9926472Y356970D01*
X-10021781Y452279D01*
X-10141870Y513468D01*
X-10141880Y513471D01*
X-10241499Y529249D01*
X-10241511Y529250D01*
X-10241512Y529250D01*
X-10758488Y529250D01*
X-10758490Y529250D01*
X-10758502Y529249D01*
X-10858121Y513471D01*
X-10858131Y513468D01*
X-10978220Y452279D01*
X-11073529Y356970D01*
X-11134718Y236881D01*
X-11134721Y236871D01*
X-11150499Y137252D01*
X-11150500Y137236D01*
X-11150500Y-470890D01*
X-11168806Y-515084D01*
X-11420618Y-766895D01*
X-11429825Y-773521D01*
X-11429611Y-773805D01*
X-11434230Y-777292D01*
X-11466416Y-812598D01*
X-11468405Y-814681D01*
X-11482174Y-828451D01*
X-11483680Y-830650D01*
X-11489041Y-837415D01*
X-11509916Y-860316D01*
X-11509918Y-860318D01*
X-11514999Y-873434D01*
X-11521712Y-886169D01*
X-11529656Y-897766D01*
X-11529657Y-897770D01*
X-11536750Y-927922D01*
X-11539309Y-936185D01*
X-11550500Y-965075D01*
X-11550500Y-979134D01*
X-11552160Y-993443D01*
X-11555379Y-1007129D01*
X-11974500Y-1007129D01*
X-11974500Y1823750D01*
X-10549999Y1823750D01*
X-10549999Y1819542D01*
X-10547150Y1789146D01*
X-10502346Y1661104D01*
X-10502346Y1661103D01*
X-10421792Y1551959D01*
X-10312647Y1471405D01*
X-10184608Y1426602D01*
X-10184603Y1426601D01*
X-10154200Y1423751D01*
X-9650000Y1423751D01*
X-9650000Y1823750D01*
X-10549999Y1823750D01*
X-11974500Y1823750D01*
X-11974500Y2223750D01*
X-10550000Y2223750D01*
X-9650000Y2223750D01*
X-9650000Y2623750D01*
X-10154209Y2623750D01*
X-10184605Y2620900D01*
X-10312647Y2576096D01*
X-10312648Y2576096D01*
X-10421792Y2495542D01*
X-10502346Y2386398D01*
X-10502346Y2386397D01*
X-10547149Y2258358D01*
X-10547150Y2258353D01*
X-10550000Y2227950D01*
X-10550000Y2223750D01*
X-11974500Y2223750D01*
X-11974500Y11912000D01*
X-11956194Y11956194D01*
X-11912000Y11974500D01*
X11912000Y11974500D01*
X11956194Y11956194D01*
G37*
%TD.AperFunction*%
%TD*%
M02*
